<svg width="106" height="97" viewBox="0 0 106 97" fill="none" xmlns="http://www.w3.org/2000/svg">
<path d="M85.8855 46.1947V77.2862L52.9707 96.2832V57.4041L85.8855 46.1947Z" fill="#D4E3EE"/>
<path d="M52.9701 57.4041V96.2832L20.1143 77.2862V46.1947L52.9701 57.4041Z" fill="#EDF6FD"/>
<path d="M105.999 20.472V18.9971L85.8848 38.4071V39.882L105.999 20.472Z" fill="#C2D4E1"/>
<path d="M52.9707 19.41L73.0853 0L106 18.9971L85.8855 38.4071L52.9707 19.41Z" fill="#E9EFF5"/>
<path d="M106 57.8171L85.8855 38.4071L52.9707 57.4042L73.0853 76.8142L106 57.8171Z" fill="#E9EFF5"/>
<path d="M0 20.472V18.9971L20.1146 38.4071V39.882L0 20.472Z" fill="#C2D4E1"/>
<path d="M52.9705 19.41L32.8558 0L0 18.9971L20.1146 38.4071L52.9705 19.41Z" fill="#E9EFF5"/>
<path d="M32.8558 78.2891V76.8142L0 57.8171V59.2921L32.8558 78.2891Z" fill="#C2D4E1"/>
<path d="M52.9701 58.8791V57.4042L32.8555 76.8142V78.2891L52.9701 58.8791Z" fill="#C2D4E1"/>
<path d="M52.9707 58.8791V57.4042L73.0853 76.8142V78.2891L52.9707 58.8791Z" fill="#B1C9DA"/>
<path d="M73.085 78.2891V76.8142L106 57.8171V59.2921L73.085 78.2891Z" fill="#B1C9DA"/>
<path d="M0 57.8171L20.1146 38.4071L52.9705 57.4042L32.8558 76.8142L0 57.8171Z" fill="#E9EFF5"/>
<path d="M52.9701 19.41L20.1143 38.4071L52.9701 57.4042V19.41Z" fill="#D4E3EE"/>
<path d="M52.9697 19.41V57.4042L85.8846 38.4071L52.9697 19.41Z" fill="#EDF6FD"/>
</svg>
