<svg width="105" height="98" viewBox="0 0 105 98" fill="none" xmlns="http://www.w3.org/2000/svg">
<path d="M95.9475 43.6904L54.0607 19.3254C51.791 17.9926 49.7689 17.9093 48.2833 18.7423L2.39355 45.4814C3.87919 44.6067 5.94258 44.7317 8.17104 46.0644L50.0165 70.4711C54.5147 73.095 58.1875 79.5507 58.1875 84.7986V92.1289C58.1875 94.7528 57.2796 96.5854 55.794 97.46L101.684 70.721C103.169 69.8464 104.077 68.0138 104.077 65.3899V58.0595C104.118 52.77 100.446 46.3143 95.9475 43.6904Z" fill="url(#paint0_linear)"/>
<path d="M50.0577 96.8769C52.3275 98.2097 54.3496 98.293 55.8352 97.46C57.3209 96.5853 58.2287 94.7528 58.2287 92.1288V84.7985C58.2287 79.5507 54.5559 73.095 50.0577 70.4711L8.17101 46.0644C5.90128 44.7316 3.87916 44.6483 2.39353 45.4813C0.90789 46.356 0 48.1885 0 50.8125V58.1428C0 63.3906 3.67283 69.8463 8.17101 72.4702L50.0577 96.8769Z" fill="#F3FAFA"/>
<path d="M23.977 66.3477C21.8724 67.5556 21.1708 70.2628 22.3676 72.3869C23.5643 74.5111 26.2467 75.2191 28.3514 74.0113C29.5482 73.3032 29.5482 71.0125 28.3514 68.93C27.1134 66.7642 25.1738 65.6397 23.977 66.3477Z" fill="url(#paint1_radial)"/>
<path d="M34.9126 72.5952C32.8079 73.803 32.1064 76.5103 33.3031 78.6344C34.4999 80.7585 37.1823 81.4666 39.2869 80.2587C40.4837 79.5507 40.4837 77.26 39.2869 75.1775C38.0902 73.0117 36.1093 71.8872 34.9126 72.5952Z" fill="url(#paint2_radial)"/>
<path d="M45.8481 78.8426C43.7435 80.0505 43.0419 82.7577 44.2387 84.8818C45.4354 87.0059 48.1178 87.714 50.2225 86.5061C51.4192 85.7981 51.4192 83.5074 50.2225 81.4249C49.0257 79.2591 47.0449 78.1346 45.8481 78.8426Z" fill="url(#paint3_radial)"/>
<path d="M82.742 50.6458C79.8532 50.6458 77.501 49.2714 77.501 47.6054C77.501 45.9394 79.8532 44.565 82.742 44.565C85.6307 44.565 87.983 45.9394 87.983 47.6054C87.983 49.3131 85.6307 50.6458 82.742 50.6458Z" fill="#FAFAFA"/>
<path d="M82.742 30.0293C79.8532 30.0293 77.501 28.6549 77.501 26.9889V47.6471C77.501 49.3131 79.8532 50.6875 82.742 50.6875C85.6307 50.6875 87.983 49.3131 87.983 47.6471V26.9472C87.983 28.6549 85.6307 30.0293 82.742 30.0293Z" fill="url(#paint4_linear)"/>
<path d="M82.742 30.0293C79.8532 30.0293 77.501 28.6549 77.501 26.9889C77.501 25.3229 79.8532 23.9485 82.742 23.9485C85.6307 23.9485 87.983 25.3229 87.983 26.9889C87.983 28.6549 85.6307 30.0293 82.742 30.0293Z" fill="#4A4F5B"/>
<path d="M82.7418 28.53C81.0086 28.53 79.6055 27.697 79.6055 26.6974C79.6055 25.6978 81.0086 24.8648 82.7418 24.8648C84.4751 24.8648 85.8782 25.6978 85.8782 26.6974C85.8782 27.697 84.4751 28.53 82.7418 28.53Z" fill="#FAFAFA"/>
<path d="M82.7418 16.1184C81.0086 16.1184 79.6055 15.2854 79.6055 14.2858V26.6974C79.6055 27.697 81.0086 28.53 82.7418 28.53C84.4751 28.53 85.8782 27.697 85.8782 26.6974V14.2858C85.8782 15.327 84.4751 16.1184 82.7418 16.1184Z" fill="url(#paint5_linear)"/>
<path d="M82.7418 16.1184C81.0086 16.1184 79.6055 15.2854 79.6055 14.2858C79.6055 13.2862 81.0086 12.4532 82.7418 12.4532C84.4751 12.4532 85.8782 13.2862 85.8782 14.2858C85.8782 15.327 84.4751 16.1184 82.7418 16.1184Z" fill="#4A4F5B"/>
<path d="M82.7421 15.3687C81.5866 15.3687 80.6787 14.8272 80.6787 14.1608C80.6787 13.4944 81.5866 12.953 82.7421 12.953C83.8976 12.953 84.8055 13.4944 84.8055 14.1608C84.8055 14.8272 83.8976 15.3687 82.7421 15.3687Z" fill="#FAFAFA"/>
<path d="M82.7421 7.20537C81.5866 7.20537 80.6787 6.66392 80.6787 5.99753V14.1608C80.6787 14.8272 81.5866 15.3687 82.7421 15.3687C83.8976 15.3687 84.8055 14.8272 84.8055 14.1608V5.99753C84.8055 6.66392 83.8976 7.20537 82.7421 7.20537Z" fill="url(#paint6_linear)"/>
<path d="M82.7431 7.20535C81.5876 7.20535 80.6797 6.6639 80.6797 5.99751C80.6797 5.33112 81.5876 4.78967 82.7431 4.78967C83.8986 4.78967 84.8065 5.33112 84.8065 5.99751C84.8065 6.6639 83.8986 7.20535 82.7431 7.20535Z" fill="#EDEDED"/>
<path d="M82.742 8.03836C79.8532 8.03836 77.501 6.66392 77.501 4.99794C77.501 3.33196 79.8532 1.95752 82.742 1.95752C85.6307 1.95752 87.983 3.33196 87.983 4.99794C87.983 6.66392 85.6307 8.03836 82.742 8.03836Z" fill="#FAFAFA"/>
<path d="M82.742 6.08082C79.8532 6.08082 77.501 4.70639 77.501 3.04041V4.99793C77.501 6.66392 79.8532 8.03835 82.742 8.03835C85.6307 8.03835 87.983 6.66392 87.983 4.99793V3.04041C87.983 4.74804 85.6307 6.08082 82.742 6.08082Z" fill="url(#paint7_linear)"/>
<path d="M82.742 6.08084C79.8532 6.08084 77.501 4.7064 77.501 3.04042C77.501 1.37444 79.8532 0 82.742 0C85.6307 0 87.983 1.37444 87.983 3.04042C87.983 4.7064 85.6307 6.08084 82.742 6.08084Z" fill="#4A4F5B"/>
<path d="M38.9785 34.5V38.1235C53.5047 38.1235 65.3073 44.9957 65.3073 53.4922H71.4975C71.4975 42.9965 56.8887 34.5 38.9785 34.5Z" fill="#BBC9DF"/>
<path d="M38.9785 41.7054V45.3289C46.6543 45.3289 52.927 48.9524 52.927 53.4506H59.1172C59.1172 46.9532 50.0795 41.7054 38.9785 41.7054Z" fill="#BBC9DF"/>
<path d="M38.9785 48.9107V53.4089H46.6956C46.6956 50.9516 43.2291 48.9107 38.9785 48.9107Z" fill="#BBC9DF"/>
<defs>
<linearGradient id="paint0_linear" x1="29.7568" y1="10.5262" x2="75.1477" y2="105.148" gradientUnits="userSpaceOnUse">
<stop stop-color="#DCEBEB"/>
<stop offset="0.2556" stop-color="#ECF4F6"/>
<stop offset="0.5308" stop-color="#DFEDF3"/>
<stop offset="0.814" stop-color="#C9E1EF"/>
<stop offset="1" stop-color="#B7D6EB"/>
</linearGradient>
<radialGradient id="paint1_radial" cx="0" cy="0" r="1" gradientUnits="userSpaceOnUse" gradientTransform="translate(25.015 69.466) rotate(-119.773) scale(5.62465 5.59862)">
<stop stop-color="#FFCD6B"/>
<stop offset="0.1622" stop-color="#FFA96A"/>
<stop offset="0.4026" stop-color="#FF976A"/>
<stop offset="0.6915" stop-color="#FF7C6A"/>
<stop offset="1" stop-color="#FF3838"/>
</radialGradient>
<radialGradient id="paint2_radial" cx="0" cy="0" r="1" gradientUnits="userSpaceOnUse" gradientTransform="translate(35.9506 75.7135) rotate(-119.773) scale(5.62464 5.59862)">
<stop stop-color="#FFCD6B"/>
<stop offset="0.1622" stop-color="#FFA96A"/>
<stop offset="0.4026" stop-color="#FF976A"/>
<stop offset="0.6915" stop-color="#FF7C6A"/>
<stop offset="1" stop-color="#FF3838"/>
</radialGradient>
<radialGradient id="paint3_radial" cx="0" cy="0" r="1" gradientUnits="userSpaceOnUse" gradientTransform="translate(46.8861 81.9609) rotate(-119.773) scale(5.62464 5.59862)">
<stop stop-color="#FFCD6B"/>
<stop offset="0.1622" stop-color="#FFA96A"/>
<stop offset="0.4026" stop-color="#FF976A"/>
<stop offset="0.6915" stop-color="#FF7C6A"/>
<stop offset="1" stop-color="#FF3838"/>
</radialGradient>
<linearGradient id="paint4_linear" x1="77.5144" y1="38.8132" x2="87.9909" y2="38.8132" gradientUnits="userSpaceOnUse">
<stop stop-color="#4D4F59"/>
<stop offset="0.0957136" stop-color="#3C3F4B"/>
<stop offset="0.3006" stop-color="#333848"/>
<stop offset="0.3969" stop-color="#2A3044"/>
<stop offset="0.6347" stop-color="#171E34"/>
<stop offset="0.8436" stop-color="#1A223C"/>
<stop offset="1" stop-color="#111934"/>
</linearGradient>
<linearGradient id="paint5_linear" x1="79.6135" y1="21.4054" x2="85.8829" y2="21.4054" gradientUnits="userSpaceOnUse">
<stop stop-color="#4D4F59"/>
<stop offset="0.0957136" stop-color="#3C3F4B"/>
<stop offset="0.3006" stop-color="#333848"/>
<stop offset="0.3969" stop-color="#2A3044"/>
<stop offset="0.6347" stop-color="#171E34"/>
<stop offset="0.8436" stop-color="#1A223C"/>
<stop offset="1" stop-color="#111934"/>
</linearGradient>
<linearGradient id="paint6_linear" x1="80.684" y1="10.6815" x2="84.8086" y2="10.6815" gradientUnits="userSpaceOnUse">
<stop stop-color="#4D4F59"/>
<stop offset="0.0957136" stop-color="#3C3F4B"/>
<stop offset="0.3006" stop-color="#333848"/>
<stop offset="0.3969" stop-color="#2A3044"/>
<stop offset="0.6347" stop-color="#171E34"/>
<stop offset="0.8436" stop-color="#1A223C"/>
<stop offset="1" stop-color="#111934"/>
</linearGradient>
<linearGradient id="paint7_linear" x1="77.5144" y1="5.53851" x2="87.9909" y2="5.53851" gradientUnits="userSpaceOnUse">
<stop stop-color="#4D4F59"/>
<stop offset="0.0957136" stop-color="#3C3F4B"/>
<stop offset="0.3006" stop-color="#333848"/>
<stop offset="0.3969" stop-color="#2A3044"/>
<stop offset="0.6347" stop-color="#171E34"/>
<stop offset="0.8436" stop-color="#1A223C"/>
<stop offset="1" stop-color="#111934"/>
</linearGradient>
</defs>
</svg>
