<?xml version="1.0" encoding="utf-8"?><svg xmlns="http://www.w3.org/2000/svg" xmlns:xlink="http://www.w3.org/1999/xlink"><symbol fill="none" viewBox="0 0 17 12" id="svg--arrow" xmlns="http://www.w3.org/2000/svg"><path d="M11.263.293A1 1 0 1 0 9.85 1.707l3.243 3.243H1a1 1 0 1 0 0 2h12.092l-3.243 3.242a1 1 0 1 0 1.414 1.415l4.95-4.95a1 1 0 0 0 0-1.414l-4.95-4.95z" fill="#fff"/></symbol><symbol viewBox="0 0 17 14" id="svg--burger" xmlns="http://www.w3.org/2000/svg"><defs><style>.bcls-1{fill:#fff}</style></defs><g id="bСлой_2" data-name="Слой 2"><g id="bСлой_1-2" data-name="Слой 1"><path class="bcls-1" d="M1 0h15a1 1 0 0 1 1 1 1 1 0 0 1-1 1H1a1 1 0 0 1-1-1 1 1 0 0 1 1-1zM1 6h15a1 1 0 0 1 1 1 1 1 0 0 1-1 1H1a1 1 0 0 1-1-1 1 1 0 0 1 1-1zM1 12h15a1 1 0 0 1 1 1 1 1 0 0 1-1 1H1a1 1 0 0 1-1-1 1 1 0 0 1 1-1z"/></g></g></symbol><symbol fill="none" viewBox="0 0 16 17" id="svg--dropdown-collapse" xmlns="http://www.w3.org/2000/svg"><path d="M15.142 9.071L8.072 2 1 9.071" stroke="#fff" stroke-width="2"/></symbol><symbol viewBox="0 0 8.49 5.66" id="svg--dropdown_bottom" xmlns="http://www.w3.org/2000/svg"><defs><style>.dcls-1{fill:#fff}</style></defs><g id="dСлой_2" data-name="Слой 2"><path class="dcls-1" d="M4.24 5.66L0 1.41 1.41 0l2.83 2.83L7.07 0l1.41 1.41-4.24 4.25z" id="dСлой_1-2" data-name="Слой 1"/></g></symbol><symbol viewBox="0 0 4.95 7.07" id="svg--dropdown_right" xmlns="http://www.w3.org/2000/svg"><defs><style>.ecls-1{fill:#212b4a}</style></defs><g id="eСлой_2" data-name="Слой 2"><path class="ecls-1" d="M1.41 7.07L0 5.66l2.12-2.12L0 1.41 1.41 0l3.54 3.54-3.54 3.53z" id="eСлой_1-2" data-name="Слой 1"/></g></symbol><symbol fill="none" viewBox="0 0 630 532" id="svg--ellipse-home" xmlns="http://www.w3.org/2000/svg"><path opacity=".2" d="M543.221 531C596.396 474.714 629 398.766 629 315.198 629 141.671 488.417 1 315 1S1 141.671 1 315.198C1 398.766 33.604 474.714 86.779 531" stroke="url(#fpaint0_linear)"/><defs><linearGradient id="fpaint0_linear" x1="261.685" y1="1" x2="738.305" y2="131.358" gradientUnits="userSpaceOnUse"><stop stop-color="#6363E7"/><stop offset="1" stop-color="#2390CA"/></linearGradient></defs></symbol><symbol fill="none" viewBox="0 0 11 22" id="svg--facebook" xmlns="http://www.w3.org/2000/svg"><path d="M10.42 10.56H7.334V22H2.75V10.56H0V7.04h2.75V4.92C2.752 1.831 4.087 0 7.876 0H11v3.52H8.904c-1.475 0-1.57.528-1.57 1.516V7.04H11l-.58 3.52z" fill="#fff"/></symbol><symbol fill="none" viewBox="0 0 22 22" id="svg--instagram" xmlns="http://www.w3.org/2000/svg"><path d="M15.929 0H6.07A6.078 6.078 0 0 0 0 6.071v9.858A6.078 6.078 0 0 0 6.071 22h9.858A6.078 6.078 0 0 0 22 15.929V6.07A6.078 6.078 0 0 0 15.929 0zm4.12 15.929a4.124 4.124 0 0 1-4.12 4.12H6.07a4.124 4.124 0 0 1-4.119-4.12V6.07a4.124 4.124 0 0 1 4.12-4.119h9.857a4.124 4.124 0 0 1 4.12 4.12v9.857z" fill="#fff"/><path d="M11 5.331a5.675 5.675 0 0 0-5.669 5.67 5.675 5.675 0 0 0 5.67 5.668A5.675 5.675 0 0 0 16.668 11 5.675 5.675 0 0 0 11 5.331zm0 9.386A3.721 3.721 0 0 1 7.283 11 3.721 3.721 0 0 1 11 7.283 3.721 3.721 0 0 1 14.717 11 3.72 3.72 0 0 1 11 14.717zM16.907 3.676a1.437 1.437 0 0 0-1.432 1.432c0 .376.154.745.42 1.012.266.266.636.42 1.012.42.377 0 .745-.154 1.012-.42.267-.267.42-.636.42-1.012 0-.378-.153-.747-.42-1.013a1.438 1.438 0 0 0-1.012-.419z" fill="#fff"/></symbol><symbol fill="none" viewBox="0 0 132 38" id="svg--logo" xmlns="http://www.w3.org/2000/svg"><path d="M3 0a3 3 0 0 0-3 3v32a3 3 0 0 0 3 3h32a3 3 0 0 0 3-3V3a3 3 0 0 0-3-3H3z" fill="#fff"/><path d="M25.064 5.66h-2.426v17.787h2.426V5.66z" fill="#1D69BC"/><path d="M30.467 29.012H13.259l-5.43 4.946V8.894h12.363v2.011H9.833v18.358l2.674-2.347h15.955V8.894h2.005v20.118z" fill="#331160"/><path d="M20.213 12.936h-2.426v10.51h2.426v-10.51z" fill="#EF2942"/><path d="M15.362 16.979h-2.426v6.468h2.426v-6.468z" fill="#FF9D33"/><path d="M64.75 8v3.62h-5.833V29h-4.084V11.62H49V8h15.75zM76.67 8l8.29 21h-4.237l-2.026-4.888h-8.658L68.012 29H63.96l8.473-21h4.237zm-2.21 4.707l-2.763 7.422h5.526l-2.763-7.422zM97.224 8c4.687 0 6.75 2.716 6.75 6.336 0 3.078-1.5 5.431-4.875 6.155L104.91 29h-4.687l-5.625-8.328h-1.5V29H89.16V8h8.063zm0 9.052c2.062 0 3-1.086 3-2.535 0-1.448-1.313-2.534-2.813-2.534h-3.937v5.25h3.75v-.181zM109.113 8h4.025v21h-4.025V8zM131.25 8v3.62h-8.228v5.25h7.862v3.621h-7.862V29H119V8h12.25z" fill="#fff"/></symbol><symbol fill="none" viewBox="0 0 178 63" id="svg--logo-mts" xmlns="http://www.w3.org/2000/svg"><path d="M177.249 38.52s-3.813.54-8.354.54c-5.448 0-6.537-1.8-6.537-5.94V27.9c0-4.32.908-6.12 6.537-6.12 3.996 0 7.81.54 7.81.54l.726-7.92s-4.903-.72-9.262-.72c-11.441 0-15.437 3.78-15.437 12.78v7.92c0 9.9 5.085 12.78 15.437 12.78 4.177 0 9.807-.72 9.807-.72l-.727-7.92zM120.406 22.5h9.444v24.12h9.807V22.5h9.443l.545-8.1h-29.784l.545 8.1zM100.429 43.38l5.267-12.24h.545l1.089 15.48h9.444l-2.179-32.22h-9.081l-7.809 18.36h-.544L88.806 14.4h-8.9L77.73 46.62h9.261l.909-15.48h.544l5.812 12.24h6.174zM63.563 6.3v50.4c0 3.42-2.906 6.3-6.357 6.3H6.356C2.906 63 0 60.12 0 56.7V6.3C0 2.88 2.906 0 6.356 0h50.85c3.45 0 6.356 2.88 6.356 6.3zM31.78 54.72c11.805 0 17.253-9.36 17.253-18.72 0-13.14-9.08-27.9-17.253-27.9-7.99 0-17.252 14.94-17.252 28.08 0 9.18 5.266 18.54 17.252 18.54z" fill="#F80068"/><path d="M49.035 36c0 9.36-5.449 18.72-17.253 18.72-11.986 0-17.253-9.36-17.253-18.54 0-13.14 9.262-28.08 17.253-28.08 8.172 0 17.253 14.76 17.253 27.9z" fill="#fff"/></symbol><symbol fill="none" viewBox="0 0 77 96" id="svg--logo-tariff" xmlns="http://www.w3.org/2000/svg"><path d="M58.166.5h-8.185v60.028h8.185V.5z" fill="#F0F6FB"/><path d="M76.4 79.31H18.325L0 96V11.414h41.724v6.79H6.766v61.954l9.021-7.921H69.634V11.414H76.4v67.895z" fill="#F0F6FB"/><path d="M41.795 25.057h-8.186v35.472h8.186V25.056zM25.422 38.7h-8.186v21.828h8.186V38.7z" fill="#F0F6FB"/></symbol><symbol fill="none" viewBox="0 0 160 129" id="svg--magnifier" xmlns="http://www.w3.org/2000/svg"><path d="M97.753 20.208C79.42 8.4 49.683 8.4 31.361 20.208c-9.166 5.909-13.756 13.657-13.756 21.406v25.882c0-7.748 4.59-15.496 13.756-21.406 18.322-11.806 48.06-11.806 66.392 0 9.11 5.872 13.574 13.531 13.574 21.216V41.423c0-7.684-4.464-15.344-13.574-21.215z" fill="url(#lpaint0_linear)"/><path d="M97.753 33.155c-18.333-11.806-48.07-11.806-66.392 0-9.166 5.91-13.756 13.646-13.756 21.394 0 7.748 4.59 15.496 13.756 21.406 12.665 8.166 30.748 10.55 46.787 7.419 7.156-1.396 13.949-3.78 19.605-7.42 5.657-3.639 9.348-8.026 11.518-12.63 1.374-2.916 2.056-5.934 2.056-8.953 0-7.685-4.464-15.345-13.574-21.216z" fill="url(#lpaint1_radial)"/><path d="M18.912 71.034C6.304 62.905 0 52.266 0 41.614v25.882c0 10.653 6.304 21.292 18.912 29.42 19.72 12.708 48.934 15.332 72.822 8.155V79.188c-23.888 7.177-53.103 4.552-72.822-8.154z" fill="url(#lpaint2_linear)"/><path d="M122.855 85.009v-25.87c4.044-5.618 6.089-11.68 6.089-17.728v25.882c0 6.049-2.045 12.11-6.089 17.716z" fill="#1E6EBD"/><path d="M91.734 105.07V79.188l37.133 23.942V129l-37.133-23.93z" fill="#388EE3"/><path d="M128.865 129v-25.87L160 83.068v25.883L128.865 129z" fill="#2373C1"/><path d="M122.857 59.127c4.043-5.605 6.088-11.667 6.088-17.716 0-10.576-6.213-21.14-18.753-29.218-25.194-16.257-66.074-16.257-91.28 0C6.304 20.322 0 30.962 0 41.614c0 10.653 6.304 21.292 18.912 29.42 19.72 12.707 48.934 15.332 72.821 8.154l37.132 23.942 31.134-20.061-37.142-23.942zm-13.585-8.75c-2.17 4.615-5.861 8.99-11.518 12.643-5.657 3.64-12.449 6.023-19.605 7.418-16.038 3.12-34.122.749-46.787-7.418-9.166-5.922-13.755-13.658-13.755-21.407 0-7.748 4.59-15.496 13.755-21.405 18.322-11.807 48.06-11.807 66.392 0 9.11 5.871 13.574 13.53 13.574 21.215 0 3.019-.682 6.037-2.056 8.953z" fill="#2383E2"/><defs><linearGradient id="lpaint0_linear" x1="17.606" y1="39.424" x2="111.327" y2="39.424" gradientUnits="userSpaceOnUse"><stop stop-color="#1E6DBC"/><stop offset="1" stop-color="#277ED4"/></linearGradient><radialGradient id="lpaint1_radial" cx="0" cy="0" r="1" gradientUnits="userSpaceOnUse" gradientTransform="matrix(74.2409 0 0 82.884 73.644 89.184)"><stop stop-color="#E0FBFD"/><stop offset=".214" stop-color="#DDFBFD"/><stop offset=".355" stop-color="#D4F9FD"/><stop offset=".475" stop-color="#C6F6FD"/><stop offset=".583" stop-color="#B0F3FD"/><stop offset=".683" stop-color="#95EEFE"/><stop offset=".778" stop-color="#73E8FE"/><stop offset=".868" stop-color="#4BE1FE"/><stop offset=".951" stop-color="#1ED9FF"/><stop offset="1" stop-color="#00D4FF"/></radialGradient><linearGradient id="lpaint2_linear" x1="0" y1="63" x2="92" y2="98" gradientUnits="userSpaceOnUse"><stop stop-color="#287FD5"/><stop offset="1" stop-color="#1E6DBB"/></linearGradient></defs></symbol><symbol fill="none" viewBox="0 0 214 191" id="svg--mobile" xmlns="http://www.w3.org/2000/svg"><path d="M8.6 139.577l51.985 30.364c11.38 6.598 29.207 5.833 40.619-.734l9.035-5.191 95.166-54.757c5.69-3.284 8.567-7.599 8.567-11.915 0-4.347-2.845-8.662-8.535-11.946L154.164 55.69c-11.38-6.599-29.919-6.63-41.362-.063l-95.198 54.758-9.004 5.191C2.88 118.859.034 123.175.034 127.49c-.031 4.316 2.876 8.803 8.566 12.087z" fill="#E9F8FF"/><path d="M50.053 145.19c-3.157-1.845-8.19-1.97-11.598-.375-.22.125-.438.219-.657.344-.25.156-.469.282-.657.438-1.25.907-1.907 2.001-1.907 3.096 0 1.282.844 2.564 2.533 3.534 3.157 1.845 8.097 1.938 11.505.406l.75-.375c.219-.125.407-.25.594-.375 1.282-.907 1.938-2.033 1.938-3.159.032-1.282-.812-2.564-2.5-3.534zM163.072 69.793l17.945 10.414c1.438.844 3.72.844 5.19 0 .719-.407 1.063-.938 1.063-1.501 0-.532-.375-1.095-1.063-1.47l-17.946-10.413c-1.438-.845-3.751-.845-5.189 0-.719.406-1.063.938-1.063 1.5-.032.5.344 1.064 1.063 1.47z" fill="#BBE9FF"/><path d="M195.054 103.286c2.845-1.658 4.283-3.815 4.283-5.973s-1.406-4.347-4.251-5.973L143.813 61.63c-5.69-3.314-14.975-3.314-20.665-.03l-76.565 44.03 144.001.219 4.47-2.564z" fill="#D6F2FF"/><path d="M46.583 105.631L27.95 116.358c-2.845 1.657-4.283 3.815-4.283 5.973 0 2.157 1.407 4.315 4.252 5.972l51.272 29.709c5.69 3.315 14.975 3.315 20.697.031l90.66-52.258-143.965-.154z" fill="#BBE9FF"/><path d="M205.402 109.259l-95.197 54.788-9.036 5.192c-11.41 6.567-29.95 6.535-41.361-.063L8.534 139.468C2.876 136.153 0 131.806.031 127.49L0 144.346c0 4.316 2.845 8.662 8.535 11.946l51.272 29.74c11.38 6.598 29.951 6.629 41.362.062l9.036-5.191 95.197-54.757c5.69-3.284 8.567-7.599 8.567-11.946L214 97.344c-.063 4.316-2.908 8.631-8.598 11.915z" fill="#C0E8FF"/><path d="M56.837 119.235l8.566 4.972 8.285-24.33-8.566-4.94-8.285 24.298z" fill="#15B07D"/><path d="M98.606 8.97C115.113-.507 129.65-2.29 138.373 2.745l8.566 4.972c-8.722-5.034-23.26-3.252-39.767 6.224C80.442 29.327 58.745 59.13 58.713 80.55c0 8.162 3.158 13.916 8.566 17.043l-8.597-4.972c-5.377-3.127-8.566-8.881-8.535-17.043 0-21.422 21.728-51.224 48.459-66.61z" fill="#15B07D"/><path d="M73.689 99.877c-2.408-.469-4.534-1.22-6.44-2.314-5.41-3.127-8.567-8.881-8.567-17.043.031-21.39 21.728-51.224 48.459-66.61 16.507-9.475 31.044-11.258 39.767-6.223 5.409 3.159 8.598 8.913 8.566 17.106-.031 21.39-21.728 51.192-48.458 66.578-7.004 4.034-13.631 6.63-19.634 7.943l-22.01 24.862 8.317-24.299z" fill="#12C78C"/><path d="M106.953 42.524c2.439-1.376 4.627-1.532 6.222-.594l6.159 3.565c-1.595-.907-3.783-.782-6.222.626-4.846 2.783-8.785 9.6-8.816 15.198 0 2.814.969 4.784 2.563 5.691l-6.159-3.565c-1.594-.938-2.563-2.877-2.563-5.691 0-5.63 3.939-12.447 8.816-15.23z" fill="#fff"/><path d="M121.866 51.187c0 5.597-3.94 12.415-8.817 15.198-2.407 1.376-4.627 1.532-6.19.594-1.594-.938-2.564-2.877-2.564-5.692 0-5.597 3.971-12.415 8.817-15.198 2.438-1.407 4.627-1.532 6.221-.625 1.563.938 2.564 2.908 2.533 5.723z" fill="#F0F0F0"/><path d="M129.901 32.142c1.782-1.032 3.407-1.126 4.564-.438l4.533 2.627c-1.156-.688-2.782-.594-4.564.438-3.564 2.032-6.472 7.036-6.472 11.164 0 2.064.719 3.502 1.876 4.19l-4.533-2.627c-1.157-.688-1.876-2.126-1.876-4.19 0-4.097 2.876-9.1 6.472-11.164z" fill="#fff"/><path d="M140.843 38.49c0 4.128-2.907 9.1-6.472 11.164-1.782 1.032-3.407 1.126-4.564.438-1.188-.688-1.876-2.127-1.876-4.19 0-4.097 2.908-9.1 6.472-11.165 1.782-1.032 3.407-1.125 4.564-.437 1.188.688 1.907 2.126 1.876 4.19z" fill="#F0F0F0"/><path d="M84.13 58.191c1.783-1.032 3.408-1.125 4.565-.469l4.533 2.627c-1.188-.656-2.782-.563-4.564.47-3.564 2.032-6.472 7.035-6.472 11.163 0 2.064.72 3.503 1.876 4.16l-4.533-2.596c-1.157-.688-1.876-2.127-1.876-4.19 0-4.097 2.907-9.1 6.471-11.165z" fill="#fff"/><path d="M95.104 64.571c0 4.097-2.907 9.1-6.472 11.164-1.782 1.032-3.407 1.126-4.564.438-1.188-.657-1.876-2.127-1.876-4.16 0-4.096 2.908-9.1 6.472-11.163 1.782-1.032 3.407-1.126 4.564-.47 1.157.688 1.876 2.127 1.876 4.191z" fill="#F0F0F0"/></symbol><symbol fill="none" viewBox="0 0 148 76" id="svg--pattern-1" xmlns="http://www.w3.org/2000/svg"><rect width="53" height="17" rx="8.5" transform="matrix(-1 0 0 1 109 0)" fill="#606ADB"/><rect width="24" height="17" rx="8.5" transform="matrix(-1 0 0 1 45 0)" fill="#606ADB"/><rect y="59" width="53" height="17" rx="8.5" fill="#606ADB"/><rect x="64" y="59" width="24" height="17" rx="8.5" fill="#606ADB"/><rect width="43" height="17" rx="8.5" transform="matrix(-1 0 0 1 79 29)" fill="#606ADB"/><rect width="58" height="17" rx="8.5" transform="matrix(-1 0 0 1 148 29)" fill="#606ADB"/></symbol><symbol fill="none" viewBox="0 0 148 76" id="svg--pattern-2" xmlns="http://www.w3.org/2000/svg"><rect x="39" width="53" height="17" rx="8.5" fill="#517ADE"/><rect x="103" width="24" height="17" rx="8.5" fill="#517ADE"/><rect width="53" height="17" rx="8.5" transform="matrix(-1 0 0 1 148 59)" fill="#517ADE"/><rect width="24" height="17" rx="8.5" transform="matrix(-1 0 0 1 84 59)" fill="#517ADE"/><rect x="69" y="29" width="43" height="17" rx="8.5" fill="#517ADE"/><rect y="29" width="58" height="17" rx="8.5" fill="#517ADE"/></symbol><symbol fill="none" viewBox="0 0 130 66" id="svg--pattern-slide" xmlns="http://www.w3.org/2000/svg"><rect x="34.257" width="46.554" height="14.763" rx="7.382" fill="#4EA2FF"/><rect x="90.473" width="21.081" height="14.763" rx="7.382" fill="#4EA2FF"/><rect width="46.554" height="14.763" rx="7.382" transform="matrix(-1 0 0 1 130 51.237)" fill="#4EA2FF"/><rect width="21.081" height="14.763" rx="7.382" transform="matrix(-1 0 0 1 73.784 51.237)" fill="#4EA2FF"/><rect x="60.608" y="25.184" width="37.77" height="14.763" rx="7.382" fill="#4EA2FF"/><rect y="25.184" width="50.946" height="14.763" rx="7.382" fill="#4EA2FF"/></symbol><symbol viewBox="0 0 29.18 31" id="svg--ruso" xmlns="http://www.w3.org/2000/svg"><defs><style>.qcls-1{fill:#fff}</style></defs><g id="qСлой_2" data-name="Слой 2"><g id="qСлой_1-2" data-name="Слой 1"><path class="qcls-1" d="M22.18 13.36c6.94-2.33 10 10.33 3.18 11.27-2.76.38-5.74.41-7.18-2.94-1.6-3.72.34-7.09 4-8.32zm5 6.28c.09-2.71-.63-5-3.72-4.54-2.51.4-4.52 2.49-3.64 5.09 1.09 3.17 7.18 3.81 7.36-.55zM12.8 6.63A12.07 12.07 0 0 1 12 3.5c0-1.56 1.58-.63 1.9.17.88 2.17 1 5.32 3.38 6.57 1.39.74 3.62-.21 4.31-1.44 1.11-2-.94-5.23-1.68-7.14A1.26 1.26 0 0 1 21.43 0c1.15.17 1.44 2.16 1.74 3.06.73 2.23 1.39 5.51-.38 7.43a6.21 6.21 0 0 1-5.52 1.83c-2.63-.59-3.73-3.44-4.46-5.71-.3-1.01.19.56-.01.02zM8.6 20.34c-1 .45-2.22.92-2.67-.14-.57-1.33 2.17-1.53 1.62-2.36-.69-1-3.36.1-3.37 2.5 0 3.62 4.13 2.17 5.73 1.43a3.56 3.56 0 0 1 4.19.74c1.17 1.29.66 3.2-.94 4.42-1.35 1-5.4 1.57-6 2.09-1.3 1.08.39 2.38 1.82 1.87 4.53-1.65 7.2-2.89 7.53-5.89.24-2.12-.53-4.79-3.19-5.32a6.83 6.83 0 0 0-4.72.66zM15.27 17.95c-2.24.73-2.84-2.67-.83-3.39s3.33 2.44.83 3.39z"/><path class="qcls-1" d="M.46 8.8a6.36 6.36 0 0 0 .13 5c.34.92.74 3.88 1.66 4.37 1.5.8 1.1-2 .77-2.77-.61-1.56-1.47-3.2-1.22-4.93a4 4 0 0 1 5.32-3.04c2.27.68 3.13 3.93 1.44 5.18a5.8 5.8 0 0 1-4.4.76c-.4-.06-.83.32-.55.75s1.57.74 2.14.79a4.52 4.52 0 0 0 2-.16c1.14-.35 1.31.5 2.37 1 .41.18 1.59.12 1.72-.41.19-.79-1.29-1.41-1.81-1.65a3.67 3.67 0 0 0 1-2C12.64 5.94 3 2.84.46 8.8z"/></g></g></symbol><symbol viewBox="0 0 16 16" id="svg--www" xmlns="http://www.w3.org/2000/svg"><g data-name="Слой 2"><path d="M8 0a8 8 0 1 0 5.65 2.35A8 8 0 0 0 8 0zm5.91 7H12a14.43 14.43 0 0 0-.71-4 6 6 0 0 1 2.65 4zM8 14c-1 0-1.81-2.16-2-5h4c-.19 2.84-1 5-2 5zM6 7c.16-2.84 1-5 2-5s1.81 2.16 2 5zM4.74 3A14.43 14.43 0 0 0 4 7H2.09a6 6 0 0 1 2.65-4zM2.09 9H4a14.43 14.43 0 0 0 .71 4 6 6 0 0 1-2.62-4zm9.17 4A14.43 14.43 0 0 0 12 9h1.94a6 6 0 0 1-2.65 4z" data-name="Слой 1"/></g></symbol></svg>