<?xml version="1.0" encoding="utf-8"?><svg xmlns="http://www.w3.org/2000/svg" xmlns:xlink="http://www.w3.org/1999/xlink"><symbol fill="none" viewBox="0 0 17 12" id="svg--arrow" xmlns="http://www.w3.org/2000/svg"><path d="M11.263.293A1 1 0 1 0 9.85 1.707l3.243 3.243H1a1 1 0 1 0 0 2h12.092l-3.243 3.242a1 1 0 1 0 1.414 1.415l4.95-4.95a1 1 0 0 0 0-1.414l-4.95-4.95z" fill="#fff"/></symbol><symbol viewBox="0 0 17 14" id="svg--burger" xmlns="http://www.w3.org/2000/svg"><defs><style>.bcls-1{fill:#fff}</style></defs><g id="bСлой_2" data-name="Слой 2"><g id="bСлой_1-2" data-name="Слой 1"><path class="bcls-1" d="M1 0h15a1 1 0 0 1 1 1 1 1 0 0 1-1 1H1a1 1 0 0 1-1-1 1 1 0 0 1 1-1zM1 6h15a1 1 0 0 1 1 1 1 1 0 0 1-1 1H1a1 1 0 0 1-1-1 1 1 0 0 1 1-1zM1 12h15a1 1 0 0 1 1 1 1 1 0 0 1-1 1H1a1 1 0 0 1-1-1 1 1 0 0 1 1-1z"/></g></g></symbol><symbol fill="none" viewBox="0 0 16 17" id="svg--dropdown-collapse" xmlns="http://www.w3.org/2000/svg"><path d="M15.142 9.071L8.072 2 1 9.071" stroke="#fff" stroke-width="2"/></symbol><symbol viewBox="0 0 8.49 5.66" id="svg--dropdown_bottom" xmlns="http://www.w3.org/2000/svg"><defs><style>.dcls-1{fill:#fff}</style></defs><g id="dСлой_2" data-name="Слой 2"><path class="dcls-1" d="M4.24 5.66L0 1.41 1.41 0l2.83 2.83L7.07 0l1.41 1.41-4.24 4.25z" id="dСлой_1-2" data-name="Слой 1"/></g></symbol><symbol viewBox="0 0 4.95 7.07" id="svg--dropdown_right" xmlns="http://www.w3.org/2000/svg"><defs><style>.ecls-1{fill:#212b4a}</style></defs><g id="eСлой_2" data-name="Слой 2"><path class="ecls-1" d="M1.41 7.07L0 5.66l2.12-2.12L0 1.41 1.41 0l3.54 3.54-3.54 3.53z" id="eСлой_1-2" data-name="Слой 1"/></g></symbol><symbol viewBox="0 0 413.81 107" id="svg--ellipse" xmlns="http://www.w3.org/2000/svg"><defs><style>.fcls-1{fill:url(#fБезымянный_градиент)}</style><linearGradient id="fБезымянный_градиент" x1="206.9" y1="107.94" x2="207.01" y2="84.52" gradientUnits="userSpaceOnUse"><stop offset="0" stop-color="#4190e5"/><stop offset="1" stop-color="#3570ce"/></linearGradient></defs><g id="fСлой_2" data-name="Слой 2"><path class="fcls-1" d="M413.81 107H0a253.55 253.55 0 0 1 413.81 0z" id="fСлой_1-2" data-name="Слой 1"/></g></symbol><symbol fill="none" viewBox="0 0 11 22" id="svg--facebook" xmlns="http://www.w3.org/2000/svg"><path d="M10.42 10.56H7.334V22H2.75V10.56H0V7.04h2.75V4.92C2.752 1.831 4.087 0 7.876 0H11v3.52H8.904c-1.475 0-1.57.528-1.57 1.516V7.04H11l-.58 3.52z" fill="#fff"/></symbol><symbol fill="none" viewBox="0 0 22 22" id="svg--instagram" xmlns="http://www.w3.org/2000/svg"><path d="M15.929 0H6.07A6.078 6.078 0 0 0 0 6.071v9.858A6.078 6.078 0 0 0 6.071 22h9.858A6.078 6.078 0 0 0 22 15.929V6.07A6.078 6.078 0 0 0 15.929 0zm4.12 15.929a4.124 4.124 0 0 1-4.12 4.12H6.07a4.124 4.124 0 0 1-4.119-4.12V6.07a4.124 4.124 0 0 1 4.12-4.119h9.857a4.124 4.124 0 0 1 4.12 4.12v9.857z" fill="#fff"/><path d="M11 5.331a5.675 5.675 0 0 0-5.669 5.67 5.675 5.675 0 0 0 5.67 5.668A5.675 5.675 0 0 0 16.668 11 5.675 5.675 0 0 0 11 5.331zm0 9.386A3.721 3.721 0 0 1 7.283 11 3.721 3.721 0 0 1 11 7.283 3.721 3.721 0 0 1 14.717 11 3.72 3.72 0 0 1 11 14.717zM16.907 3.676a1.437 1.437 0 0 0-1.432 1.432c0 .376.154.745.42 1.012.266.266.636.42 1.012.42.377 0 .745-.154 1.012-.42.267-.267.42-.636.42-1.012 0-.378-.153-.747-.42-1.013a1.438 1.438 0 0 0-1.012-.419z" fill="#fff"/></symbol><symbol viewBox="0 0 104.08 98" id="svg--item-2" xmlns="http://www.w3.org/2000/svg"><defs><style>.icls-1{fill:url(#iБезымянный_градиент)}.icls-2{fill:#f3fafa}.icls-3{fill:url(#iБезымянный_градиент_4)}.icls-4{fill:url(#iБезымянный_градиент_4-2)}.icls-5{fill:url(#iБезымянный_градиент_4-3)}.icls-6{fill:#fafafa}.icls-7{fill:url(#iБезымянный_градиент_8)}.icls-8{fill:#4a4f5b}.icls-9{fill:url(#iБезымянный_градиент_8-2)}.icls-10{fill:url(#iБезымянный_градиент_8-3)}.icls-11{fill:#ededed}.icls-12{fill:url(#iБезымянный_градиент_8-4)}.icls-13{fill:#bbc9df}</style><linearGradient id="iБезымянный_градиент" x1="33.42" y1="91.23" x2="78.81" y2="-3.39" gradientTransform="matrix(1 0 0 -1 0 100)" gradientUnits="userSpaceOnUse"><stop offset="0" stop-color="#dcebeb"/><stop offset=".26" stop-color="#ecf4f6"/><stop offset=".53" stop-color="#dfedf3"/><stop offset=".81" stop-color="#c9e1ef"/><stop offset="1" stop-color="#b7d6eb"/></linearGradient><radialGradient id="iБезымянный_градиент_4" cx="-328.73" cy="437.46" r="1" gradientTransform="matrix(-2.79 -4.88 -4.86 2.78 1232.77 -2751.64)" gradientUnits="userSpaceOnUse"><stop offset="0" stop-color="#ffcd6b"/><stop offset=".16" stop-color="#ffa96a"/><stop offset=".4" stop-color="#ff976a"/><stop offset=".69" stop-color="#ff7c6a"/><stop offset="1" stop-color="#ff3838"/></radialGradient><radialGradient id="iБезымянный_градиент_4-2" cx="-328.73" cy="437.46" r="1" gradientTransform="matrix(-2.79 -4.88 -4.86 2.78 1243.7 -2745.39)" xlink:href="#iБезымянный_градиент_4"/><radialGradient id="iБезымянный_градиент_4-3" cx="-328.73" cy="437.46" r="1" gradientTransform="matrix(-2.79 -4.88 -4.86 2.78 1254.64 -2739.15)" xlink:href="#iБезымянный_градиент_4"/><linearGradient id="iБезымянный_градиент_8" x1="77.51" y1="61.18" x2="88" y2="61.18" gradientTransform="matrix(1 0 0 -1 0 100)" gradientUnits="userSpaceOnUse"><stop offset="0" stop-color="#4d4f59"/><stop offset=".1" stop-color="#3c3f4b"/><stop offset=".3" stop-color="#333848"/><stop offset=".4" stop-color="#2a3044"/><stop offset=".63" stop-color="#171e34"/><stop offset=".84" stop-color="#1a223c"/><stop offset="1" stop-color="#111934"/></linearGradient><linearGradient id="iБезымянный_градиент_8-2" x1="79.61" y1="78.59" x2="85.89" y2="78.59" xlink:href="#iБезымянный_градиент_8"/><linearGradient id="iБезымянный_градиент_8-3" x1="80.68" y1="89.32" x2="84.81" y2="89.32" xlink:href="#iБезымянный_градиент_8"/><linearGradient id="iБезымянный_градиент_8-4" x1="77.51" y1="94.46" x2="88" y2="94.46" xlink:href="#iБезымянный_градиент_8"/></defs><g id="iСлой_2" data-name="Слой 2"><g id="iСлой_1-2" data-name="Слой 1"><path class="icls-1" d="M95.95 43.69L54.06 19.33c-2.27-1.33-4.29-1.42-5.78-.58L2.39 45.48c1.49-.87 3.55-.75 5.78.58L50 70.47c4.5 2.62 8.17 9.08 8.17 14.33v7.33c0 2.62-.91 4.46-2.39 5.33l45.89-26.74c1.49-.87 2.39-2.71 2.39-5.33v-7.33c.06-5.29-3.61-11.75-8.11-14.37z"/><path class="icls-2" d="M50.06 96.88c2.27 1.33 4.29 1.42 5.78.58s2.39-2.71 2.39-5.33V84.8c0-5.25-3.67-11.7-8.17-14.33L8.17 46.06c-2.27-1.33-4.29-1.42-5.78-.58S0 48.19 0 50.81v7.33c0 5.25 3.67 11.7 8.17 14.33z"/><path class="icls-3" d="M24 66.35a4.44 4.44 0 0 0-1.61 6 4.36 4.36 0 0 0 6 1.62c1.2-.71 1.2-3 0-5.08s-3.22-3.25-4.39-2.54z"/><path class="icls-4" d="M34.91 72.6a4.44 4.44 0 0 0-1.61 6 4.36 4.36 0 0 0 6 1.62c1.2-.71 1.2-3 0-5.08s-3.19-3.25-4.39-2.54z"/><path class="icls-5" d="M45.85 78.84a4.44 4.44 0 0 0-1.61 6 4.36 4.36 0 0 0 6 1.62c1.2-.71 1.2-3 0-5.08s-3.24-3.25-4.39-2.54z"/><path class="icls-6" d="M82.74 50.65c-2.89 0-5.24-1.37-5.24-3s2.35-3 5.24-3 5.24 1.37 5.24 3-2.35 3-5.24 3z"/><path class="icls-7" d="M82.74 30c-2.89 0-5.24-1.37-5.24-3v20.65c0 1.67 2.35 3 5.24 3s5.24-1.37 5.24-3v-20.7C88 28.65 85.63 30 82.74 30z"/><path class="icls-8" d="M82.74 30c-2.89 0-5.24-1.37-5.24-3s2.35-3 5.24-3S88 25.32 88 27s-2.37 3-5.26 3z"/><path class="icls-6" d="M82.74 28.53c-1.73 0-3.14-.83-3.14-1.83s1.4-1.83 3.14-1.83 3.14.83 3.14 1.83-1.4 1.83-3.14 1.83z"/><path class="icls-9" d="M82.74 16.12c-1.73 0-3.14-.83-3.14-1.83V26.7c0 1 1.4 1.83 3.14 1.83s3.14-.83 3.14-1.83V14.29c0 1.04-1.4 1.83-3.14 1.83z"/><path class="icls-8" d="M82.74 16.12c-1.73 0-3.14-.83-3.14-1.83s1.4-1.83 3.14-1.83 3.14.83 3.14 1.83-1.4 1.83-3.14 1.83z"/><path class="icls-6" d="M82.74 15.37c-1.16 0-2.06-.54-2.06-1.21S81.59 13 82.74 13s2.06.54 2.06 1.21-.9 1.16-2.06 1.16z"/><path class="icls-10" d="M82.74 7.21c-1.16 0-2.06-.54-2.06-1.21v8.16c0 .67.91 1.21 2.06 1.21s2.06-.54 2.06-1.21V6c.01.66-.9 1.21-2.06 1.21z"/><path class="icls-11" d="M82.74 7.21c-1.16 0-2.06-.54-2.06-1.21s.91-1.21 2.06-1.21S84.8 5.33 84.8 6s-.9 1.21-2.06 1.21z"/><path class="icls-6" d="M82.74 8c-2.89 0-5.24-1.34-5.24-3s2.35-3 5.24-3S88 3.33 88 5s-2.37 3-5.26 3z"/><path class="icls-12" d="M82.74 6.08c-2.89 0-5.24-1.37-5.24-3V5c0 1.67 2.35 3 5.24 3S88 6.66 88 5V3c0 1.75-2.37 3.08-5.26 3.08z"/><path class="icls-8" d="M82.74 6.08c-2.89 0-5.24-1.37-5.24-3s2.35-3 5.24-3S88 1.37 88 3s-2.37 3.08-5.26 3.08z"/><path class="icls-13" d="M39 34.5v3.62c14.53 0 26.33 6.87 26.33 15.37h6.17C71.5 43 56.89 34.5 39 34.5z"/><path class="icls-13" d="M39 41.71v3.62c7.68 0 13.95 3.62 13.95 8.12h6.19C59.12 47 50.08 41.71 39 41.71zM39 48.91v4.5h7.7c0-2.41-3.47-4.5-7.7-4.5z"/></g></g></symbol><symbol viewBox="0 0 77.14 96" id="svg--item-3" xmlns="http://www.w3.org/2000/svg"><defs><style>.jcls-1{fill:#f3fafa}.jcls-2{fill:#fe5566}.jcls-3{fill:#d9edf8}.jcls-4{fill:url(#jБезымянный_градиент)}</style><linearGradient id="jБезымянный_градиент" x1="13.54" y1="100.11" x2="81.68" y2="13.57" gradientTransform="matrix(1 0 0 -1 0 98)" gradientUnits="userSpaceOnUse"><stop offset="0" stop-color="#dcebeb"/><stop offset=".26" stop-color="#ecf4f6"/><stop offset=".53" stop-color="#dfedf3"/><stop offset=".81" stop-color="#c9e1ef"/><stop offset="1" stop-color="#b7d6eb"/></linearGradient></defs><g id="jСлой_2" data-name="Слой 2"><g id="jСлой_1-2" data-name="Слой 1"><path class="jcls-1" d="M67.58 59.34v30.75c0 2.65-1 4.49-2.49 5.36s-3.61.72-6-.58L8.34 65.76C3.76 63.16 0 56.64 0 51.38V11.31C0 8.66 1 6.82 2.54 6s3.61-.72 6 .58L51 31z"/><path class="jcls-2" d="M9.47 33.47c0-.58.39-.77.88-.48l24 13.76a2 2 0 0 1 .88 1.54V55c0 .58-.39.77-.88.48l-24-13.76a2 2 0 0 1-.88-1.5zm18.3 28.14a2 2 0 0 0 .88 1.54l5.61 3.23c.49.29.88 0 .88-.48v-6.75a2 2 0 0 0-.88-1.54l-5.61-3.23c-.49-.29-.88 0-.88.48zm-9.13-5.21a2 2 0 0 0 .88 1.54l5.66 3.23c.49.29.88 0 .88-.48v-6.75a1.81 1.81 0 0 0-.88-1.5l-5.66-3.28c-.49-.29-.88 0-.88.48zm-9.17-5.26a2 2 0 0 0 .88 1.54L16 55.92c.49.29.88 0 .88-.48v-6.72a2 2 0 0 0-.88-1.54l-5.65-3.28c-.49-.29-.88 0-.88.48zm18.34-11.39a2 2 0 0 0 .88 1.54l5.66 3.23c.49.29.88 0 .88-.48v-6.76a2 2 0 0 0-.88-1.54l-5.66-3.24c-.49-.29-.88 0-.88.48zm-9.17-5.21a2 2 0 0 0 .88 1.54l5.66 3.23c.49.29.88 0 .88-.48v-6.76a1.81 1.81 0 0 0-.88-1.5l-5.66-3.23c-.49-.29-.88 0-.88.53zm-9.17-5.27a2 2 0 0 0 .88 1.54L16 34c.49.29.88 0 .88-.48v-6.66a2 2 0 0 0-.88-1.55l-5.66-3.23c-.49-.29-.88 0-.88.48z"/><path class="jcls-3" d="M60.51 25.5l-9.76 5.55 16.59 28.63L77.1 54z"/><path class="jcls-4" d="M50.79 31.05L8.5 6.54C6.07 5.23 4.08 5.09 2.52 6L12 .55c1.51-.87 3.61-.72 6 .58L60.55 25.5zM77.14 54l-9.76 5.69.2 30.42c0 2.65-1 4.49-2.49 5.36L74.56 90c1.51-.87 2.49-2.75 2.49-5.36z"/></g></g></symbol><symbol viewBox="0 0 74.94 98.99" id="svg--item-4" xmlns="http://www.w3.org/2000/svg"><defs><style>.kcls-1{fill:url(#kБезымянный_градиент)}.kcls-2{fill:#f3fafa}.kcls-3{fill:#c7d6ec}.kcls-4{fill:#b6c7e2}.kcls-5{fill:#9d79fc}.kcls-6{fill:#c7b1ff}.kcls-7{fill:#fafafa}.kcls-8{fill:url(#kБезымянный_градиент_9)}.kcls-9{fill:#4a4f5b}.kcls-10{fill:url(#kБезымянный_градиент_9-2)}.kcls-11{fill:#ededed}.kcls-12{fill:url(#kБезымянный_градиент_9-3)}.kcls-13{fill:#454545}.kcls-14{fill:url(#kБезымянный_градиент_9-4)}.kcls-15{fill:#7f4ffe}.kcls-16{fill:#aa89ff}.kcls-17{fill:url(#kБезымянный_градиент_9-5)}.kcls-18{fill:url(#kБезымянный_градиент_9-6)}.kcls-19{fill:url(#kБезымянный_градиент_9-7)}.kcls-20{fill:url(#kБезымянный_градиент_9-8)}</style><linearGradient id="kБезымянный_градиент" x1="19.3" y1="87.67" x2="74.11" y2="7.3" gradientTransform="matrix(1 0 0 -1 0 100)" gradientUnits="userSpaceOnUse"><stop offset="0" stop-color="#dcebeb"/><stop offset=".26" stop-color="#ecf4f6"/><stop offset=".53" stop-color="#dfedf3"/><stop offset=".81" stop-color="#c9e1ef"/><stop offset="1" stop-color="#b7d6eb"/></linearGradient><linearGradient id="kБезымянный_градиент_9" x1="19.39" y1="97.9" x2="17.84" y2="96.43" gradientTransform="matrix(1 0 0 -1 0 100)" gradientUnits="userSpaceOnUse"><stop offset="0" stop-color="#4d4f59"/><stop offset=".1" stop-color="#3c3f4b"/><stop offset=".3" stop-color="#333848"/><stop offset=".4" stop-color="#2a3044"/><stop offset=".63" stop-color="#171e34"/><stop offset=".84" stop-color="#1a223c"/><stop offset="1" stop-color="#111934"/></linearGradient><linearGradient id="kБезымянный_градиент_9-2" x1="21.67" y1="93.84" x2="20.05" y2="92.86" xlink:href="#kБезымянный_градиент_9"/><linearGradient id="kБезымянный_градиент_9-3" x1="25.44" y1="87.96" x2="22.98" y2="86.47" xlink:href="#kБезымянный_градиент_9"/><linearGradient id="kБезымянный_градиент_9-4" x1="32.97" y1="76.67" x2="28.02" y2="73.83" xlink:href="#kБезымянный_градиент_9"/><linearGradient id="kБезымянный_градиент_9-5" x1="42.58" y1="71.08" x2="46.08" y2="64.58" xlink:href="#kБезымянный_градиент_9"/><linearGradient id="kБезымянный_градиент_9-6" x1="52.57" y1="75.54" x2="54.81" y2="71.22" xlink:href="#kБезымянный_градиент_9"/><linearGradient id="kБезымянный_градиент_9-7" x1="59.33" y1="78.55" x2="60.81" y2="75.7" xlink:href="#kБезымянный_градиент_9"/><linearGradient id="kБезымянный_градиент_9-8" x1="62.19" y1="80.49" x2="64.55" y2="77.6" xlink:href="#kБезымянный_градиент_9"/></defs><g id="kСлой_2" data-name="Слой 2"><g id="kСлой_1-2" data-name="Слой 1"><path class="kcls-1" d="M66.15 41.08L57.37 36 54 34l-16.5-9.57-8.63-5c-2.46-1.42-4.66-1.55-6.27-.63l-20 11.62c1.61-.92 3.81-.79 6.27.6l8.63 5L34 45.61l3.37 2 8.78 5.1C51 55.51 55 62.41 55 68.08v24.56c0 2.85-1 4.81-2.61 5.76l20-11.62c1.61-.92 2.58-2.91 2.58-5.76V56.46C75 50.83 71 43.9 66.15 41.08z"/><path class="kcls-2" d="M46.16 52.67l-8.78-5.1-3.37-2L17.51 36 9 31c-2.46-1.42-4.81-1.5-6.42-.55S0 33.34 0 36.15v24.56c0 5.67 4 12.6 8.85 15.41l28.52 16.56 8.78 5.1c2.46 1.42 4.66 1.55 6.27.6S55 95.46 55 92.62V68.06c0-5.64-4-12.57-8.84-15.39z"/><path class="kcls-3" d="M8.85 36.18c-2.46-1.42-4.41-.25-4.41 2.56V63.3a10 10 0 0 0 2.64 6.27l29.63-17.19z"/><path class="kcls-4" d="M37.37 52.73l-.66-.38L7.08 69.53A7.59 7.59 0 0 0 8.85 71l28.52 16.54c2.46 1.42 4.44.25 4.44-2.56V60.45a9.85 9.85 0 0 0-4.44-7.72z"/><path class="kcls-5" d="M48.3 79.66c-2-1.17-3.65-.22-3.65 2.12a8.08 8.08 0 0 0 3.65 6.33c2 1.17 3.65.22 3.65-2.12a8.12 8.12 0 0 0-3.65-6.33zM48.3 66.12a3.18 3.18 0 0 0-1.86-.47c-1.07.13-1.79 1-1.79 2.6a8.08 8.08 0 0 0 3.65 6.33c2 1.17 3.65.22 3.65-2.12a7.09 7.09 0 0 0-.72-2.91 8 8 0 0 0-2.93-3.43z"/><path class="kcls-6" d="M48.3 68.14a1.51 1.51 0 0 0-1-.25c-.57.06-.94.54-.94 1.36a4.18 4.18 0 0 0 1.92 3.32c1.07.6 1.92.13 1.92-1.11a3.38 3.38 0 0 0-.38-1.52 4 4 0 0 0-1.52-1.8z"/><path class="kcls-7" d="M17.85.76c1.73-1 3.62-1 4.22 0S21.73 3.42 20 4.43s-3.62 1-4.22 0 .34-2.66 2.07-3.67z"/><path class="kcls-8" d="M18.51 1.93c1.73-1 3.62-1 4.22 0L22.07.76c-.57-1-2.46-1-4.22 0s-2.68 2.66-2.11 3.67l.66 1.17c-.56-1.04.38-2.69 2.11-3.67z"/><path class="kcls-9" d="M18.51 1.93c1.73-1 3.62-1 4.22 0s-.35 2.66-2.11 3.67-3.62 1-4.22 0 .38-2.69 2.11-3.67z"/><path class="kcls-7" d="M19.52 3.64c.69-.41 1.42-.41 1.67 0s-.16 1-.82 1.42-1.42.41-1.67 0 .13-1.01.82-1.42z"/><path class="kcls-10" d="M22.32 8.55c.69-.38 1.42-.38 1.67 0l-2.8-4.87c-.22-.41-1-.41-1.67 0s-1.07 1-.82 1.42l2.8 4.9c-.25-.41.13-1.07.82-1.45z"/><path class="kcls-11" d="M22.32 8.55c.69-.38 1.42-.38 1.67 0s-.16 1-.82 1.46-1.42.41-1.67 0 .13-1.08.82-1.46z"/><path class="kcls-7" d="M22.17 8.23c1-.6 2.17-.6 2.52 0s-.22 1.58-1.26 2.22-2.17.6-2.52 0 .19-1.59 1.26-2.22z"/><path class="kcls-12" d="M26.45 15.7c1-.6 2.17-.6 2.52 0l-4.29-7.47c-.35-.6-1.48-.6-2.52 0s-1.61 1.58-1.26 2.22l4.28 7.44c-.37-.61.2-1.59 1.27-2.19z"/><path class="kcls-13" d="M26.45 15.7c1-.6 2.17-.6 2.52 0s-.22 1.58-1.26 2.18-2.17.6-2.52 0 .19-1.58 1.26-2.18z"/><path class="kcls-7" d="M26.1 15.13c1.73-1 3.62-1 4.22 0s-.32 2.66-2.11 3.67-3.62 1-4.22 0 .38-2.66 2.11-3.67z"/><path class="kcls-14" d="M35.55 31.55c1.73-1 3.62-1 4.22 0l-9.45-16.42c-.57-1-2.46-1-4.22 0s-2.68 2.66-2.1 3.67l9.41 16.43c-.57-1.02.37-2.66 2.14-3.68z"/><path class="kcls-13" d="M35.55 31.55c1.73-1 3.62-1 4.22 0s-.35 2.66-2.11 3.67-3.62 1-4.22 0 .34-2.65 2.11-3.67z"/><path class="kcls-15" d="M40.81 28.44l-6.49 3.77L39 40.43l6.49-3.77z"/><path class="kcls-16" d="M34.32 32.19l-4.72 2.75 9.4 5.48z"/><path class="kcls-7" d="M38.1 35.48c-1-1.74-1-3.64 0-4.24s2.64.35 3.65 2.12 1 3.64 0 4.24-2.65-.38-3.65-2.12z"/><path class="kcls-17" d="M48.42 29.5c-1-1.74-1-3.64 0-4.24l-10.33 6c-1 .57-1 2.47 0 4.24s2.64 2.69 3.65 2.12l10.33-6c-1 .57-2.64-.38-3.65-2.12z"/><path class="kcls-9" d="M48.42 29.5c-1-1.74-1-3.64 0-4.24s2.64.35 3.65 2.12 1 3.64 0 4.24-2.64-.38-3.65-2.12z"/><path class="kcls-7" d="M49.34 29c-.6-1-.6-2.18 0-2.53s1.57.22 2.17 1.27.6 2.18 0 2.53S49.94 30 49.34 29z"/><path class="kcls-18" d="M56.74 24.66c-.6-1-.6-2.18 0-2.53l-7.4 4.3c-.6.35-.6 1.49 0 2.53s1.57 1.61 2.17 1.27l7.4-4.23c-.6.3-1.57-.27-2.17-1.34z"/><path class="kcls-9" d="M56.74 24.66c-.6-1-.6-2.18 0-2.53s1.57.22 2.2 1.27.6 2.18 0 2.53-1.6-.2-2.2-1.27z"/><path class="kcls-7" d="M57.21 24.4c-.41-.7-.41-1.42 0-1.68s1 .16 1.42.82.41 1.42 0 1.68-1.04-.12-1.42-.82z"/><path class="kcls-19" d="M62.06 21.59c-.38-.7-.38-1.42 0-1.68l-4.85 2.82c-.41.22-.41 1 0 1.68s1 1.08 1.42.85l4.88-2.82c-.41.19-1.04-.19-1.45-.85z"/><path class="kcls-11" d="M62.06 21.59c-.38-.7-.38-1.42 0-1.68s1 .16 1.45.82.41 1.42 0 1.68-1.04-.16-1.45-.82z"/><path class="kcls-7" d="M61.59 21.87c-1-1.74-1-3.64 0-4.24s2.64.35 3.65 2.12 1 3.64 0 4.24-2.68-.38-3.65-2.12z"/><path class="kcls-20" d="M62.72 21.17c-1-1.74-1-3.64 0-4.24l-1.17.66c-1 .57-1 2.47 0 4.24s2.65 2.7 3.66 2.17l1.17-.66c-1.02.56-2.65-.39-3.66-2.17z"/><path class="kcls-9" d="M62.72 21.17c-1-1.74-1-3.64 0-4.24s2.64.35 3.65 2.12 1 3.64 0 4.24-2.64-.34-3.65-2.12z"/></g></g></symbol><symbol fill="none" viewBox="0 0 106 97" id="svg--item-category-1" xmlns="http://www.w3.org/2000/svg"><path d="M85.885 46.195v31.091L52.971 96.283V57.404l32.914-11.21z" fill="#D4E3EE"/><path d="M52.97 57.404v38.88L20.114 77.285V46.195l32.856 11.21z" fill="#EDF6FD"/><path d="M105.999 20.472v-1.475l-20.114 19.41v1.475l20.114-19.41z" fill="#C2D4E1"/><path d="M52.97 19.41L73.086 0 106 18.997l-20.115 19.41L52.971 19.41zM106 57.817l-20.115-19.41-32.914 18.997 20.114 19.41L106 57.817z" fill="#E9EFF5"/><path d="M0 20.472v-1.475l20.115 19.41v1.475L0 20.472z" fill="#C2D4E1"/><path d="M52.97 19.41L32.856 0 0 18.997l20.115 19.41L52.97 19.41z" fill="#E9EFF5"/><path d="M32.856 78.29v-1.476L0 57.817v1.475L32.856 78.29z" fill="#C2D4E1"/><path d="M52.97 58.88v-1.476l-20.114 19.41v1.475L52.97 58.88z" fill="#C2D4E1"/><path d="M52.97 58.88v-1.476l20.115 19.41v1.475L52.971 58.88zM73.085 78.29v-1.476L106 57.817v1.475L73.085 78.29z" fill="#B1C9DA"/><path d="M0 57.817l20.115-19.41L52.97 57.404l-20.115 19.41L0 57.817z" fill="#E9EFF5"/><path d="M52.97 19.41L20.114 38.407 52.97 57.404V19.41z" fill="#D4E3EE"/><path d="M52.97 19.41v37.994l32.915-18.997L52.97 19.41z" fill="#EDF6FD"/></symbol><symbol fill="none" viewBox="0 0 105 98" id="svg--item-category-2" xmlns="http://www.w3.org/2000/svg"><path d="M95.948 43.69L54.06 19.325c-2.27-1.332-4.292-1.416-5.778-.583l-45.89 26.74c1.486-.875 3.55-.75 5.778.582l41.846 24.407c4.498 2.624 8.17 9.08 8.17 14.328v7.33c0 2.624-.907 4.456-2.393 5.331l45.89-26.739c1.485-.875 2.393-2.707 2.393-5.331v-7.33c.041-5.29-3.631-11.746-8.13-14.37z" fill="url(#mpaint0_linear)"/><path d="M50.058 96.877c2.27 1.333 4.292 1.416 5.777.583 1.486-.875 2.394-2.707 2.394-5.331v-7.33c0-5.248-3.673-11.704-8.171-14.328L8.17 46.064c-2.27-1.332-4.292-1.416-5.777-.583C.908 46.356 0 48.188 0 50.812v7.33c0 5.249 3.673 11.704 8.171 14.328l41.887 24.407z" fill="#F3FAFA"/><path d="M23.977 66.348c-2.105 1.208-2.806 3.915-1.61 6.039 1.197 2.124 3.88 2.832 5.984 1.624 1.197-.708 1.197-2.998 0-5.081-1.238-2.166-3.177-3.29-4.374-2.582z" fill="url(#mpaint1_radial)"/><path d="M34.913 72.595c-2.105 1.208-2.807 3.915-1.61 6.04 1.197 2.123 3.88 2.832 5.984 1.624 1.197-.708 1.197-2.999 0-5.082-1.197-2.165-3.178-3.29-4.374-2.582z" fill="url(#mpaint2_radial)"/><path d="M45.848 78.843c-2.105 1.207-2.806 3.915-1.61 6.039 1.197 2.124 3.88 2.832 5.984 1.624 1.197-.708 1.197-2.999 0-5.081-1.196-2.166-3.177-3.29-4.374-2.582z" fill="url(#mpaint3_radial)"/><path d="M82.742 50.646c-2.889 0-5.241-1.375-5.241-3.04 0-1.667 2.352-3.041 5.241-3.041s5.241 1.374 5.241 3.04c0 1.708-2.352 3.04-5.241 3.04z" fill="#FAFAFA"/><path d="M82.742 30.03c-2.889 0-5.241-1.375-5.241-3.041v20.658c0 1.666 2.352 3.04 5.241 3.04s5.241-1.374 5.241-3.04v-20.7c0 1.708-2.352 3.082-5.241 3.082z" fill="url(#mpaint4_linear)"/><path d="M82.742 30.03c-2.889 0-5.241-1.375-5.241-3.041s2.352-3.04 5.241-3.04 5.241 1.374 5.241 3.04-2.352 3.04-5.241 3.04z" fill="#4A4F5B"/><path d="M82.742 28.53c-1.733 0-3.136-.833-3.136-1.833s1.403-1.832 3.136-1.832 3.136.833 3.136 1.832c0 1-1.403 1.833-3.136 1.833z" fill="#FAFAFA"/><path d="M82.742 16.118c-1.733 0-3.136-.833-3.136-1.832v12.411c0 1 1.403 1.833 3.136 1.833s3.136-.833 3.136-1.833V14.286c0 1.041-1.403 1.832-3.136 1.832z" fill="url(#mpaint5_linear)"/><path d="M82.742 16.118c-1.733 0-3.136-.833-3.136-1.832 0-1 1.403-1.833 3.136-1.833s3.136.833 3.136 1.833c0 1.041-1.403 1.832-3.136 1.832z" fill="#4A4F5B"/><path d="M82.742 15.369c-1.155 0-2.063-.542-2.063-1.208 0-.667.908-1.208 2.063-1.208 1.156 0 2.063.541 2.063 1.208 0 .666-.907 1.208-2.063 1.208z" fill="#FAFAFA"/><path d="M82.742 7.205c-1.155 0-2.063-.541-2.063-1.207v8.163c0 .666.908 1.208 2.063 1.208 1.156 0 2.063-.542 2.063-1.208V5.998c0 .666-.907 1.207-2.063 1.207z" fill="url(#mpaint6_linear)"/><path d="M82.743 7.205c-1.155 0-2.063-.541-2.063-1.207 0-.667.908-1.208 2.063-1.208 1.156 0 2.064.541 2.064 1.208 0 .666-.908 1.207-2.064 1.207z" fill="#EDEDED"/><path d="M82.742 8.038c-2.889 0-5.241-1.374-5.241-3.04s2.352-3.04 5.241-3.04 5.241 1.374 5.241 3.04-2.352 3.04-5.241 3.04z" fill="#FAFAFA"/><path d="M82.742 6.08c-2.889 0-5.241-1.374-5.241-3.04v1.958c0 1.666 2.352 3.04 5.241 3.04s5.241-1.374 5.241-3.04V3.04c0 1.708-2.352 3.04-5.241 3.04z" fill="url(#mpaint7_linear)"/><path d="M82.742 6.08c-2.889 0-5.241-1.374-5.241-3.04S79.853 0 82.742 0s5.241 1.374 5.241 3.04-2.352 3.04-5.241 3.04z" fill="#4A4F5B"/><path d="M38.978 34.5v3.623c14.527 0 26.33 6.873 26.33 15.37h6.19c0-10.497-14.61-18.993-32.52-18.993z" fill="#BBC9DF"/><path d="M38.978 41.705v3.624c7.676 0 13.949 3.623 13.949 8.122h6.19c0-6.498-9.037-11.746-20.139-11.746zM38.978 48.91v4.499h7.718c0-2.457-3.467-4.498-7.718-4.498z" fill="#BBC9DF"/><defs><linearGradient id="mpaint0_linear" x1="29.757" y1="10.526" x2="75.148" y2="105.148" gradientUnits="userSpaceOnUse"><stop stop-color="#DCEBEB"/><stop offset=".256" stop-color="#ECF4F6"/><stop offset=".531" stop-color="#DFEDF3"/><stop offset=".814" stop-color="#C9E1EF"/><stop offset="1" stop-color="#B7D6EB"/></linearGradient><radialGradient id="mpaint1_radial" cx="0" cy="0" r="1" gradientUnits="userSpaceOnUse" gradientTransform="matrix(-2.793 -4.8822 4.8596 -2.78008 25.015 69.466)"><stop stop-color="#FFCD6B"/><stop offset=".162" stop-color="#FFA96A"/><stop offset=".403" stop-color="#FF976A"/><stop offset=".692" stop-color="#FF7C6A"/><stop offset="1" stop-color="#FF3838"/></radialGradient><radialGradient id="mpaint2_radial" cx="0" cy="0" r="1" gradientUnits="userSpaceOnUse" gradientTransform="matrix(-2.793 -4.88218 4.8596 -2.78008 35.95 75.713)"><stop stop-color="#FFCD6B"/><stop offset=".162" stop-color="#FFA96A"/><stop offset=".403" stop-color="#FF976A"/><stop offset=".692" stop-color="#FF7C6A"/><stop offset="1" stop-color="#FF3838"/></radialGradient><radialGradient id="mpaint3_radial" cx="0" cy="0" r="1" gradientUnits="userSpaceOnUse" gradientTransform="matrix(-2.793 -4.88218 4.8596 -2.78008 46.886 81.96)"><stop stop-color="#FFCD6B"/><stop offset=".162" stop-color="#FFA96A"/><stop offset=".403" stop-color="#FF976A"/><stop offset=".692" stop-color="#FF7C6A"/><stop offset="1" stop-color="#FF3838"/></radialGradient><linearGradient id="mpaint4_linear" x1="77.514" y1="38.813" x2="87.991" y2="38.813" gradientUnits="userSpaceOnUse"><stop stop-color="#4D4F59"/><stop offset=".096" stop-color="#3C3F4B"/><stop offset=".301" stop-color="#333848"/><stop offset=".397" stop-color="#2A3044"/><stop offset=".635" stop-color="#171E34"/><stop offset=".844" stop-color="#1A223C"/><stop offset="1" stop-color="#111934"/></linearGradient><linearGradient id="mpaint5_linear" x1="79.614" y1="21.405" x2="85.883" y2="21.405" gradientUnits="userSpaceOnUse"><stop stop-color="#4D4F59"/><stop offset=".096" stop-color="#3C3F4B"/><stop offset=".301" stop-color="#333848"/><stop offset=".397" stop-color="#2A3044"/><stop offset=".635" stop-color="#171E34"/><stop offset=".844" stop-color="#1A223C"/><stop offset="1" stop-color="#111934"/></linearGradient><linearGradient id="mpaint6_linear" x1="80.684" y1="10.681" x2="84.809" y2="10.681" gradientUnits="userSpaceOnUse"><stop stop-color="#4D4F59"/><stop offset=".096" stop-color="#3C3F4B"/><stop offset=".301" stop-color="#333848"/><stop offset=".397" stop-color="#2A3044"/><stop offset=".635" stop-color="#171E34"/><stop offset=".844" stop-color="#1A223C"/><stop offset="1" stop-color="#111934"/></linearGradient><linearGradient id="mpaint7_linear" x1="77.514" y1="5.539" x2="87.991" y2="5.539" gradientUnits="userSpaceOnUse"><stop stop-color="#4D4F59"/><stop offset=".096" stop-color="#3C3F4B"/><stop offset=".301" stop-color="#333848"/><stop offset=".397" stop-color="#2A3044"/><stop offset=".635" stop-color="#171E34"/><stop offset=".844" stop-color="#1A223C"/><stop offset="1" stop-color="#111934"/></linearGradient></defs></symbol><symbol fill="none" viewBox="0 0 78 96" id="svg--item-category-3" xmlns="http://www.w3.org/2000/svg"><path d="M67.583 59.344l-.049 30.75c0 2.655-.976 4.49-2.489 5.358-1.512.87-3.61.724-5.953-.579L8.344 65.764C3.757 63.158 0 56.641 0 51.38l.049-40.066c0-2.655.976-4.49 2.488-5.359 1.513-.869 3.611-.724 5.954.58L51.04 30.96l16.542 28.384z" fill="#F3FAFA"/><path d="M9.467 33.47c0-.58.39-.773.878-.483l23.96 13.758c.487.29.877.965.877 1.545V55c0 .579-.39.772-.878.482L10.345 41.724c-.488-.29-.878-.965-.878-1.496V33.47zm18.298 28.143c0 .58.39 1.255.879 1.545l5.611 3.234c.488.29.879.048.879-.483v-6.758c0-.58-.39-1.255-.879-1.545l-5.611-3.234c-.488-.29-.879-.048-.879.483v6.758zM18.64 56.4c0 .579.39 1.255.879 1.544l5.66 3.234c.488.29.879.049.879-.482v-6.758c0-.58-.39-1.256-.879-1.497l-5.66-3.283c-.488-.29-.878-.048-.878.483V56.4zm-9.173-5.262c0 .579.39 1.255.878 1.544l5.66 3.235c.489.29.879.048.879-.483v-6.71c0-.58-.39-1.255-.878-1.545l-5.66-3.282c-.489-.29-.88-.048-.88.483v6.758zm18.347-11.393c0 .531.39 1.255.878 1.545l5.66 3.234c.489.29.88.049.88-.482v-6.759c0-.579-.391-1.255-.88-1.544l-5.66-3.235c-.487-.29-.878-.048-.878.483v6.758zm-9.174-5.213c0 .53.39 1.255.879 1.545l5.66 3.234c.488.29.879.048.879-.483V32.07c0-.58-.39-1.255-.879-1.497l-5.66-3.234c-.488-.29-.878-.048-.878.531v6.662zM9.467 29.27c0 .58.39 1.255.878 1.545l5.66 3.234c.489.29.879.048.879-.483v-6.71c0-.579-.39-1.255-.878-1.544l-5.66-3.235c-.489-.29-.88-.048-.88.483v6.71z" fill="#FE5566"/><path d="M60.507 25.505l-9.759 5.546 16.59 28.625 9.76-5.69-16.59-28.481z" fill="#D9EDF8"/><path d="M50.793 31.05L8.497 6.539c-2.43-1.308-4.412-1.448-5.974-.58l9.525-5.41c1.513-.87 3.611-.724 5.953.579l42.55 24.378-9.758 5.546zm26.35 22.936l-9.76 5.69.196 30.418c0 2.655-.976 4.49-2.49 5.358l9.467-5.406c1.513-.87 2.489-2.752 2.489-5.359l.098-30.701z" fill="url(#npaint0_linear)"/><defs><linearGradient id="npaint0_linear" x1="22.604" y1="-9.245" x2="90.735" y2="77.297" gradientUnits="userSpaceOnUse"><stop stop-color="#DCEBEB"/><stop offset=".256" stop-color="#ECF4F6"/><stop offset=".531" stop-color="#DFEDF3"/><stop offset=".814" stop-color="#C9E1EF"/><stop offset="1" stop-color="#B7D6EB"/></linearGradient></defs></symbol><symbol fill="none" viewBox="0 0 75 99" id="svg--item-category-4" xmlns="http://www.w3.org/2000/svg"><path d="M66.153 41.081l-8.785-5.095-3.37-1.963-16.498-9.59-8.627-5c-2.456-1.424-4.66-1.551-6.266-.633L2.582 30.415c1.606-.918 3.81-.791 6.266.602l8.627 5 16.499 9.59 3.369 1.962 8.784 5.096c4.88 2.848 8.848 9.748 8.848 15.413v24.56c0 2.849-1.008 4.811-2.613 5.76l19.993-11.615c1.606-.918 2.582-2.912 2.582-5.76v-24.56c.063-5.634-3.904-12.565-8.784-15.382z" fill="url(#opaint0_linear)"/><path d="M46.159 52.673l-8.785-5.095-3.369-1.963-16.499-9.59L9 30.978c-2.456-1.425-4.812-1.503-6.418-.553C1.008 31.34 0 33.335 0 36.152v24.56c0 5.665 3.967 12.597 8.848 15.414l28.526 16.552 8.785 5.096c2.456 1.424 4.66 1.55 6.265.601 1.606-.918 2.614-2.912 2.614-5.76v-24.56c-.032-5.634-3.999-12.565-8.88-15.382z" fill="#F3FAFA"/><path d="M8.848 36.175c-2.456-1.424-4.409-.253-4.409 2.564V63.3c0 2.12 1.102 4.558 2.645 6.267L36.713 52.38 8.848 36.175z" fill="#C7D6EC"/><path d="M37.374 52.728l-.662-.38L7.084 69.534a7.587 7.587 0 0 0 1.763 1.456l28.527 16.553c2.456 1.424 4.44.253 4.44-2.564V60.451c0-2.849-1.984-6.298-4.44-7.723z" fill="#B6C7E2"/><path d="M48.3 79.662c-2.015-1.171-3.652-.222-3.652 2.12 0 2.343 1.637 5.16 3.652 6.33 2.015 1.172 3.652.222 3.652-2.12 0-2.31-1.637-5.159-3.652-6.33zM48.3 66.116c-.693-.38-1.323-.538-1.858-.475-1.07.127-1.794 1.045-1.794 2.596 0 2.342 1.637 5.159 3.652 6.33 2.015 1.17 3.652.221 3.652-2.121 0-.95-.283-1.962-.724-2.912-.661-1.392-1.732-2.722-2.928-3.418z" fill="#9D79FC"/><path d="M48.3 68.142c-.347-.222-.693-.285-.976-.254-.567.064-.945.538-.945 1.361 0 1.235.85 2.722 1.92 3.324 1.071.6 1.921.126 1.921-1.108 0-.507-.126-1.013-.378-1.52-.346-.759-.913-1.455-1.542-1.803z" fill="#C7B1FF"/><path d="M17.852.76c1.732-1.013 3.621-1.013 4.22 0 .566 1.012-.347 2.658-2.11 3.67-1.763 1.014-3.621 1.014-4.22 0-.566-1.012.378-2.658 2.11-3.67z" fill="#FAFAFA"/><path d="M18.513 1.93c1.732-1.012 3.621-1.012 4.22 0L22.07.76c-.566-1.013-2.456-1.013-4.219 0-1.732 1.012-2.676 2.658-2.11 3.67l.662 1.172c-.567-1.044.378-2.69 2.11-3.671z" fill="url(#opaint1_linear)"/><path d="M18.513 1.93c1.732-1.012 3.621-1.012 4.22 0 .566 1.013-.347 2.66-2.11 3.672-1.732 1.013-3.621 1.013-4.22 0-.566-1.045.379-2.69 2.11-3.671z" fill="#4A4F5B"/><path d="M19.521 3.64c.693-.412 1.417-.412 1.669 0 .22.38-.158 1.044-.819 1.424-.693.411-1.417.411-1.669 0-.252-.38.126-1.013.819-1.424z" fill="#FAFAFA"/><path d="M22.323 8.547c.693-.38 1.417-.38 1.669 0L21.19 3.673c-.22-.412-.976-.412-1.669 0-.693.38-1.07 1.044-.819 1.424l2.803 4.905c-.252-.411.126-1.076.818-1.455z" fill="url(#opaint2_linear)"/><path d="M22.323 8.545c.692-.38 1.417-.38 1.668 0 .22.412-.157 1.045-.818 1.456-.693.412-1.417.412-1.669 0-.252-.411.126-1.076.819-1.456z" fill="#EDEDED"/><path d="M22.166 8.229c1.039-.601 2.172-.601 2.518 0 .347.601-.22 1.582-1.259 2.215-1.039.602-2.172.602-2.519 0-.378-.601.19-1.582 1.26-2.215z" fill="#FAFAFA"/><path d="M26.448 15.698c1.04-.601 2.173-.601 2.519 0l-4.282-7.47c-.347-.6-1.48-.6-2.52 0-1.038.602-1.605 1.583-1.258 2.216l4.282 7.438c-.378-.601.189-1.582 1.259-2.184z" fill="url(#opaint3_linear)"/><path d="M26.448 15.698c1.039-.601 2.172-.601 2.519 0 .346.601-.22 1.583-1.26 2.184-1.039.601-2.172.601-2.519 0-.377-.601.19-1.583 1.26-2.184z" fill="#454545"/><path d="M26.102 15.129c1.732-1.013 3.621-1.013 4.22 0 .566 1.012-.347 2.658-2.11 3.67-1.732 1.014-3.621 1.014-4.22 0-.566-1.012.378-2.658 2.11-3.67z" fill="#FAFAFA"/><path d="M35.547 31.555c1.732-1.013 3.621-1.013 4.22 0L30.32 15.128c-.566-1.012-2.456-1.012-4.219 0-1.763 1.013-2.676 2.66-2.11 3.672l9.415 16.426c-.567-1.013.378-2.658 2.141-3.671z" fill="url(#opaint4_linear)"/><path d="M35.547 31.555c1.732-1.013 3.62-1.013 4.22 0 .566 1.013-.347 2.658-2.11 3.671-1.764 1.013-3.621 1.013-4.22 0-.598-1.013.347-2.658 2.11-3.671z" fill="#454545"/><path d="M40.811 28.445l-6.489 3.768 4.725 8.221 6.489-3.767-4.725-8.222z" fill="#7F4FFE"/><path d="M34.32 32.188l-4.723 2.753 9.445 5.475-4.722-8.228z" fill="#AA89FF"/><path d="M38.097 35.48c-1.007-1.741-1.007-3.64 0-4.242 1.008-.57 2.645.348 3.653 2.12 1.007 1.741 1.007 3.64 0 4.242-1.008.57-2.645-.38-3.653-2.12z" fill="#FAFAFA"/><path d="M48.425 29.497c-1.008-1.74-1.008-3.64 0-4.24L38.097 31.27c-1.007.57-1.007 2.469 0 4.24 1.008 1.742 2.645 2.691 3.653 2.121l10.327-6.013c-1.007.57-2.645-.38-3.652-2.12z" fill="url(#opaint5_linear)"/><path d="M48.425 29.497c-1.008-1.74-1.008-3.64 0-4.24 1.007-.57 2.644.348 3.652 2.12 1.008 1.74 1.008 3.64 0 4.241-1.008.57-2.645-.38-3.652-2.12z" fill="#4A4F5B"/><path d="M49.338 28.96c-.598-1.045-.598-2.184 0-2.533.599-.348 1.575.222 2.173 1.266.598 1.045.598 2.184 0 2.532-.598.348-1.574-.19-2.173-1.266z" fill="#FAFAFA"/><path d="M56.738 24.655c-.599-1.045-.599-2.184 0-2.532l-7.4 4.304c-.598.349-.598 1.488 0 2.532.599 1.045 1.575 1.614 2.173 1.266l7.4-4.272c-.6.348-1.575-.222-2.173-1.298z" fill="url(#opaint6_linear)"/><path d="M56.738 24.655c-.599-1.044-.599-2.184 0-2.532.598-.348 1.574.222 2.204 1.266.598 1.044.598 2.184 0 2.532-.63.38-1.606-.19-2.204-1.266z" fill="#4A4F5B"/><path d="M57.21 24.402c-.41-.696-.41-1.424 0-1.678.377-.221 1.038.159 1.416.823.41.697.41 1.424 0 1.678-.378.221-1.039-.127-1.417-.823z" fill="#FAFAFA"/><path d="M62.058 21.586c-.378-.697-.378-1.425 0-1.678l-4.849 2.817c-.409.221-.409.981 0 1.677.378.697 1.04 1.076 1.417.855l4.88-2.817c-.409.19-1.038-.19-1.448-.854z" fill="url(#opaint7_linear)"/><path d="M62.059 21.585c-.378-.696-.378-1.424 0-1.677.41-.222 1.039.158 1.448.822.41.697.41 1.425 0 1.678-.41.221-1.039-.158-1.448-.823z" fill="#EDEDED"/><path d="M61.586 21.87c-1.008-1.74-1.008-3.64 0-4.241 1.007-.57 2.645.348 3.652 2.12 1.008 1.741 1.008 3.64 0 4.241-1.039.57-2.676-.38-3.652-2.12z" fill="#FAFAFA"/><path d="M62.72 21.174c-1.008-1.741-1.008-3.64 0-4.241l-1.166.664c-1.007.57-1.007 2.469 0 4.241 1.008 1.74 2.645 2.69 3.653 2.12l1.165-.664c-1.008.601-2.645-.348-3.653-2.12z" fill="url(#opaint8_linear)"/><path d="M62.72 21.174c-1.008-1.741-1.008-3.64 0-4.241 1.007-.57 2.644.348 3.652 2.12 1.007 1.74 1.007 3.64 0 4.241-1.008.601-2.645-.348-3.653-2.12z" fill="#4A4F5B"/><defs><linearGradient id="opaint0_linear" x1="22.053" y1="10.449" x2="76.868" y2="90.82" gradientUnits="userSpaceOnUse"><stop stop-color="#DCEBEB"/><stop offset=".256" stop-color="#ECF4F6"/><stop offset=".531" stop-color="#DFEDF3"/><stop offset=".814" stop-color="#C9E1EF"/><stop offset="1" stop-color="#B7D6EB"/></linearGradient><linearGradient id="opaint1_linear" x1="20.369" y1="3.124" x2="18.828" y2="4.597" gradientUnits="userSpaceOnUse"><stop stop-color="#4D4F59"/><stop offset=".096" stop-color="#3C3F4B"/><stop offset=".301" stop-color="#333848"/><stop offset=".397" stop-color="#2A3044"/><stop offset=".635" stop-color="#171E34"/><stop offset=".844" stop-color="#1A223C"/><stop offset="1" stop-color="#111934"/></linearGradient><linearGradient id="opaint2_linear" x1="22.218" y1="7.066" x2="20.599" y2="8.046" gradientUnits="userSpaceOnUse"><stop stop-color="#4D4F59"/><stop offset=".096" stop-color="#3C3F4B"/><stop offset=".301" stop-color="#333848"/><stop offset=".397" stop-color="#2A3044"/><stop offset=".635" stop-color="#171E34"/><stop offset=".844" stop-color="#1A223C"/><stop offset="1" stop-color="#111934"/></linearGradient><linearGradient id="opaint3_linear" x1="26.27" y1="13.412" x2="23.806" y2="14.902" gradientUnits="userSpaceOnUse"><stop stop-color="#4D4F59"/><stop offset=".096" stop-color="#3C3F4B"/><stop offset=".301" stop-color="#333848"/><stop offset=".397" stop-color="#2A3044"/><stop offset=".635" stop-color="#171E34"/><stop offset=".844" stop-color="#1A223C"/><stop offset="1" stop-color="#111934"/></linearGradient><linearGradient id="opaint4_linear" x1="34.499" y1="26" x2="29.548" y2="28.833" gradientUnits="userSpaceOnUse"><stop stop-color="#4D4F59"/><stop offset=".096" stop-color="#3C3F4B"/><stop offset=".301" stop-color="#333848"/><stop offset=".397" stop-color="#2A3044"/><stop offset=".635" stop-color="#171E34"/><stop offset=".844" stop-color="#1A223C"/><stop offset="1" stop-color="#111934"/></linearGradient><linearGradient id="opaint5_linear" x1="41.499" y1="29.5" x2="44.999" y2="36" gradientUnits="userSpaceOnUse"><stop stop-color="#4D4F59"/><stop offset=".096" stop-color="#3C3F4B"/><stop offset=".301" stop-color="#333848"/><stop offset=".397" stop-color="#2A3044"/><stop offset=".635" stop-color="#171E34"/><stop offset=".844" stop-color="#1A223C"/><stop offset="1" stop-color="#111934"/></linearGradient><linearGradient id="opaint6_linear" x1="51.717" y1="24.899" x2="53.957" y2="29.224" gradientUnits="userSpaceOnUse"><stop stop-color="#4D4F59"/><stop offset=".096" stop-color="#3C3F4B"/><stop offset=".301" stop-color="#333848"/><stop offset=".397" stop-color="#2A3044"/><stop offset=".635" stop-color="#171E34"/><stop offset=".844" stop-color="#1A223C"/><stop offset="1" stop-color="#111934"/></linearGradient><linearGradient id="opaint7_linear" x1="58.766" y1="21.739" x2="60.244" y2="24.591" gradientUnits="userSpaceOnUse"><stop stop-color="#4D4F59"/><stop offset=".096" stop-color="#3C3F4B"/><stop offset=".301" stop-color="#333848"/><stop offset=".397" stop-color="#2A3044"/><stop offset=".635" stop-color="#171E34"/><stop offset=".844" stop-color="#1A223C"/><stop offset="1" stop-color="#111934"/></linearGradient><linearGradient id="opaint8_linear" x1="62.371" y1="19.366" x2="64.727" y2="22.251" gradientUnits="userSpaceOnUse"><stop stop-color="#4D4F59"/><stop offset=".096" stop-color="#3C3F4B"/><stop offset=".301" stop-color="#333848"/><stop offset=".397" stop-color="#2A3044"/><stop offset=".635" stop-color="#171E34"/><stop offset=".844" stop-color="#1A223C"/><stop offset="1" stop-color="#111934"/></linearGradient></defs></symbol><symbol fill="none" viewBox="0 0 132 38" id="svg--logo" xmlns="http://www.w3.org/2000/svg"><path d="M3 0a3 3 0 0 0-3 3v32a3 3 0 0 0 3 3h32a3 3 0 0 0 3-3V3a3 3 0 0 0-3-3H3z" fill="#fff"/><path d="M25.064 5.66h-2.426v17.787h2.426V5.66z" fill="#1D69BC"/><path d="M30.467 29.012H13.259l-5.43 4.946V8.894h12.363v2.011H9.833v18.358l2.674-2.347h15.955V8.894h2.005v20.118z" fill="#331160"/><path d="M20.213 12.936h-2.426v10.51h2.426v-10.51z" fill="#EF2942"/><path d="M15.362 16.979h-2.426v6.468h2.426v-6.468z" fill="#FF9D33"/><path d="M64.75 8v3.62h-5.833V29h-4.084V11.62H49V8h15.75zM76.67 8l8.29 21h-4.237l-2.026-4.888h-8.658L68.012 29H63.96l8.473-21h4.237zm-2.21 4.707l-2.763 7.422h5.526l-2.763-7.422zM97.224 8c4.687 0 6.75 2.716 6.75 6.336 0 3.078-1.5 5.431-4.875 6.155L104.91 29h-4.687l-5.625-8.328h-1.5V29H89.16V8h8.063zm0 9.052c2.062 0 3-1.086 3-2.535 0-1.448-1.313-2.534-2.813-2.534h-3.937v5.25h3.75v-.181zM109.113 8h4.025v21h-4.025V8zM131.25 8v3.62h-8.228v5.25h7.862v3.621h-7.862V29H119V8h12.25z" fill="#fff"/></symbol><symbol fill="none" viewBox="0 0 178 63" id="svg--logo-mts" xmlns="http://www.w3.org/2000/svg"><path d="M177.249 38.52s-3.813.54-8.354.54c-5.448 0-6.537-1.8-6.537-5.94V27.9c0-4.32.908-6.12 6.537-6.12 3.996 0 7.81.54 7.81.54l.726-7.92s-4.903-.72-9.262-.72c-11.441 0-15.437 3.78-15.437 12.78v7.92c0 9.9 5.085 12.78 15.437 12.78 4.177 0 9.807-.72 9.807-.72l-.727-7.92zM120.406 22.5h9.444v24.12h9.807V22.5h9.443l.545-8.1h-29.784l.545 8.1zM100.429 43.38l5.267-12.24h.545l1.089 15.48h9.444l-2.179-32.22h-9.081l-7.809 18.36h-.544L88.806 14.4h-8.9L77.73 46.62h9.261l.909-15.48h.544l5.812 12.24h6.174zM63.563 6.3v50.4c0 3.42-2.906 6.3-6.357 6.3H6.356C2.906 63 0 60.12 0 56.7V6.3C0 2.88 2.906 0 6.356 0h50.85c3.45 0 6.356 2.88 6.356 6.3zM31.78 54.72c11.805 0 17.253-9.36 17.253-18.72 0-13.14-9.08-27.9-17.253-27.9-7.99 0-17.252 14.94-17.252 28.08 0 9.18 5.266 18.54 17.252 18.54z" fill="#F80068"/><path d="M49.035 36c0 9.36-5.449 18.72-17.253 18.72-11.986 0-17.253-9.36-17.253-18.54 0-13.14 9.262-28.08 17.253-28.08 8.172 0 17.253 14.76 17.253 27.9z" fill="#fff"/></symbol><symbol fill="none" viewBox="0 0 160 129" id="svg--magnifier" xmlns="http://www.w3.org/2000/svg"><path d="M97.753 20.208C79.42 8.4 49.683 8.4 31.361 20.208c-9.166 5.909-13.756 13.657-13.756 21.406v25.882c0-7.748 4.59-15.496 13.756-21.406 18.322-11.806 48.06-11.806 66.392 0 9.11 5.872 13.574 13.531 13.574 21.216V41.423c0-7.684-4.464-15.344-13.574-21.215z" fill="url(#rpaint0_linear)"/><path d="M97.753 33.155c-18.333-11.806-48.07-11.806-66.392 0-9.166 5.91-13.756 13.646-13.756 21.394 0 7.748 4.59 15.496 13.756 21.406 12.665 8.166 30.748 10.55 46.787 7.419 7.156-1.396 13.949-3.78 19.605-7.42 5.657-3.639 9.348-8.026 11.518-12.63 1.374-2.916 2.056-5.934 2.056-8.953 0-7.685-4.464-15.345-13.574-21.216z" fill="url(#rpaint1_radial)"/><path d="M18.912 71.034C6.304 62.905 0 52.266 0 41.614v25.882c0 10.653 6.304 21.292 18.912 29.42 19.72 12.708 48.934 15.332 72.822 8.155V79.188c-23.888 7.177-53.103 4.552-72.822-8.154z" fill="url(#rpaint2_linear)"/><path d="M122.855 85.009v-25.87c4.044-5.618 6.089-11.68 6.089-17.728v25.882c0 6.049-2.045 12.11-6.089 17.716z" fill="#1E6EBD"/><path d="M91.734 105.07V79.188l37.133 23.942V129l-37.133-23.93z" fill="#388EE3"/><path d="M128.865 129v-25.87L160 83.068v25.883L128.865 129z" fill="#2373C1"/><path d="M122.857 59.127c4.043-5.605 6.088-11.667 6.088-17.716 0-10.576-6.213-21.14-18.753-29.218-25.194-16.257-66.074-16.257-91.28 0C6.304 20.322 0 30.962 0 41.614c0 10.653 6.304 21.292 18.912 29.42 19.72 12.707 48.934 15.332 72.821 8.154l37.132 23.942 31.134-20.061-37.142-23.942zm-13.585-8.75c-2.17 4.615-5.861 8.99-11.518 12.643-5.657 3.64-12.449 6.023-19.605 7.418-16.038 3.12-34.122.749-46.787-7.418-9.166-5.922-13.755-13.658-13.755-21.407 0-7.748 4.59-15.496 13.755-21.405 18.322-11.807 48.06-11.807 66.392 0 9.11 5.871 13.574 13.53 13.574 21.215 0 3.019-.682 6.037-2.056 8.953z" fill="#2383E2"/><defs><linearGradient id="rpaint0_linear" x1="17.606" y1="39.424" x2="111.327" y2="39.424" gradientUnits="userSpaceOnUse"><stop stop-color="#1E6DBC"/><stop offset="1" stop-color="#277ED4"/></linearGradient><radialGradient id="rpaint1_radial" cx="0" cy="0" r="1" gradientUnits="userSpaceOnUse" gradientTransform="matrix(74.2409 0 0 82.884 73.644 89.184)"><stop stop-color="#E0FBFD"/><stop offset=".214" stop-color="#DDFBFD"/><stop offset=".355" stop-color="#D4F9FD"/><stop offset=".475" stop-color="#C6F6FD"/><stop offset=".583" stop-color="#B0F3FD"/><stop offset=".683" stop-color="#95EEFE"/><stop offset=".778" stop-color="#73E8FE"/><stop offset=".868" stop-color="#4BE1FE"/><stop offset=".951" stop-color="#1ED9FF"/><stop offset="1" stop-color="#00D4FF"/></radialGradient><linearGradient id="rpaint2_linear" x1="0" y1="63" x2="92" y2="98" gradientUnits="userSpaceOnUse"><stop stop-color="#287FD5"/><stop offset="1" stop-color="#1E6DBB"/></linearGradient></defs></symbol><symbol fill="none" viewBox="0 0 214 191" id="svg--mobile" xmlns="http://www.w3.org/2000/svg"><path d="M8.6 139.577l51.985 30.364c11.38 6.598 29.207 5.833 40.619-.734l9.035-5.191 95.166-54.757c5.69-3.284 8.567-7.599 8.567-11.915 0-4.347-2.845-8.662-8.535-11.946L154.164 55.69c-11.38-6.599-29.919-6.63-41.362-.063l-95.198 54.758-9.004 5.191C2.88 118.859.034 123.175.034 127.49c-.031 4.316 2.876 8.803 8.566 12.087z" fill="#E9F8FF"/><path d="M50.053 145.19c-3.157-1.845-8.19-1.97-11.598-.375-.22.125-.438.219-.657.344-.25.156-.469.282-.657.438-1.25.907-1.907 2.001-1.907 3.096 0 1.282.844 2.564 2.533 3.534 3.157 1.845 8.097 1.938 11.505.406l.75-.375c.219-.125.407-.25.594-.375 1.282-.907 1.938-2.033 1.938-3.159.032-1.282-.812-2.564-2.5-3.534zM163.072 69.793l17.945 10.414c1.438.844 3.72.844 5.19 0 .719-.407 1.063-.938 1.063-1.501 0-.532-.375-1.095-1.063-1.47l-17.946-10.413c-1.438-.845-3.751-.845-5.189 0-.719.406-1.063.938-1.063 1.5-.032.5.344 1.064 1.063 1.47z" fill="#BBE9FF"/><path d="M195.054 103.286c2.845-1.658 4.283-3.815 4.283-5.973s-1.406-4.347-4.251-5.973L143.813 61.63c-5.69-3.314-14.975-3.314-20.665-.03l-76.565 44.03 144.001.219 4.47-2.564z" fill="#D6F2FF"/><path d="M46.583 105.631L27.95 116.358c-2.845 1.657-4.283 3.815-4.283 5.973 0 2.157 1.407 4.315 4.252 5.972l51.272 29.709c5.69 3.315 14.975 3.315 20.697.031l90.66-52.258-143.965-.154z" fill="#BBE9FF"/><path d="M205.402 109.259l-95.197 54.788-9.036 5.192c-11.41 6.567-29.95 6.535-41.361-.063L8.534 139.468C2.876 136.153 0 131.806.031 127.49L0 144.346c0 4.316 2.845 8.662 8.535 11.946l51.272 29.74c11.38 6.598 29.951 6.629 41.362.062l9.036-5.191 95.197-54.757c5.69-3.284 8.567-7.599 8.567-11.946L214 97.344c-.063 4.316-2.908 8.631-8.598 11.915z" fill="#C0E8FF"/><path d="M56.837 119.235l8.566 4.972 8.285-24.33-8.566-4.94-8.285 24.298z" fill="#15B07D"/><path d="M98.606 8.97C115.113-.507 129.65-2.29 138.373 2.745l8.566 4.972c-8.722-5.034-23.26-3.252-39.767 6.224C80.442 29.327 58.745 59.13 58.713 80.55c0 8.162 3.158 13.916 8.566 17.043l-8.597-4.972c-5.377-3.127-8.566-8.881-8.535-17.043 0-21.422 21.728-51.224 48.459-66.61z" fill="#15B07D"/><path d="M73.689 99.877c-2.408-.469-4.534-1.22-6.44-2.314-5.41-3.127-8.567-8.881-8.567-17.043.031-21.39 21.728-51.224 48.459-66.61 16.507-9.475 31.044-11.258 39.767-6.223 5.409 3.159 8.598 8.913 8.566 17.106-.031 21.39-21.728 51.192-48.458 66.578-7.004 4.034-13.631 6.63-19.634 7.943l-22.01 24.862 8.317-24.299z" fill="#12C78C"/><path d="M106.953 42.524c2.439-1.376 4.627-1.532 6.222-.594l6.159 3.565c-1.595-.907-3.783-.782-6.222.626-4.846 2.783-8.785 9.6-8.816 15.198 0 2.814.969 4.784 2.563 5.691l-6.159-3.565c-1.594-.938-2.563-2.877-2.563-5.691 0-5.63 3.939-12.447 8.816-15.23z" fill="#fff"/><path d="M121.866 51.187c0 5.597-3.94 12.415-8.817 15.198-2.407 1.376-4.627 1.532-6.19.594-1.594-.938-2.564-2.877-2.564-5.692 0-5.597 3.971-12.415 8.817-15.198 2.438-1.407 4.627-1.532 6.221-.625 1.563.938 2.564 2.908 2.533 5.723z" fill="#F0F0F0"/><path d="M129.901 32.142c1.782-1.032 3.407-1.126 4.564-.438l4.533 2.627c-1.156-.688-2.782-.594-4.564.438-3.564 2.032-6.472 7.036-6.472 11.164 0 2.064.719 3.502 1.876 4.19l-4.533-2.627c-1.157-.688-1.876-2.126-1.876-4.19 0-4.097 2.876-9.1 6.472-11.164z" fill="#fff"/><path d="M140.843 38.49c0 4.128-2.907 9.1-6.472 11.164-1.782 1.032-3.407 1.126-4.564.438-1.188-.688-1.876-2.127-1.876-4.19 0-4.097 2.908-9.1 6.472-11.165 1.782-1.032 3.407-1.125 4.564-.437 1.188.688 1.907 2.126 1.876 4.19z" fill="#F0F0F0"/><path d="M84.13 58.191c1.783-1.032 3.408-1.125 4.565-.469l4.533 2.627c-1.188-.656-2.782-.563-4.564.47-3.564 2.032-6.472 7.035-6.472 11.163 0 2.064.72 3.503 1.876 4.16l-4.533-2.596c-1.157-.688-1.876-2.127-1.876-4.19 0-4.097 2.907-9.1 6.471-11.165z" fill="#fff"/><path d="M95.104 64.571c0 4.097-2.907 9.1-6.472 11.164-1.782 1.032-3.407 1.126-4.564.438-1.188-.657-1.876-2.127-1.876-4.16 0-4.096 2.908-9.1 6.472-11.163 1.782-1.032 3.407-1.126 4.564-.47 1.157.688 1.876 2.127 1.876 4.191z" fill="#F0F0F0"/></symbol><symbol fill="none" viewBox="0 0 148 76" id="svg--pattern-1" xmlns="http://www.w3.org/2000/svg"><rect width="53" height="17" rx="8.5" transform="matrix(-1 0 0 1 109 0)" fill="#606ADB"/><rect width="24" height="17" rx="8.5" transform="matrix(-1 0 0 1 45 0)" fill="#606ADB"/><rect y="59" width="53" height="17" rx="8.5" fill="#606ADB"/><rect x="64" y="59" width="24" height="17" rx="8.5" fill="#606ADB"/><rect width="43" height="17" rx="8.5" transform="matrix(-1 0 0 1 79 29)" fill="#606ADB"/><rect width="58" height="17" rx="8.5" transform="matrix(-1 0 0 1 148 29)" fill="#606ADB"/></symbol><symbol fill="none" viewBox="0 0 148 76" id="svg--pattern-2" xmlns="http://www.w3.org/2000/svg"><rect x="39" width="53" height="17" rx="8.5" fill="#517ADE"/><rect x="103" width="24" height="17" rx="8.5" fill="#517ADE"/><rect width="53" height="17" rx="8.5" transform="matrix(-1 0 0 1 148 59)" fill="#517ADE"/><rect width="24" height="17" rx="8.5" transform="matrix(-1 0 0 1 84 59)" fill="#517ADE"/><rect x="69" y="29" width="43" height="17" rx="8.5" fill="#517ADE"/><rect y="29" width="58" height="17" rx="8.5" fill="#517ADE"/></symbol><symbol viewBox="0 0 29.18 31" id="svg--ruso" xmlns="http://www.w3.org/2000/svg"><defs><style>.vcls-1{fill:#fff}</style></defs><g id="vСлой_2" data-name="Слой 2"><g id="vСлой_1-2" data-name="Слой 1"><path class="vcls-1" d="M22.18 13.36c6.94-2.33 10 10.33 3.18 11.27-2.76.38-5.74.41-7.18-2.94-1.6-3.72.34-7.09 4-8.32zm5 6.28c.09-2.71-.63-5-3.72-4.54-2.51.4-4.52 2.49-3.64 5.09 1.09 3.17 7.18 3.81 7.36-.55zM12.8 6.63A12.07 12.07 0 0 1 12 3.5c0-1.56 1.58-.63 1.9.17.88 2.17 1 5.32 3.38 6.57 1.39.74 3.62-.21 4.31-1.44 1.11-2-.94-5.23-1.68-7.14A1.26 1.26 0 0 1 21.43 0c1.15.17 1.44 2.16 1.74 3.06.73 2.23 1.39 5.51-.38 7.43a6.21 6.21 0 0 1-5.52 1.83c-2.63-.59-3.73-3.44-4.46-5.71-.3-1.01.19.56-.01.02zM8.6 20.34c-1 .45-2.22.92-2.67-.14-.57-1.33 2.17-1.53 1.62-2.36-.69-1-3.36.1-3.37 2.5 0 3.62 4.13 2.17 5.73 1.43a3.56 3.56 0 0 1 4.19.74c1.17 1.29.66 3.2-.94 4.42-1.35 1-5.4 1.57-6 2.09-1.3 1.08.39 2.38 1.82 1.87 4.53-1.65 7.2-2.89 7.53-5.89.24-2.12-.53-4.79-3.19-5.32a6.83 6.83 0 0 0-4.72.66zM15.27 17.95c-2.24.73-2.84-2.67-.83-3.39s3.33 2.44.83 3.39z"/><path class="vcls-1" d="M.46 8.8a6.36 6.36 0 0 0 .13 5c.34.92.74 3.88 1.66 4.37 1.5.8 1.1-2 .77-2.77-.61-1.56-1.47-3.2-1.22-4.93a4 4 0 0 1 5.32-3.04c2.27.68 3.13 3.93 1.44 5.18a5.8 5.8 0 0 1-4.4.76c-.4-.06-.83.32-.55.75s1.57.74 2.14.79a4.52 4.52 0 0 0 2-.16c1.14-.35 1.31.5 2.37 1 .41.18 1.59.12 1.72-.41.19-.79-1.29-1.41-1.81-1.65a3.67 3.67 0 0 0 1-2C12.64 5.94 3 2.84.46 8.8z"/></g></g></symbol><symbol viewBox="0 0 160 129" id="svg--test1" xmlns="http://www.w3.org/2000/svg"><defs><style>.wcls-1{fill:url(#wБезымянный_градиент)}.wcls-2{fill:url(#wБезымянный_градиент_2)}.wcls-3{fill:url(#wБезымянный_градиент_3)}.wcls-4{fill:#1e6ebd}.wcls-5{fill:#388ee3}.wcls-6{fill:#2373c1}.wcls-7{fill:#2383e2}</style><linearGradient id="wБезымянный_градиент" x1="17.61" y1="90.57" x2="111.33" y2="90.57" gradientTransform="matrix(1 0 0 -1 0 130)" gradientUnits="userSpaceOnUse"><stop offset="0" stop-color="#1e6dbc"/><stop offset="1" stop-color="#277ed4"/></linearGradient><radialGradient id="wБезымянный_градиент_2" cx="-221.97" cy="457.01" r="1" gradientTransform="matrix(74.24 0 0 -82.88 16552.85 37967.67)" gradientUnits="userSpaceOnUse"><stop offset="0" stop-color="#e0fbfd"/><stop offset=".21" stop-color="#ddfbfd"/><stop offset=".36" stop-color="#d4f9fd"/><stop offset=".48" stop-color="#c6f6fd"/><stop offset=".58" stop-color="#b0f3fd"/><stop offset=".68" stop-color="#95eefe"/><stop offset=".78" stop-color="#73e8fe"/><stop offset=".87" stop-color="#4be1fe"/><stop offset=".95" stop-color="#1ed9ff"/><stop offset="1" stop-color="#00d4ff"/></radialGradient><linearGradient id="wБезымянный_градиент_3" x1="-1.14" y1="64" x2="90.86" y2="29" gradientTransform="matrix(1 0 0 -1 0 130)" gradientUnits="userSpaceOnUse"><stop offset="0" stop-color="#287fd5"/><stop offset="1" stop-color="#1e6dbb"/></linearGradient></defs><g id="wСлой_2" data-name="Слой 2"><g id="wСлой_1-2" data-name="Слой 1"><path class="wcls-1" d="M97.75 20.21C79.42 8.4 49.68 8.4 31.36 20.21c-9.16 5.91-13.75 13.65-13.75 21.4V67.5c0-7.75 4.59-15.5 13.76-21.41 18.32-11.81 48.06-11.81 66.39 0 9.11 5.87 13.57 13.53 13.57 21.22V41.42c0-7.68-4.47-15.34-13.58-21.21z"/><path class="wcls-2" d="M97.75 33.15c-18.33-11.81-48.07-11.81-66.39 0-9.16 5.91-13.75 13.65-13.75 21.4S22.2 70 31.36 76C44 84.12 62.11 86.51 78.15 83.37A56.16 56.16 0 0 0 97.75 76a30.65 30.65 0 0 0 11.52-12.63 20.9 20.9 0 0 0 2.06-9c0-7.68-4.47-15.37-13.58-21.22z"/><path class="wcls-3" d="M18.91 71C6.3 62.9 0 52.27 0 41.61V67.5c0 10.65 6.3 21.29 18.91 29.42 19.72 12.71 48.93 15.33 72.82 8.15V79.19c-23.88 7.17-53.1 4.55-72.82-8.19z"/><path class="wcls-4" d="M122.86 85V59.14a30.25 30.25 0 0 0 6.09-17.73v25.88A30.18 30.18 0 0 1 122.86 85z"/><path class="wcls-5" d="M91.73 105.07V79.19l37.13 23.94V129z"/><path class="wcls-6" d="M128.87 129v-25.87L160 83.07V109z"/><path class="wcls-7" d="M122.86 59.13a30.19 30.19 0 0 0 6.09-17.72c0-10.58-6.21-21.14-18.75-29.22-25.2-16.25-66.08-16.25-91.29 0C6.3 20.32 0 31 0 41.61S6.3 62.91 18.91 71c19.72 12.71 48.93 15.33 72.82 8.15l37.13 23.94L160 83.07zm-13.58-8.75A30.67 30.67 0 0 1 97.75 63a56.16 56.16 0 0 1-19.61 7.42c-16 3.12-34.12.75-46.79-7.42-9.15-5.9-13.74-13.64-13.74-21.39s4.59-15.5 13.76-21.41c18.31-11.8 48.05-11.8 66.38.01 9.11 5.87 13.57 13.53 13.57 21.22a20.9 20.9 0 0 1-2.05 8.95z"/></g></g></symbol><symbol viewBox="0 0 16 16" id="svg--www" xmlns="http://www.w3.org/2000/svg"><g data-name="Слой 2"><path d="M8 0a8 8 0 1 0 5.65 2.35A8 8 0 0 0 8 0zm5.91 7H12a14.43 14.43 0 0 0-.71-4 6 6 0 0 1 2.65 4zM8 14c-1 0-1.81-2.16-2-5h4c-.19 2.84-1 5-2 5zM6 7c.16-2.84 1-5 2-5s1.81 2.16 2 5zM4.74 3A14.43 14.43 0 0 0 4 7H2.09a6 6 0 0 1 2.65-4zM2.09 9H4a14.43 14.43 0 0 0 .71 4 6 6 0 0 1-2.62-4zm9.17 4A14.43 14.43 0 0 0 12 9h1.94a6 6 0 0 1-2.65 4z" data-name="Слой 1"/></g></symbol></svg>