<svg width="75" height="99" fill="none" xmlns="http://www.w3.org/2000/svg"><path d="M66.153 41.081l-8.785-5.095-3.37-1.963-16.498-9.59-8.627-5c-2.456-1.424-4.66-1.551-6.266-.633L2.582 30.415c1.606-.918 3.81-.791 6.266.602l8.627 5 16.499 9.59 3.369 1.962 8.784 5.096c4.88 2.848 8.848 9.748 8.848 15.413v24.56c0 2.849-1.008 4.811-2.613 5.76l19.993-11.615c1.606-.918 2.582-2.912 2.582-5.76v-24.56c.063-5.634-3.904-12.565-8.784-15.382z" fill="url(#paint0_linear)"/><path d="M46.159 52.673l-8.785-5.095-3.369-1.963-16.499-9.59L9 30.978c-2.456-1.425-4.812-1.503-6.418-.553C1.008 31.34 0 33.335 0 36.152v24.56c0 5.665 3.967 12.597 8.848 15.414l28.526 16.552 8.785 5.096c2.456 1.424 4.66 1.55 6.265.601 1.606-.918 2.614-2.912 2.614-5.76v-24.56c-.032-5.634-3.999-12.565-8.88-15.382z" fill="#F3FAFA"/><path d="M8.848 36.175c-2.456-1.424-4.409-.253-4.409 2.564V63.3c0 2.12 1.102 4.558 2.645 6.267L36.713 52.38 8.848 36.175z" fill="#C7D6EC"/><path d="M37.374 52.728l-.662-.38L7.084 69.534a7.587 7.587 0 0 0 1.763 1.456l28.527 16.553c2.456 1.424 4.44.253 4.44-2.564V60.451c0-2.849-1.984-6.298-4.44-7.723z" fill="#B6C7E2"/><path d="M48.3 79.662c-2.015-1.171-3.652-.222-3.652 2.12 0 2.343 1.637 5.16 3.652 6.33 2.015 1.172 3.652.222 3.652-2.12 0-2.31-1.637-5.159-3.652-6.33zm0-13.546c-.693-.38-1.323-.538-1.858-.475-1.07.127-1.794 1.045-1.794 2.596 0 2.342 1.637 5.159 3.652 6.33 2.015 1.17 3.652.221 3.652-2.121 0-.95-.283-1.962-.724-2.912-.661-1.392-1.732-2.722-2.928-3.418z" fill="#9D79FC"/><path d="M48.3 68.142c-.347-.222-.693-.285-.976-.254-.567.064-.945.538-.945 1.361 0 1.235.85 2.722 1.92 3.324 1.071.6 1.921.126 1.921-1.108 0-.507-.126-1.013-.378-1.52-.346-.759-.913-1.455-1.542-1.803z" fill="#C7B1FF"/><path d="M17.852.76c1.732-1.013 3.621-1.013 4.22 0 .566 1.012-.347 2.658-2.11 3.67-1.763 1.014-3.621 1.014-4.22 0-.566-1.012.378-2.658 2.11-3.67z" fill="#FAFAFA"/><path d="M18.513 1.93c1.732-1.012 3.621-1.012 4.22 0L22.07.76c-.566-1.013-2.456-1.013-4.219 0-1.732 1.012-2.676 2.658-2.11 3.67l.662 1.172c-.567-1.044.378-2.69 2.11-3.671z" fill="url(#paint1_linear)"/><path d="M18.513 1.93c1.732-1.012 3.621-1.012 4.22 0 .566 1.013-.347 2.66-2.11 3.672-1.732 1.013-3.621 1.013-4.22 0-.566-1.045.379-2.69 2.11-3.671z" fill="#4A4F5B"/><path d="M19.521 3.64c.693-.412 1.417-.412 1.669 0 .22.38-.158 1.044-.819 1.424-.693.411-1.417.411-1.669 0-.252-.38.126-1.013.819-1.424z" fill="#FAFAFA"/><path d="M22.323 8.547c.693-.38 1.417-.38 1.669 0L21.19 3.673c-.22-.412-.976-.412-1.669 0-.693.38-1.07 1.044-.819 1.424l2.803 4.905c-.252-.411.126-1.076.818-1.455z" fill="url(#paint2_linear)"/><path d="M22.323 8.545c.692-.38 1.417-.38 1.668 0 .22.412-.157 1.045-.818 1.456-.693.412-1.417.412-1.669 0-.252-.411.126-1.076.819-1.456z" fill="#EDEDED"/><path d="M22.166 8.229c1.039-.601 2.172-.601 2.518 0 .347.601-.22 1.582-1.259 2.215-1.039.602-2.172.602-2.519 0-.378-.601.19-1.582 1.26-2.215z" fill="#FAFAFA"/><path d="M26.448 15.698c1.04-.601 2.173-.601 2.519 0l-4.282-7.47c-.347-.6-1.48-.6-2.52 0-1.038.602-1.605 1.583-1.258 2.216l4.282 7.438c-.378-.601.189-1.582 1.259-2.184z" fill="url(#paint3_linear)"/><path d="M26.448 15.698c1.039-.601 2.172-.601 2.519 0 .346.601-.22 1.583-1.26 2.184-1.039.601-2.172.601-2.519 0-.377-.601.19-1.583 1.26-2.184z" fill="#454545"/><path d="M26.102 15.129c1.732-1.013 3.621-1.013 4.22 0 .566 1.012-.347 2.658-2.11 3.67-1.732 1.014-3.621 1.014-4.22 0-.566-1.012.378-2.658 2.11-3.67z" fill="#FAFAFA"/><path d="M35.547 31.555c1.732-1.013 3.621-1.013 4.22 0L30.32 15.128c-.566-1.012-2.456-1.012-4.219 0-1.763 1.013-2.676 2.66-2.11 3.672l9.415 16.426c-.567-1.013.378-2.658 2.141-3.671z" fill="url(#paint4_linear)"/><path d="M35.547 31.555c1.732-1.013 3.62-1.013 4.22 0 .566 1.013-.347 2.658-2.11 3.671-1.764 1.013-3.621 1.013-4.22 0-.598-1.013.347-2.658 2.11-3.671z" fill="#454545"/><path d="M40.811 28.445l-6.489 3.768 4.725 8.221 6.489-3.767-4.725-8.222z" fill="#7F4FFE"/><path d="M34.32 32.188l-4.723 2.753 9.445 5.475-4.722-8.228z" fill="#AA89FF"/><path d="M38.097 35.48c-1.007-1.741-1.007-3.64 0-4.242 1.008-.57 2.645.348 3.653 2.12 1.007 1.741 1.007 3.64 0 4.242-1.008.57-2.645-.38-3.653-2.12z" fill="#FAFAFA"/><path d="M48.425 29.497c-1.008-1.74-1.008-3.64 0-4.24L38.097 31.27c-1.007.57-1.007 2.469 0 4.24 1.008 1.742 2.645 2.691 3.653 2.121l10.327-6.013c-1.007.57-2.645-.38-3.652-2.12z" fill="url(#paint5_linear)"/><path d="M48.425 29.497c-1.008-1.74-1.008-3.64 0-4.24 1.007-.57 2.644.348 3.652 2.12 1.008 1.74 1.008 3.64 0 4.241-1.008.57-2.645-.38-3.652-2.12z" fill="#4A4F5B"/><path d="M49.338 28.96c-.598-1.045-.598-2.184 0-2.533.599-.348 1.575.222 2.173 1.266.598 1.045.598 2.184 0 2.532-.598.348-1.574-.19-2.173-1.266z" fill="#FAFAFA"/><path d="M56.738 24.655c-.599-1.045-.599-2.184 0-2.532l-7.4 4.304c-.598.349-.598 1.488 0 2.532.599 1.045 1.575 1.614 2.173 1.266l7.4-4.272c-.6.348-1.575-.222-2.173-1.298z" fill="url(#paint6_linear)"/><path d="M56.738 24.655c-.599-1.044-.599-2.184 0-2.532.598-.348 1.574.222 2.204 1.266.598 1.044.598 2.184 0 2.532-.63.38-1.606-.19-2.204-1.266z" fill="#4A4F5B"/><path d="M57.21 24.402c-.41-.696-.41-1.424 0-1.678.377-.221 1.038.159 1.416.823.41.697.41 1.424 0 1.678-.378.221-1.039-.127-1.417-.823z" fill="#FAFAFA"/><path d="M62.058 21.586c-.378-.697-.378-1.425 0-1.678l-4.849 2.817c-.409.221-.409.981 0 1.677.378.697 1.04 1.076 1.417.855l4.88-2.817c-.409.19-1.038-.19-1.448-.854z" fill="url(#paint7_linear)"/><path d="M62.059 21.585c-.378-.696-.378-1.424 0-1.677.41-.222 1.039.158 1.448.822.41.697.41 1.425 0 1.678-.41.221-1.039-.158-1.448-.823z" fill="#EDEDED"/><path d="M61.586 21.87c-1.008-1.74-1.008-3.64 0-4.241 1.007-.57 2.645.348 3.652 2.12 1.008 1.741 1.008 3.64 0 4.241-1.039.57-2.676-.38-3.652-2.12z" fill="#FAFAFA"/><path d="M62.72 21.174c-1.008-1.741-1.008-3.64 0-4.241l-1.166.664c-1.007.57-1.007 2.469 0 4.241 1.008 1.74 2.645 2.69 3.653 2.12l1.165-.664c-1.008.601-2.645-.348-3.653-2.12z" fill="url(#paint8_linear)"/><path d="M62.72 21.174c-1.008-1.741-1.008-3.64 0-4.241 1.007-.57 2.644.348 3.652 2.12 1.007 1.74 1.007 3.64 0 4.241-1.008.601-2.645-.348-3.653-2.12z" fill="#4A4F5B"/><defs><linearGradient id="paint0_linear" x1="22.053" y1="10.449" x2="76.868" y2="90.82" gradientUnits="userSpaceOnUse"><stop stop-color="#DCEBEB"/><stop offset=".256" stop-color="#ECF4F6"/><stop offset=".531" stop-color="#DFEDF3"/><stop offset=".814" stop-color="#C9E1EF"/><stop offset="1" stop-color="#B7D6EB"/></linearGradient><linearGradient id="paint1_linear" x1="20.369" y1="3.124" x2="18.828" y2="4.597" gradientUnits="userSpaceOnUse"><stop stop-color="#4D4F59"/><stop offset=".096" stop-color="#3C3F4B"/><stop offset=".301" stop-color="#333848"/><stop offset=".397" stop-color="#2A3044"/><stop offset=".635" stop-color="#171E34"/><stop offset=".844" stop-color="#1A223C"/><stop offset="1" stop-color="#111934"/></linearGradient><linearGradient id="paint2_linear" x1="22.218" y1="7.066" x2="20.599" y2="8.046" gradientUnits="userSpaceOnUse"><stop stop-color="#4D4F59"/><stop offset=".096" stop-color="#3C3F4B"/><stop offset=".301" stop-color="#333848"/><stop offset=".397" stop-color="#2A3044"/><stop offset=".635" stop-color="#171E34"/><stop offset=".844" stop-color="#1A223C"/><stop offset="1" stop-color="#111934"/></linearGradient><linearGradient id="paint3_linear" x1="26.27" y1="13.412" x2="23.806" y2="14.902" gradientUnits="userSpaceOnUse"><stop stop-color="#4D4F59"/><stop offset=".096" stop-color="#3C3F4B"/><stop offset=".301" stop-color="#333848"/><stop offset=".397" stop-color="#2A3044"/><stop offset=".635" stop-color="#171E34"/><stop offset=".844" stop-color="#1A223C"/><stop offset="1" stop-color="#111934"/></linearGradient><linearGradient id="paint4_linear" x1="34.499" y1="26" x2="29.548" y2="28.833" gradientUnits="userSpaceOnUse"><stop stop-color="#4D4F59"/><stop offset=".096" stop-color="#3C3F4B"/><stop offset=".301" stop-color="#333848"/><stop offset=".397" stop-color="#2A3044"/><stop offset=".635" stop-color="#171E34"/><stop offset=".844" stop-color="#1A223C"/><stop offset="1" stop-color="#111934"/></linearGradient><linearGradient id="paint5_linear" x1="41.499" y1="29.5" x2="44.999" y2="36" gradientUnits="userSpaceOnUse"><stop stop-color="#4D4F59"/><stop offset=".096" stop-color="#3C3F4B"/><stop offset=".301" stop-color="#333848"/><stop offset=".397" stop-color="#2A3044"/><stop offset=".635" stop-color="#171E34"/><stop offset=".844" stop-color="#1A223C"/><stop offset="1" stop-color="#111934"/></linearGradient><linearGradient id="paint6_linear" x1="51.717" y1="24.899" x2="53.957" y2="29.224" gradientUnits="userSpaceOnUse"><stop stop-color="#4D4F59"/><stop offset=".096" stop-color="#3C3F4B"/><stop offset=".301" stop-color="#333848"/><stop offset=".397" stop-color="#2A3044"/><stop offset=".635" stop-color="#171E34"/><stop offset=".844" stop-color="#1A223C"/><stop offset="1" stop-color="#111934"/></linearGradient><linearGradient id="paint7_linear" x1="58.766" y1="21.739" x2="60.244" y2="24.591" gradientUnits="userSpaceOnUse"><stop stop-color="#4D4F59"/><stop offset=".096" stop-color="#3C3F4B"/><stop offset=".301" stop-color="#333848"/><stop offset=".397" stop-color="#2A3044"/><stop offset=".635" stop-color="#171E34"/><stop offset=".844" stop-color="#1A223C"/><stop offset="1" stop-color="#111934"/></linearGradient><linearGradient id="paint8_linear" x1="62.371" y1="19.366" x2="64.727" y2="22.251" gradientUnits="userSpaceOnUse"><stop stop-color="#4D4F59"/><stop offset=".096" stop-color="#3C3F4B"/><stop offset=".301" stop-color="#333848"/><stop offset=".397" stop-color="#2A3044"/><stop offset=".635" stop-color="#171E34"/><stop offset=".844" stop-color="#1A223C"/><stop offset="1" stop-color="#111934"/></linearGradient></defs></svg>