<svg width="106" height="97" fill="none" xmlns="http://www.w3.org/2000/svg"><path d="M85.885 46.195v31.091L52.971 96.283V57.404l32.914-11.21z" fill="#D4E3EE"/><path d="M52.97 57.404v38.88L20.114 77.285v-31.09l32.856 11.21z" fill="#EDF6FD"/><path d="M105.999 20.472v-1.475l-20.114 19.41v1.475l20.114-19.41z" fill="#C2D4E1"/><path d="M52.97 19.41L73.086 0 106 18.997l-20.115 19.41L52.971 19.41zM106 57.817l-20.115-19.41-32.914 18.997 20.114 19.41L106 57.817z" fill="#E9EFF5"/><path d="M0 20.472v-1.475l20.115 19.41v1.475L0 20.472z" fill="#C2D4E1"/><path d="M52.97 19.41L32.856 0 0 18.997l20.115 19.41L52.97 19.41z" fill="#E9EFF5"/><path d="M32.856 78.29v-1.476L0 57.817v1.475L32.856 78.29z" fill="#C2D4E1"/><path d="M52.97 58.88v-1.476l-20.114 19.41v1.475L52.97 58.88z" fill="#C2D4E1"/><path d="M52.97 58.88v-1.476l20.115 19.41v1.475L52.971 58.88zm20.115 19.41v-1.476L106 57.817v1.475L73.085 78.29z" fill="#B1C9DA"/><path d="M0 57.817l20.115-19.41L52.97 57.404l-20.115 19.41L0 57.817z" fill="#E9EFF5"/><path d="M52.97 19.41L20.114 38.407 52.97 57.404V19.41z" fill="#D4E3EE"/><path d="M52.97 19.41v37.994l32.915-18.997L52.97 19.41z" fill="#EDF6FD"/></svg>