<svg width="105" height="98" fill="none" xmlns="http://www.w3.org/2000/svg"><path d="M95.948 43.69L54.06 19.325c-2.27-1.332-4.292-1.416-5.778-.583l-45.89 26.74c1.486-.875 3.55-.75 5.778.582l41.846 24.407c4.498 2.624 8.17 9.08 8.17 14.328v7.33c0 2.624-.907 4.456-2.393 5.331l45.89-26.739c1.485-.875 2.393-2.707 2.393-5.331v-7.33c.041-5.29-3.631-11.746-8.13-14.37z" fill="url(#paint0_linear)"/><path d="M50.058 96.877c2.27 1.333 4.292 1.416 5.777.583 1.486-.875 2.394-2.707 2.394-5.331v-7.33c0-5.248-3.673-11.704-8.171-14.328L8.17 46.064c-2.27-1.332-4.292-1.416-5.777-.583C.908 46.356 0 48.188 0 50.812v7.33c0 5.249 3.673 11.704 8.171 14.328l41.887 24.407z" fill="#F3FAFA"/><path d="M23.977 66.348c-2.105 1.208-2.806 3.915-1.61 6.039 1.197 2.124 3.88 2.832 5.984 1.624 1.197-.708 1.197-2.998 0-5.081-1.238-2.166-3.177-3.29-4.374-2.582z" fill="url(#paint1_radial)"/><path d="M34.913 72.595c-2.105 1.208-2.807 3.915-1.61 6.04 1.197 2.123 3.88 2.832 5.984 1.624 1.197-.708 1.197-2.999 0-5.082-1.197-2.165-3.178-3.29-4.374-2.582z" fill="url(#paint2_radial)"/><path d="M45.848 78.843c-2.105 1.207-2.806 3.915-1.61 6.039 1.197 2.124 3.88 2.832 5.984 1.624 1.197-.708 1.197-2.999 0-5.081-1.196-2.166-3.177-3.29-4.374-2.582z" fill="url(#paint3_radial)"/><path d="M82.742 50.646c-2.889 0-5.241-1.375-5.241-3.04 0-1.667 2.352-3.041 5.241-3.041s5.241 1.374 5.241 3.04c0 1.708-2.352 3.04-5.241 3.04z" fill="#FAFAFA"/><path d="M82.742 30.03c-2.889 0-5.241-1.375-5.241-3.041v20.658c0 1.666 2.352 3.04 5.241 3.04s5.241-1.374 5.241-3.04v-20.7c0 1.708-2.352 3.082-5.241 3.082z" fill="url(#paint4_linear)"/><path d="M82.742 30.03c-2.889 0-5.241-1.375-5.241-3.041s2.352-3.04 5.241-3.04 5.241 1.374 5.241 3.04-2.352 3.04-5.241 3.04z" fill="#4A4F5B"/><path d="M82.742 28.53c-1.733 0-3.136-.833-3.136-1.833s1.403-1.832 3.136-1.832 3.136.833 3.136 1.832c0 1-1.403 1.833-3.136 1.833z" fill="#FAFAFA"/><path d="M82.742 16.118c-1.733 0-3.136-.833-3.136-1.832v12.411c0 1 1.403 1.833 3.136 1.833s3.136-.833 3.136-1.833V14.286c0 1.041-1.403 1.832-3.136 1.832z" fill="url(#paint5_linear)"/><path d="M82.742 16.118c-1.733 0-3.136-.833-3.136-1.832 0-1 1.403-1.833 3.136-1.833s3.136.833 3.136 1.833c0 1.041-1.403 1.832-3.136 1.832z" fill="#4A4F5B"/><path d="M82.742 15.369c-1.155 0-2.063-.542-2.063-1.208 0-.667.908-1.208 2.063-1.208 1.156 0 2.063.541 2.063 1.208 0 .666-.907 1.208-2.063 1.208z" fill="#FAFAFA"/><path d="M82.742 7.205c-1.155 0-2.063-.541-2.063-1.207v8.163c0 .666.908 1.208 2.063 1.208 1.156 0 2.063-.542 2.063-1.208V5.998c0 .666-.907 1.207-2.063 1.207z" fill="url(#paint6_linear)"/><path d="M82.743 7.205c-1.155 0-2.063-.541-2.063-1.207 0-.667.908-1.208 2.063-1.208 1.156 0 2.064.541 2.064 1.208 0 .666-.908 1.207-2.064 1.207z" fill="#EDEDED"/><path d="M82.742 8.038c-2.889 0-5.241-1.374-5.241-3.04s2.352-3.04 5.241-3.04 5.241 1.374 5.241 3.04-2.352 3.04-5.241 3.04z" fill="#FAFAFA"/><path d="M82.742 6.08c-2.889 0-5.241-1.374-5.241-3.04v1.958c0 1.666 2.352 3.04 5.241 3.04s5.241-1.374 5.241-3.04V3.04c0 1.708-2.352 3.04-5.241 3.04z" fill="url(#paint7_linear)"/><path d="M82.742 6.08c-2.889 0-5.241-1.374-5.241-3.04S79.853 0 82.742 0s5.241 1.374 5.241 3.04-2.352 3.04-5.241 3.04z" fill="#4A4F5B"/><path d="M38.978 34.5v3.623c14.527 0 26.33 6.873 26.33 15.37h6.19c0-10.497-14.61-18.993-32.52-18.993z" fill="#BBC9DF"/><path d="M38.978 41.705v3.624c7.676 0 13.949 3.623 13.949 8.122h6.19c0-6.498-9.037-11.746-20.139-11.746zm0 7.205v4.499h7.718c0-2.457-3.467-4.498-7.718-4.498z" fill="#BBC9DF"/><defs><linearGradient id="paint0_linear" x1="29.757" y1="10.526" x2="75.148" y2="105.148" gradientUnits="userSpaceOnUse"><stop stop-color="#DCEBEB"/><stop offset=".256" stop-color="#ECF4F6"/><stop offset=".531" stop-color="#DFEDF3"/><stop offset=".814" stop-color="#C9E1EF"/><stop offset="1" stop-color="#B7D6EB"/></linearGradient><radialGradient id="paint1_radial" cx="0" cy="0" r="1" gradientUnits="userSpaceOnUse" gradientTransform="matrix(-2.793 -4.8822 4.8596 -2.78008 25.015 69.466)"><stop stop-color="#FFCD6B"/><stop offset=".162" stop-color="#FFA96A"/><stop offset=".403" stop-color="#FF976A"/><stop offset=".692" stop-color="#FF7C6A"/><stop offset="1" stop-color="#FF3838"/></radialGradient><radialGradient id="paint2_radial" cx="0" cy="0" r="1" gradientUnits="userSpaceOnUse" gradientTransform="matrix(-2.793 -4.88218 4.8596 -2.78008 35.95 75.713)"><stop stop-color="#FFCD6B"/><stop offset=".162" stop-color="#FFA96A"/><stop offset=".403" stop-color="#FF976A"/><stop offset=".692" stop-color="#FF7C6A"/><stop offset="1" stop-color="#FF3838"/></radialGradient><radialGradient id="paint3_radial" cx="0" cy="0" r="1" gradientUnits="userSpaceOnUse" gradientTransform="matrix(-2.793 -4.88218 4.8596 -2.78008 46.886 81.96)"><stop stop-color="#FFCD6B"/><stop offset=".162" stop-color="#FFA96A"/><stop offset=".403" stop-color="#FF976A"/><stop offset=".692" stop-color="#FF7C6A"/><stop offset="1" stop-color="#FF3838"/></radialGradient><linearGradient id="paint4_linear" x1="77.514" y1="38.813" x2="87.991" y2="38.813" gradientUnits="userSpaceOnUse"><stop stop-color="#4D4F59"/><stop offset=".096" stop-color="#3C3F4B"/><stop offset=".301" stop-color="#333848"/><stop offset=".397" stop-color="#2A3044"/><stop offset=".635" stop-color="#171E34"/><stop offset=".844" stop-color="#1A223C"/><stop offset="1" stop-color="#111934"/></linearGradient><linearGradient id="paint5_linear" x1="79.614" y1="21.405" x2="85.883" y2="21.405" gradientUnits="userSpaceOnUse"><stop stop-color="#4D4F59"/><stop offset=".096" stop-color="#3C3F4B"/><stop offset=".301" stop-color="#333848"/><stop offset=".397" stop-color="#2A3044"/><stop offset=".635" stop-color="#171E34"/><stop offset=".844" stop-color="#1A223C"/><stop offset="1" stop-color="#111934"/></linearGradient><linearGradient id="paint6_linear" x1="80.684" y1="10.681" x2="84.809" y2="10.681" gradientUnits="userSpaceOnUse"><stop stop-color="#4D4F59"/><stop offset=".096" stop-color="#3C3F4B"/><stop offset=".301" stop-color="#333848"/><stop offset=".397" stop-color="#2A3044"/><stop offset=".635" stop-color="#171E34"/><stop offset=".844" stop-color="#1A223C"/><stop offset="1" stop-color="#111934"/></linearGradient><linearGradient id="paint7_linear" x1="77.514" y1="5.539" x2="87.991" y2="5.539" gradientUnits="userSpaceOnUse"><stop stop-color="#4D4F59"/><stop offset=".096" stop-color="#3C3F4B"/><stop offset=".301" stop-color="#333848"/><stop offset=".397" stop-color="#2A3044"/><stop offset=".635" stop-color="#171E34"/><stop offset=".844" stop-color="#1A223C"/><stop offset="1" stop-color="#111934"/></linearGradient></defs></svg>