<svg width="78" height="96" fill="none" xmlns="http://www.w3.org/2000/svg"><path d="M67.583 59.344l-.049 30.75c0 2.655-.976 4.49-2.489 5.358-1.512.87-3.61.724-5.953-.579L8.344 65.764C3.757 63.158 0 56.641 0 51.38l.049-40.066c0-2.655.976-4.49 2.488-5.359 1.513-.869 3.611-.724 5.954.58L51.04 30.96l16.542 28.384z" fill="#F3FAFA"/><path d="M9.467 33.47c0-.58.39-.773.878-.483l23.96 13.758c.487.29.877.965.877 1.545V55c0 .579-.39.772-.878.482L10.345 41.724c-.488-.29-.878-.965-.878-1.496V33.47zm18.298 28.143c0 .58.39 1.255.879 1.545l5.611 3.234c.488.29.879.048.879-.483v-6.758c0-.58-.39-1.255-.879-1.545l-5.611-3.234c-.488-.29-.879-.048-.879.483v6.758zM18.64 56.4c0 .579.39 1.255.879 1.544l5.66 3.234c.488.29.879.049.879-.482v-6.758c0-.58-.39-1.256-.879-1.497l-5.66-3.283c-.488-.29-.878-.048-.878.483V56.4zm-9.173-5.262c0 .579.39 1.255.878 1.544l5.66 3.235c.489.29.879.048.879-.483v-6.71c0-.58-.39-1.255-.878-1.545l-5.66-3.282c-.489-.29-.88-.048-.88.483v6.758zm18.347-11.393c0 .531.39 1.255.878 1.545l5.66 3.234c.489.29.88.049.88-.482v-6.759c0-.579-.391-1.255-.88-1.544l-5.66-3.235c-.487-.29-.878-.048-.878.483v6.758zm-9.174-5.213c0 .53.39 1.255.879 1.545l5.66 3.234c.488.29.879.048.879-.483V32.07c0-.58-.39-1.255-.879-1.497l-5.66-3.234c-.488-.29-.878-.048-.878.531v6.662zM9.467 29.27c0 .58.39 1.255.878 1.545l5.66 3.234c.489.29.879.048.879-.483v-6.71c0-.579-.39-1.255-.878-1.544l-5.66-3.235c-.489-.29-.88-.048-.88.483v6.71z" fill="#FE5566"/><path d="M60.507 25.505l-9.759 5.546 16.59 28.625 9.76-5.69-16.59-28.481z" fill="#D9EDF8"/><path d="M50.793 31.05L8.497 6.539c-2.43-1.308-4.412-1.448-5.974-.58l9.525-5.41c1.513-.87 3.611-.724 5.953.579l42.55 24.378-9.758 5.546zm26.35 22.936l-9.76 5.69.196 30.418c0 2.655-.976 4.49-2.49 5.358l9.467-5.406c1.513-.87 2.489-2.752 2.489-5.359l.098-30.701z" fill="url(#paint0_linear)"/><defs><linearGradient id="paint0_linear" x1="22.604" y1="-9.245" x2="90.735" y2="77.297" gradientUnits="userSpaceOnUse"><stop stop-color="#DCEBEB"/><stop offset=".256" stop-color="#ECF4F6"/><stop offset=".531" stop-color="#DFEDF3"/><stop offset=".814" stop-color="#C9E1EF"/><stop offset="1" stop-color="#B7D6EB"/></linearGradient></defs></svg>