<svg xmlns="http://www.w3.org/2000/svg" viewBox="0 0 17 14"><defs><style>.cls-1{fill:#fff;}</style></defs><title>burger</title><g id="Слой_2" data-name="Слой 2"><g id="Слой_1-2" data-name="Слой 1"><path class="cls-1" d="M1,0H16a1,1,0,0,1,1,1h0a1,1,0,0,1-1,1H1A1,1,0,0,1,0,1H0A1,1,0,0,1,1,0Z"/><path class="cls-1" d="M1,6H16a1,1,0,0,1,1,1h0a1,1,0,0,1-1,1H1A1,1,0,0,1,0,7H0A1,1,0,0,1,1,6Z"/><path class="cls-1" d="M1,12H16a1,1,0,0,1,1,1h0a1,1,0,0,1-1,1H1a1,1,0,0,1-1-1H0A1,1,0,0,1,1,12Z"/></g></g></svg>