<svg width="22" height="22" viewBox="0 0 22 22" fill="none" xmlns="http://www.w3.org/2000/svg">
<path d="M15.9287 0H6.07107C2.72349 0 0 2.72362 0 6.07121V15.9288C0 19.2765 2.72349 22 6.07107 22H15.9287C19.2765 22 22 19.2764 22 15.9288V6.07121C22.0001 2.72362 19.2765 0 15.9287 0ZM20.0482 15.9288C20.0482 18.2002 18.2002 20.0481 15.9288 20.0481H6.07107C3.79979 20.0482 1.95195 18.2002 1.95195 15.9288V6.07121C1.95195 3.79992 3.79979 1.95195 6.07107 1.95195H15.9287C18.2001 1.95195 20.0481 3.79992 20.0481 6.07121V15.9288H20.0482Z" fill="white"/>
<path d="M11.0001 5.33148C7.87429 5.33148 5.3313 7.87448 5.3313 11.0003C5.3313 14.126 7.87429 16.6689 11.0001 16.6689C14.126 16.6689 16.669 14.126 16.669 11.0003C16.669 7.87448 14.126 5.33148 11.0001 5.33148ZM11.0001 14.7168C8.95073 14.7168 7.28325 13.0496 7.28325 11.0002C7.28325 8.95065 8.9506 7.2833 11.0001 7.2833C13.0497 7.2833 14.717 8.95065 14.717 11.0002C14.717 13.0496 13.0496 14.7168 11.0001 14.7168Z" fill="white"/>
<path d="M16.9068 3.67629C16.5307 3.67629 16.1613 3.82854 15.8957 4.09531C15.6288 4.36077 15.4753 4.73034 15.4753 5.10772C15.4753 5.48392 15.6289 5.85336 15.8957 6.12013C16.1611 6.38559 16.5307 6.53915 16.9068 6.53915C17.2841 6.53915 17.6524 6.38559 17.9192 6.12013C18.1859 5.85336 18.3382 5.48379 18.3382 5.10772C18.3382 4.73034 18.1859 4.36077 17.9192 4.09531C17.6537 3.82854 17.2841 3.67629 16.9068 3.67629Z" fill="white"/>
</svg>
