<svg width="16" height="16" viewBox="0 0 16 16" fill="none" xmlns="http://www.w3.org/2000/svg">
<path fill-rule="evenodd" clip-rule="evenodd" d="M8 0C6.41775 0 4.87104 0.469185 3.55545 1.34824C2.23986 2.22729 1.21448 3.47673 0.608979 4.93854C0.00347757 6.40035 -0.154964 8.00888 0.153717 9.56073C0.462399 11.1126 1.22432 12.538 2.34314 13.6569C3.46196 14.7757 4.88742 15.5376 6.43927 15.8463C7.99112 16.155 9.59965 15.9965 11.0615 15.391C12.5233 14.7855 13.7727 13.7601 14.6518 12.4445C15.5308 11.129 16 9.58225 16 8C15.9976 5.879 15.154 3.84554 13.6542 2.34576C12.1545 0.845989 10.121 0.00238211 8 0ZM13.91 7H11.973C11.9288 5.62904 11.6894 4.27138 11.262 2.96799C11.9583 3.42025 12.5532 4.01214 13.009 4.70618C13.4648 5.40021 13.7716 6.18129 13.91 7ZM8 14C7.009 14 6.189 11.836 6.03 9H9.97C9.811 11.836 8.991 14 8 14ZM6.03 7C6.189 4.163 7.009 2 8 2C8.991 2 9.811 4.163 9.97 7H6.03ZM4.73801 2.96799C4.31063 4.27138 4.07122 5.62904 4.02701 7H2.09C2.22836 6.18129 2.53516 5.40021 2.99097 4.70618C3.44677 4.01214 4.04166 3.42025 4.73801 2.96799ZM2.09 9H4.02701C4.07122 10.371 4.31063 11.7286 4.73801 13.032C4.04166 12.5797 3.44677 11.9879 2.99097 11.2938C2.53516 10.5998 2.22836 9.81871 2.09 9ZM11.262 13.032C11.6894 11.7286 11.9288 10.371 11.973 9H13.91C13.7716 9.81871 13.4648 10.5998 13.009 11.2938C12.5532 11.9879 11.9583 12.5797 11.262 13.032Z" fill="white"/>
</svg>
