<svg width="106" height="97" viewBox="0 0 106 97" fill="none" xmlns="http://www.w3.org/2000/svg">
<path d="M85.8853 46.1947V77.2862L52.9705 96.2832V57.4041L85.8853 46.1947Z" fill="#D4E3EE"/>
<path d="M52.9703 57.4041V96.2832L20.1145 77.2862V46.1947L52.9703 57.4041Z" fill="#EDF6FD"/>
<path d="M106 20.472V18.9971L85.8853 38.4071V39.882L106 20.472Z" fill="#C2D4E1"/>
<path d="M52.9705 19.41L73.0851 0L106 18.9971L85.8853 38.4071L52.9705 19.41Z" fill="#E9EFF5"/>
<path d="M106 57.8171L85.8853 38.4071L52.9705 57.4042L73.0851 76.8142L106 57.8171Z" fill="#E9EFF5"/>
<path d="M0 20.472V18.9971L20.1146 38.4071V39.882L0 20.472Z" fill="#C2D4E1"/>
<path d="M52.9705 19.41L32.8558 0L0 18.9971L20.1146 38.4071L52.9705 19.41Z" fill="#E9EFF5"/>
<path d="M32.8558 78.2891V76.8142L0 57.8171V59.2921L32.8558 78.2891Z" fill="#C2D4E1"/>
<path d="M52.9703 58.8791V57.4042L32.8557 76.8142V78.2891L52.9703 58.8791Z" fill="#C2D4E1"/>
<path d="M52.9705 58.8791V57.4042L73.0851 76.8142V78.2891L52.9705 58.8791Z" fill="#B1C9DA"/>
<path d="M73.085 78.2891V76.8142L106 57.8171V59.2921L73.085 78.2891Z" fill="#B1C9DA"/>
<path d="M0 57.8171L20.1146 38.4071L52.9705 57.4042L32.8558 76.8142L0 57.8171Z" fill="#E9EFF5"/>
<path d="M52.9705 19.41L20.1146 38.4071L52.9705 57.4042V19.41Z" fill="#D4E3EE"/>
<path d="M52.9703 19.41V57.4042L85.8852 38.4071L52.9703 19.41Z" fill="#EDF6FD"/>
</svg>
