<svg width="105" height="98" viewBox="0 0 105 98" fill="none" xmlns="http://www.w3.org/2000/svg">
<path d="M95.9475 43.6905L54.0607 19.3255C51.791 17.9927 49.7689 17.9094 48.2833 18.7424L2.39355 45.4814C3.87919 44.6068 5.94258 44.7317 8.17104 46.0645L50.0165 70.4712C54.5147 73.0951 58.1875 79.5508 58.1875 84.7986V92.1289C58.1875 94.7529 57.2796 96.5854 55.794 97.4601L101.684 70.7211C103.169 69.8464 104.077 68.0138 104.077 65.3899V58.0596C104.118 52.7701 100.446 46.3144 95.9475 43.6905Z" fill="url(#paint0_linear)"/>
<path d="M50.0577 96.8767C52.3275 98.2095 54.3496 98.2928 55.8352 97.4598C57.3209 96.5852 58.2287 94.7526 58.2287 92.1287V84.7984C58.2287 79.5505 54.5559 73.0948 50.0577 70.4709L8.17101 46.0643C5.90128 44.7315 3.87916 44.6482 2.39353 45.4812C0.90789 46.3558 0 48.1884 0 50.8123V58.1426C0 63.3905 3.67283 69.8462 8.17101 72.4701L50.0577 96.8767Z" fill="#F3FAFA"/>
<path d="M23.9765 66.3477C21.8719 67.5556 21.1703 70.2628 22.3671 72.3869C23.5638 74.5111 26.2462 75.2191 28.3509 74.0113C29.5477 73.3032 29.5477 71.0125 28.3509 68.93C27.1129 66.7642 25.1733 65.6397 23.9765 66.3477Z" fill="url(#paint1_radial)"/>
<path d="M34.9126 72.5952C32.8079 73.803 32.1064 76.5102 33.3031 78.6344C34.4999 80.7585 37.1823 81.4665 39.2869 80.2587C40.4837 79.5506 40.4837 77.2599 39.2869 75.1774C38.0902 73.0117 36.1093 71.8871 34.9126 72.5952Z" fill="url(#paint2_radial)"/>
<path d="M45.8484 78.8426C43.7437 80.0505 43.0421 82.7577 44.2389 84.8818C45.4357 87.0059 48.1181 87.714 50.2227 86.5061C51.4195 85.7981 51.4195 83.5074 50.2227 81.4249C49.026 79.2591 47.0451 78.1346 45.8484 78.8426Z" fill="url(#paint3_radial)"/>
<path d="M82.7417 50.6459C79.853 50.6459 77.5007 49.2715 77.5007 47.6055C77.5007 45.9395 79.853 44.5651 82.7417 44.5651C85.6305 44.5651 87.9827 45.9395 87.9827 47.6055C87.9827 49.3131 85.6305 50.6459 82.7417 50.6459Z" fill="#FAFAFA"/>
<path d="M82.7417 30.0293C79.853 30.0293 77.5007 28.6549 77.5007 26.9889V47.6471C77.5007 49.3131 79.853 50.6875 82.7417 50.6875C85.6305 50.6875 87.9827 49.3131 87.9827 47.6471V26.9473C87.9827 28.6549 85.6305 30.0293 82.7417 30.0293Z" fill="url(#paint4_linear)"/>
<path d="M82.742 30.0293C79.8532 30.0293 77.501 28.6549 77.501 26.9889C77.501 25.3229 79.8532 23.9485 82.742 23.9485C85.6307 23.9485 87.983 25.3229 87.983 26.9889C87.983 28.6549 85.6307 30.0293 82.742 30.0293Z" fill="#4A4F5B"/>
<path d="M82.7417 28.5299C81.0085 28.5299 79.6053 27.6969 79.6053 26.6973C79.6053 25.6977 81.0085 24.8647 82.7417 24.8647C84.4749 24.8647 85.8781 25.6977 85.8781 26.6973C85.8781 27.6969 84.4749 28.5299 82.7417 28.5299Z" fill="#FAFAFA"/>
<path d="M82.7417 16.1185C81.0085 16.1185 79.6053 15.2855 79.6053 14.2859V26.6975C79.6053 27.6971 81.0085 28.53 82.7417 28.53C84.4749 28.53 85.8781 27.6971 85.8781 26.6975V14.2859C85.8781 15.3271 84.4749 16.1185 82.7417 16.1185Z" fill="url(#paint5_linear)"/>
<path d="M82.7417 16.1184C81.0085 16.1184 79.6053 15.2854 79.6053 14.2858C79.6053 13.2862 81.0085 12.4532 82.7417 12.4532C84.4749 12.4532 85.8781 13.2862 85.8781 14.2858C85.8781 15.3271 84.4749 16.1184 82.7417 16.1184Z" fill="#4A4F5B"/>
<path d="M82.7417 15.3688C81.5862 15.3688 80.6783 14.8274 80.6783 14.161C80.6783 13.4946 81.5862 12.9531 82.7417 12.9531C83.8972 12.9531 84.8051 13.4946 84.8051 14.161C84.8051 14.8274 83.8972 15.3688 82.7417 15.3688Z" fill="#FAFAFA"/>
<path d="M82.7417 7.20552C81.5862 7.20552 80.6783 6.66407 80.6783 5.99768V14.161C80.6783 14.8274 81.5862 15.3688 82.7417 15.3688C83.8972 15.3688 84.8051 14.8274 84.8051 14.161V5.99768C84.8051 6.66407 83.8972 7.20552 82.7417 7.20552Z" fill="url(#paint6_linear)"/>
<path d="M82.7422 7.20547C81.5867 7.20547 80.6788 6.66403 80.6788 5.99763C80.6788 5.33124 81.5867 4.78979 82.7422 4.78979C83.8977 4.78979 84.8056 5.33124 84.8056 5.99763C84.8056 6.66403 83.8977 7.20547 82.7422 7.20547Z" fill="#EDEDED"/>
<path d="M82.7418 8.03836C79.8531 8.03836 77.5009 6.66392 77.5009 4.99794C77.5009 3.33196 79.8531 1.95752 82.7418 1.95752C85.6306 1.95752 87.9828 3.33196 87.9828 4.99794C87.9828 6.66392 85.6306 8.03836 82.7418 8.03836Z" fill="#FAFAFA"/>
<path d="M82.7418 6.08082C79.8531 6.08082 77.5009 4.70639 77.5009 3.04041V4.99793C77.5009 6.66392 79.8531 8.03835 82.7418 8.03835C85.6306 8.03835 87.9828 6.66392 87.9828 4.99793V3.04041C87.9828 4.74804 85.6306 6.08082 82.7418 6.08082Z" fill="url(#paint7_linear)"/>
<path d="M82.7423 6.08084C79.8536 6.08084 77.5013 4.7064 77.5013 3.04042C77.5013 1.37444 79.8536 0 82.7423 0C85.6311 0 87.9833 1.37444 87.9833 3.04042C87.9833 4.7064 85.6311 6.08084 82.7423 6.08084Z" fill="#4A4F5B"/>
<path d="M38.9785 34.5V38.1235C53.5047 38.1235 65.3073 44.9957 65.3073 53.4922H71.4975C71.4975 42.9965 56.8887 34.5 38.9785 34.5Z" fill="#BBC9DF"/>
<path d="M38.9783 41.7054V45.329C46.6541 45.329 52.9268 48.9525 52.9268 53.4506H59.1169C59.1169 46.9533 50.0793 41.7054 38.9783 41.7054Z" fill="#BBC9DF"/>
<path d="M38.9783 48.9108V53.4089H46.6953C46.6953 50.9516 43.2288 48.9108 38.9783 48.9108Z" fill="#BBC9DF"/>
<defs>
<linearGradient id="paint0_linear" x1="29.7568" y1="10.5263" x2="75.1477" y2="105.148" gradientUnits="userSpaceOnUse">
<stop stop-color="#DCEBEB"/>
<stop offset="0.2556" stop-color="#ECF4F6"/>
<stop offset="0.5308" stop-color="#DFEDF3"/>
<stop offset="0.814" stop-color="#C9E1EF"/>
<stop offset="1" stop-color="#B7D6EB"/>
</linearGradient>
<radialGradient id="paint1_radial" cx="0" cy="0" r="1" gradientUnits="userSpaceOnUse" gradientTransform="translate(25.0145 69.466) rotate(-119.773) scale(5.62465 5.59862)">
<stop stop-color="#FFCD6B"/>
<stop offset="0.1622" stop-color="#FFA96A"/>
<stop offset="0.4026" stop-color="#FF976A"/>
<stop offset="0.6915" stop-color="#FF7C6A"/>
<stop offset="1" stop-color="#FF3838"/>
</radialGradient>
<radialGradient id="paint2_radial" cx="0" cy="0" r="1" gradientUnits="userSpaceOnUse" gradientTransform="translate(35.9506 75.7135) rotate(-119.773) scale(5.62464 5.59862)">
<stop stop-color="#FFCD6B"/>
<stop offset="0.1622" stop-color="#FFA96A"/>
<stop offset="0.4026" stop-color="#FF976A"/>
<stop offset="0.6915" stop-color="#FF7C6A"/>
<stop offset="1" stop-color="#FF3838"/>
</radialGradient>
<radialGradient id="paint3_radial" cx="0" cy="0" r="1" gradientUnits="userSpaceOnUse" gradientTransform="translate(46.8864 81.9609) rotate(-119.773) scale(5.62464 5.59862)">
<stop stop-color="#FFCD6B"/>
<stop offset="0.1622" stop-color="#FFA96A"/>
<stop offset="0.4026" stop-color="#FF976A"/>
<stop offset="0.6915" stop-color="#FF7C6A"/>
<stop offset="1" stop-color="#FF3838"/>
</radialGradient>
<linearGradient id="paint4_linear" x1="77.5141" y1="38.8133" x2="87.9907" y2="38.8133" gradientUnits="userSpaceOnUse">
<stop stop-color="#4D4F59"/>
<stop offset="0.0957136" stop-color="#3C3F4B"/>
<stop offset="0.3006" stop-color="#333848"/>
<stop offset="0.3969" stop-color="#2A3044"/>
<stop offset="0.6347" stop-color="#171E34"/>
<stop offset="0.8436" stop-color="#1A223C"/>
<stop offset="1" stop-color="#111934"/>
</linearGradient>
<linearGradient id="paint5_linear" x1="79.6134" y1="21.4055" x2="85.8828" y2="21.4055" gradientUnits="userSpaceOnUse">
<stop stop-color="#4D4F59"/>
<stop offset="0.0957136" stop-color="#3C3F4B"/>
<stop offset="0.3006" stop-color="#333848"/>
<stop offset="0.3969" stop-color="#2A3044"/>
<stop offset="0.6347" stop-color="#171E34"/>
<stop offset="0.8436" stop-color="#1A223C"/>
<stop offset="1" stop-color="#111934"/>
</linearGradient>
<linearGradient id="paint6_linear" x1="80.6836" y1="10.6816" x2="84.8083" y2="10.6816" gradientUnits="userSpaceOnUse">
<stop stop-color="#4D4F59"/>
<stop offset="0.0957136" stop-color="#3C3F4B"/>
<stop offset="0.3006" stop-color="#333848"/>
<stop offset="0.3969" stop-color="#2A3044"/>
<stop offset="0.6347" stop-color="#171E34"/>
<stop offset="0.8436" stop-color="#1A223C"/>
<stop offset="1" stop-color="#111934"/>
</linearGradient>
<linearGradient id="paint7_linear" x1="77.5143" y1="5.53851" x2="87.9908" y2="5.53851" gradientUnits="userSpaceOnUse">
<stop stop-color="#4D4F59"/>
<stop offset="0.0957136" stop-color="#3C3F4B"/>
<stop offset="0.3006" stop-color="#333848"/>
<stop offset="0.3969" stop-color="#2A3044"/>
<stop offset="0.6347" stop-color="#171E34"/>
<stop offset="0.8436" stop-color="#1A223C"/>
<stop offset="1" stop-color="#111934"/>
</linearGradient>
</defs>
</svg>
