<svg width="160" height="129" viewBox="0 0 160 129" fill="none" xmlns="http://www.w3.org/2000/svg">
<path d="M97.7531 20.2077C79.4201 8.40146 49.6833 8.40146 31.361 20.2077C22.1953 26.117 17.6055 33.8651 17.6055 41.6138V67.4963C17.6055 59.7482 22.1953 52 31.361 46.0903C49.6833 34.284 79.4201 34.284 97.7531 46.0903C106.863 51.9619 111.327 59.6211 111.327 67.3062V41.4231C111.327 33.7385 106.863 26.0788 97.7531 20.2077Z" fill="url(#paint0_linear)"/>
<path d="M97.7531 33.1554C79.4201 21.3492 49.6833 21.3492 31.361 33.1554C22.1953 39.0646 17.6055 46.8006 17.6055 54.5487C17.6055 62.2969 22.1953 70.045 31.361 75.9548C44.026 84.1213 62.1094 86.5058 78.148 83.3735C85.3039 81.9784 92.0969 79.5945 97.7531 75.9548C103.41 72.3151 107.101 67.9275 109.271 63.3244C110.645 60.4076 111.327 57.3897 111.327 54.3713C111.327 46.6862 106.863 39.0265 97.7531 33.1554Z" fill="url(#paint1_radial)"/>
<path d="M18.9124 71.0338C6.30431 62.9053 0 52.2659 0 41.6137V67.4963C0 78.1485 6.30431 88.7879 18.9124 96.9169C38.6313 109.624 67.8462 112.248 91.7335 105.071V79.1881C67.8462 86.3653 38.6313 83.7404 18.9124 71.0338Z" fill="url(#paint2_linear)"/>
<path d="M122.855 85.0089V59.1391C126.899 53.5212 128.944 47.4594 128.944 41.4109V67.2935C128.944 73.342 126.899 79.4037 122.855 85.0089Z" fill="#1E6EBD"/>
<path d="M91.7344 105.07V79.1882L128.867 103.13V129L91.7344 105.07Z" fill="#388EE3"/>
<path d="M128.865 129V103.13L160 83.0684V108.951L128.865 129Z" fill="#2373C1"/>
<path d="M122.857 59.1267C126.9 53.5215 128.945 47.4597 128.945 41.4112C128.945 30.8353 122.732 20.2716 110.192 12.1935C84.9979 -4.06392 44.1184 -4.06392 18.9124 12.1935C6.30431 20.3219 0 30.9614 0 41.6141C0 52.2667 6.30431 62.9057 18.9124 71.0346C38.6313 83.7413 67.8462 86.3662 91.7334 79.1885L128.865 103.13L159.999 83.0687L122.857 59.1267ZM109.272 50.3765C107.102 54.9923 103.411 59.3677 97.7542 63.0196C92.0975 66.6593 85.305 69.0432 78.1491 70.4383C62.1105 73.5579 44.0271 71.1867 31.3621 63.0196C22.1963 57.0976 17.6065 49.3617 17.6065 41.6135C17.6065 33.8654 22.1963 26.1172 31.3621 20.2075C49.6844 8.40124 79.4212 8.40124 97.7542 20.2075C106.864 26.0791 111.328 33.7383 111.328 41.4234C111.328 44.4418 110.646 47.4597 109.272 50.3765Z" fill="#2383E2"/>
<defs>
<linearGradient id="paint0_linear" x1="17.6056" y1="39.4244" x2="111.327" y2="39.4244" gradientUnits="userSpaceOnUse">
<stop stop-color="#1E6DBC"/>
<stop offset="1" stop-color="#277ED4"/>
</linearGradient>
<radialGradient id="paint1_radial" cx="0" cy="0" r="1" gradientUnits="userSpaceOnUse" gradientTransform="translate(73.6438 89.1839) scale(74.2409 82.884)">
<stop stop-color="#E0FBFD"/>
<stop offset="0.2144" stop-color="#DDFBFD"/>
<stop offset="0.3554" stop-color="#D4F9FD"/>
<stop offset="0.4753" stop-color="#C6F6FD"/>
<stop offset="0.5833" stop-color="#B0F3FD"/>
<stop offset="0.6835" stop-color="#95EEFE"/>
<stop offset="0.7778" stop-color="#73E8FE"/>
<stop offset="0.8675" stop-color="#4BE1FE"/>
<stop offset="0.9514" stop-color="#1ED9FF"/>
<stop offset="1" stop-color="#00D4FF"/>
</radialGradient>
<linearGradient id="paint2_linear" x1="-8.51154e-08" y1="62.9999" x2="92" y2="97.9999" gradientUnits="userSpaceOnUse">
<stop stop-color="#287FD5"/>
<stop offset="1" stop-color="#1E6DBB"/>
</linearGradient>
</defs>
</svg>
