<svg width="78" height="96" viewBox="0 0 78 96" fill="none" xmlns="http://www.w3.org/2000/svg">
<path d="M67.5829 59.3442L67.5341 90.0941C67.5341 92.7491 66.5582 94.5835 65.0455 95.4524C63.5328 96.3213 61.4346 96.1765 59.0923 94.8731L8.34417 65.7645C3.75732 63.1578 0 56.6409 0 51.3792L0.0487963 11.3126C0.0487963 8.65758 1.02472 6.82321 2.53741 5.9543C4.05009 5.08538 6.14834 5.2302 8.49056 6.53357L51.0409 30.9597L67.5829 59.3442Z" fill="#F3FAFA"/>
<path d="M9.46631 33.4698C9.46631 32.8905 9.85668 32.6975 10.3446 32.9871L34.3036 46.7449C34.7916 47.0345 35.182 47.7104 35.182 48.2896V54.9996C35.182 55.5788 34.7916 55.7719 34.3036 55.4823L10.3446 41.7245C9.85668 41.4349 9.46631 40.759 9.46631 40.228V33.4698ZM27.7649 61.613C27.7649 62.1922 28.1553 62.8681 28.6433 63.1577L34.2548 66.392C34.7428 66.6816 35.1332 66.4403 35.1332 65.9093V59.151C35.1332 58.5718 34.7428 57.896 34.2548 57.6063L28.6433 54.372C28.1553 54.0824 27.7649 54.3237 27.7649 54.8548V61.613ZM18.64 56.3995C18.64 56.9788 19.0304 57.6546 19.5184 57.9442L25.1787 61.1785C25.6667 61.4682 26.0571 61.2268 26.0571 60.6958V53.9376C26.0571 53.3583 25.6667 52.6825 25.1787 52.4411L19.5184 49.1585C19.0304 48.8689 18.64 49.1103 18.64 49.6413V56.3995ZM9.46631 51.1377C9.46631 51.717 9.85668 52.3928 10.3446 52.6825L16.005 55.9168C16.493 56.2064 16.8833 55.965 16.8833 55.434V48.7241C16.8833 48.1448 16.493 47.469 16.005 47.1793L10.3446 43.8968C9.85668 43.6071 9.46631 43.8485 9.46631 44.3795V51.1377ZM27.8137 39.7453C27.8137 40.2763 28.2041 41.0004 28.6921 41.29L34.3524 44.5243C34.8404 44.814 35.2308 44.5726 35.2308 44.0416V37.2834C35.2308 36.7041 34.8404 36.0283 34.3524 35.7387L28.6921 32.5044C28.2041 32.2147 27.8137 32.4561 27.8137 32.9871V39.7453ZM18.64 34.5318C18.64 35.0628 19.0304 35.7869 19.5184 36.0766L25.1787 39.3109C25.6667 39.6005 26.0571 39.3591 26.0571 38.8281V32.0699C26.0571 31.4906 25.6667 30.8148 25.1787 30.5734L19.5184 27.3392C19.0304 27.0495 18.64 27.2909 18.64 27.8702V34.5318ZM9.46631 29.2701C9.46631 29.8493 9.85668 30.5252 10.3446 30.8148L16.005 34.0491C16.493 34.3387 16.8833 34.0974 16.8833 33.5664V26.8564C16.8833 26.2771 16.493 25.6013 16.005 25.3117L10.3446 22.0774C9.85668 21.7878 9.46631 22.0291 9.46631 22.5601V29.2701Z" fill="#FE5566"/>
<path d="M60.5074 25.5049L50.748 31.0508L67.3388 59.6757L77.0981 53.9859L60.5074 25.5049Z" fill="#D9EDF8"/>
<path d="M50.7926 31.0507L8.49717 6.53839C6.0679 5.22956 4.08492 5.08955 2.52344 5.95847L12.0483 0.547681C13.561 -0.321232 15.6592 -0.176414 18.0014 1.12696L60.5518 25.5048L50.7926 31.0507ZM77.1426 53.9859L67.3834 59.6756L67.5785 90.0941C67.5785 92.7491 66.6026 94.5834 65.0899 95.4524L74.5564 90.0458C76.0691 89.1769 77.045 87.2942 77.045 84.6875L77.1426 53.9859Z" fill="url(#paint0_linear)"/>
<defs>
<linearGradient id="paint0_linear" x1="22.6035" y1="-9.24459" x2="90.735" y2="77.2966" gradientUnits="userSpaceOnUse">
<stop stop-color="#DCEBEB"/>
<stop offset="0.2556" stop-color="#ECF4F6"/>
<stop offset="0.5308" stop-color="#DFEDF3"/>
<stop offset="0.814" stop-color="#C9E1EF"/>
<stop offset="1" stop-color="#B7D6EB"/>
</linearGradient>
</defs>
</svg>
