<svg width="75" height="99" viewBox="0 0 75 99" fill="none" xmlns="http://www.w3.org/2000/svg">
<path d="M66.1526 41.0812L57.3679 35.9856L53.9989 34.0233L37.5002 24.4335L28.873 19.4328C26.417 18.0086 24.213 17.882 22.6072 18.7999L2.58203 30.4153C4.18782 29.4974 6.39186 29.624 8.84777 31.0166L17.475 36.0173L33.9737 45.6071L37.3427 47.5694L46.1274 52.6649C51.0077 55.5134 54.975 62.413 54.975 68.0783V92.6384C54.975 95.4869 53.9674 97.4492 52.3616 98.3987L72.3553 86.7832C73.9611 85.8654 74.9372 83.8715 74.9372 81.023V56.4629C75.0002 50.8293 71.0329 43.898 66.1526 41.0812Z" fill="url(#paint0_linear)"/>
<path d="M46.1587 52.6733L37.3741 47.5777L34.005 45.6155L17.5063 36.0256L9 30.9767C6.54408 29.5525 4.18766 29.4741 2.58186 30.4236C1.00756 31.3415 0 33.3354 0 36.1522V60.7123C0 66.3776 3.96725 73.3089 8.84761 76.1257L37.3741 92.6784L46.1587 97.774C48.6146 99.1982 50.8186 99.3248 52.4244 98.3754C54.0302 97.4575 55.0378 95.4636 55.0378 92.6151V68.055C55.0063 62.4214 51.039 55.4901 46.1587 52.6733Z" fill="#F3FAFA"/>
<path d="M8.84751 36.1753C6.39159 34.7511 4.43945 35.9221 4.43945 38.7389V63.299C4.43945 65.4196 5.54147 67.8566 7.08429 69.5657L36.7128 52.3799L8.84751 36.1753Z" fill="#C7D6EC"/>
<path d="M37.3741 52.7282L36.7129 52.3484L7.08447 69.5341C7.61974 70.1355 8.21797 70.6102 8.8477 70.99L37.3741 87.5427C39.8301 88.967 41.8137 87.7959 41.8137 84.9791V60.4507C41.8137 57.6022 39.8301 54.1524 37.3741 52.7282Z" fill="#B6C7E2"/>
<path d="M48.2994 79.6621C46.2842 78.491 44.647 79.4405 44.647 81.7826C44.647 84.1247 46.2842 86.9415 48.2994 88.1125C50.3145 89.2835 51.9518 88.3341 51.9518 85.992C51.9518 83.6816 50.3145 80.8331 48.2994 79.6621Z" fill="#9D79FC"/>
<path d="M48.2994 66.116C47.6067 65.7362 46.9769 65.578 46.4417 65.6412C45.3712 65.7678 44.647 66.6857 44.647 68.2365C44.647 70.5786 46.2842 73.3954 48.2994 74.5664C50.3145 75.7375 51.9518 74.788 51.9518 72.4459C51.9518 71.4964 51.6684 70.4836 51.2276 69.5342C50.5664 68.1416 49.4958 66.8123 48.2994 66.116Z" fill="#9D79FC"/>
<path d="M48.3 68.1417C47.9537 67.9202 47.6074 67.8569 47.324 67.8885C46.7572 67.9518 46.3794 68.4265 46.3794 69.2494C46.3794 70.4838 47.2295 71.9713 48.3 72.5726C49.3706 73.174 50.2207 72.6992 50.2207 71.4649C50.2207 70.9585 50.0948 70.4521 49.8429 69.9457C49.4965 69.1861 48.9298 68.4898 48.3 68.1417Z" fill="#C7B1FF"/>
<path d="M17.8527 0.759591C19.5845 -0.253197 21.4736 -0.253197 22.0719 0.759591C22.6386 1.77238 21.7255 3.41816 19.9623 4.43095C18.1991 5.44373 16.3414 5.44373 15.7431 4.43095C15.1764 3.41816 16.121 1.77238 17.8527 0.759591Z" fill="#FAFAFA"/>
<path d="M18.5139 1.93063C20.2457 0.917839 22.1348 0.917839 22.7331 1.93063L22.0719 0.759591C21.5051 -0.253197 19.6159 -0.253197 17.8527 0.759591C16.121 1.77238 15.1764 3.41816 15.7431 4.43095L16.4043 5.60198C15.8376 4.55755 16.7822 2.91176 18.5139 1.93063Z" fill="url(#paint1_linear)"/>
<path d="M18.5138 1.93061C20.2456 0.917824 22.1348 0.917824 22.733 1.93061C23.2997 2.9434 22.3866 4.58918 20.6234 5.60197C18.8917 6.61476 17.0025 6.61476 16.4043 5.60197C15.8375 4.55753 16.7821 2.91175 18.5138 1.93061Z" fill="#4A4F5B"/>
<path d="M19.5214 3.63964C20.2141 3.22819 20.9383 3.22819 21.1902 3.63964C21.4106 4.01943 21.0328 4.68408 20.3716 5.06387C19.6789 5.47532 18.9547 5.47532 18.7028 5.06387C18.4509 4.68408 18.8288 4.05108 19.5214 3.63964Z" fill="#FAFAFA"/>
<path d="M22.3237 8.54664C23.0164 8.16684 23.7406 8.16684 23.9925 8.54664L21.1902 3.6726C20.9698 3.26115 20.2141 3.26115 19.5214 3.6726C18.8288 4.05239 18.4509 4.71704 18.7028 5.09683L21.5051 10.0025C21.2532 9.59108 21.631 8.92644 22.3237 8.54664Z" fill="url(#paint2_linear)"/>
<path d="M22.3237 8.54534C23.0164 8.16555 23.7406 8.16555 23.9925 8.54534C24.2129 8.95679 23.835 9.58978 23.1738 10.0012C22.4811 10.4127 21.7569 10.4127 21.5051 10.0012C21.2532 9.58978 21.631 8.92514 22.3237 8.54534Z" fill="#EDEDED"/>
<path d="M22.1664 8.22884C23.2054 7.6275 24.3389 7.6275 24.6853 8.22884C25.0316 8.83018 24.4649 9.81132 23.4258 10.4443C22.3868 11.0457 21.2533 11.0457 20.9069 10.4443C20.5291 9.84297 21.0959 8.86183 22.1664 8.22884Z" fill="#FAFAFA"/>
<path d="M26.4492 15.6982C27.4883 15.0968 28.6218 15.0968 28.9681 15.6982L24.686 8.22884C24.3397 7.6275 23.2062 7.6275 22.1671 8.22884C21.1281 8.83018 20.5613 9.81132 20.9077 10.4443L25.1898 17.882C24.812 17.2806 25.3787 16.2995 26.4492 15.6982Z" fill="url(#paint3_linear)"/>
<path d="M26.4486 15.6982C27.4877 15.0969 28.6212 15.0969 28.9675 15.6982C29.3139 16.2995 28.7471 17.2807 27.7081 17.882C26.669 18.4834 25.5355 18.4834 25.1892 17.882C24.8113 17.2807 25.3781 16.2995 26.4486 15.6982Z" fill="#454545"/>
<path d="M26.103 15.1285C27.8347 14.1157 29.7239 14.1157 30.3221 15.1285C30.8889 16.1413 29.9758 17.7871 28.2125 18.7998C26.4808 19.8126 24.5916 19.8126 23.9934 18.7998C23.4266 17.7871 24.3712 16.1413 26.103 15.1285Z" fill="#FAFAFA"/>
<path d="M35.5479 31.5546C37.2796 30.5419 39.1688 30.5419 39.767 31.5546L30.3212 15.1285C29.7544 14.1157 27.8653 14.1157 26.102 15.1285C24.3388 16.1413 23.4257 17.7871 23.9925 18.7998L33.4068 35.226C32.8401 34.2132 33.7847 32.5674 35.5479 31.5546Z" fill="url(#paint4_linear)"/>
<path d="M35.5478 31.5546C37.2795 30.5418 39.1687 30.5418 39.7669 31.5546C40.3337 32.5674 39.4206 34.2132 37.6573 35.226C35.8941 36.2388 34.0364 36.2388 33.4382 35.226C32.84 34.2132 33.7845 32.5674 35.5478 31.5546Z" fill="#454545"/>
<path d="M40.812 28.4448L34.3232 32.2126L39.0481 40.4343L45.5369 36.6665L40.812 28.4448Z" fill="#7F4FFE"/>
<path d="M34.3201 32.1876L29.5972 34.9411L39.043 40.4165L34.3201 32.1876Z" fill="#AA89FF"/>
<path d="M38.0982 35.4794C37.0906 33.7386 37.0906 31.8397 38.0982 31.2383C39.1057 30.6686 40.743 31.5865 41.7506 33.3588C42.7581 35.0996 42.7581 36.9986 41.7506 37.5999C40.743 38.1696 39.1057 37.2201 38.0982 35.4794Z" fill="#FAFAFA"/>
<path d="M48.4257 29.4975C47.4181 27.7568 47.4181 25.8578 48.4257 25.2565L38.0982 31.2699C37.0906 31.8396 37.0906 33.7386 38.0982 35.511C39.1058 37.2517 40.743 38.2012 41.7506 37.6315L52.078 31.618C51.0705 32.1877 49.4332 31.2383 48.4257 29.4975Z" fill="url(#paint5_linear)"/>
<path d="M48.4253 29.4976C47.4178 27.7568 47.4178 25.8579 48.4253 25.2565C49.4329 24.6868 51.0702 25.6047 52.0777 27.377C53.0853 29.1178 53.0853 31.0167 52.0777 31.6181C51.0702 32.1878 49.4329 31.2383 48.4253 29.4976Z" fill="#4A4F5B"/>
<path d="M49.3388 28.9593C48.7406 27.9149 48.7406 26.7755 49.3388 26.4274C49.9371 26.0792 50.9131 26.6489 51.5114 27.6933C52.1096 28.7378 52.1096 29.8772 51.5114 30.2253C50.9131 30.5735 49.9371 30.0354 49.3388 28.9593Z" fill="#FAFAFA"/>
<path d="M56.7381 24.655C56.1398 23.6106 56.1398 22.4712 56.7381 22.123L49.3388 26.4274C48.7406 26.7755 48.7406 27.9149 49.3388 28.9594C49.9371 30.0038 50.9131 30.5735 51.5114 30.2253L58.9106 25.9527C58.3124 26.3008 57.3363 25.7311 56.7381 24.655Z" fill="url(#paint6_linear)"/>
<path d="M56.7377 24.655C56.1395 23.6106 56.1395 22.4712 56.7377 22.123C57.336 21.7749 58.312 22.3446 58.9418 23.389C59.54 24.4335 59.54 25.5729 58.9418 25.921C58.312 26.3008 57.336 25.7311 56.7377 24.655Z" fill="#4A4F5B"/>
<path d="M57.2103 24.4019C56.801 23.7056 56.801 22.9777 57.2103 22.7245C57.5881 22.5029 58.2494 22.8827 58.6272 23.5474C59.0365 24.2437 59.0365 24.9716 58.6272 25.2248C58.2494 25.4463 57.5881 25.0982 57.2103 24.4019Z" fill="#FAFAFA"/>
<path d="M62.0592 21.5856C61.6813 20.8893 61.6813 20.1614 62.0592 19.9082L57.2103 22.725C56.801 22.9466 56.801 23.7062 57.2103 24.4024C57.5881 25.0987 58.2494 25.4785 58.6272 25.257L63.5075 22.4402C63.0982 22.6301 62.4685 22.2503 62.0592 21.5856Z" fill="url(#paint7_linear)"/>
<path d="M62.0593 21.585C61.6814 20.8887 61.6814 20.1608 62.0593 19.9076C62.4686 19.686 63.0983 20.0658 63.5076 20.7305C63.9169 21.4268 63.9169 22.1547 63.5076 22.4079C63.0983 22.6295 62.4686 22.2497 62.0593 21.585Z" fill="#EDEDED"/>
<path d="M61.5867 21.8699C60.5792 20.1291 60.5792 18.2302 61.5867 17.6288C62.5943 17.0591 64.2316 17.977 65.2391 19.7494C66.2467 21.4901 66.2467 23.3891 65.2391 23.9904C64.2001 24.5601 62.5628 23.6106 61.5867 21.8699Z" fill="#FAFAFA"/>
<path d="M62.7205 21.1737C61.7129 19.4329 61.7129 17.534 62.7205 16.9326L61.5555 17.5973C60.5479 18.167 60.5479 20.0659 61.5555 21.8383C62.563 23.579 64.2003 24.5285 65.2079 23.9588L66.3729 23.2942C65.3653 23.8955 63.728 22.946 62.7205 21.1737Z" fill="url(#paint8_linear)"/>
<path d="M62.7205 21.1736C61.713 19.4329 61.713 17.5339 62.7205 16.9325C63.7281 16.3628 65.3653 17.2807 66.3729 19.0531C67.3804 20.7938 67.3804 22.6928 66.3729 23.2941C65.3653 23.8955 63.7281 22.946 62.7205 21.1736Z" fill="#4A4F5B"/>
<defs>
<linearGradient id="paint0_linear" x1="22.0531" y1="10.449" x2="76.8681" y2="90.8199" gradientUnits="userSpaceOnUse">
<stop stop-color="#DCEBEB"/>
<stop offset="0.2556" stop-color="#ECF4F6"/>
<stop offset="0.5308" stop-color="#DFEDF3"/>
<stop offset="0.814" stop-color="#C9E1EF"/>
<stop offset="1" stop-color="#B7D6EB"/>
</linearGradient>
<linearGradient id="paint1_linear" x1="20.3693" y1="3.12398" x2="18.8283" y2="4.59721" gradientUnits="userSpaceOnUse">
<stop stop-color="#4D4F59"/>
<stop offset="0.0957136" stop-color="#3C3F4B"/>
<stop offset="0.3006" stop-color="#333848"/>
<stop offset="0.3969" stop-color="#2A3044"/>
<stop offset="0.6347" stop-color="#171E34"/>
<stop offset="0.8436" stop-color="#1A223C"/>
<stop offset="1" stop-color="#111934"/>
</linearGradient>
<linearGradient id="paint2_linear" x1="22.219" y1="7.06601" x2="20.5994" y2="8.04633" gradientUnits="userSpaceOnUse">
<stop stop-color="#4D4F59"/>
<stop offset="0.0957136" stop-color="#3C3F4B"/>
<stop offset="0.3006" stop-color="#333848"/>
<stop offset="0.3969" stop-color="#2A3044"/>
<stop offset="0.6347" stop-color="#171E34"/>
<stop offset="0.8436" stop-color="#1A223C"/>
<stop offset="1" stop-color="#111934"/>
</linearGradient>
<linearGradient id="paint3_linear" x1="26.2715" y1="13.4125" x2="23.8075" y2="14.9024" gradientUnits="userSpaceOnUse">
<stop stop-color="#4D4F59"/>
<stop offset="0.0957136" stop-color="#3C3F4B"/>
<stop offset="0.3006" stop-color="#333848"/>
<stop offset="0.3969" stop-color="#2A3044"/>
<stop offset="0.6347" stop-color="#171E34"/>
<stop offset="0.8436" stop-color="#1A223C"/>
<stop offset="1" stop-color="#111934"/>
</linearGradient>
<linearGradient id="paint4_linear" x1="34.5" y1="26" x2="29.5487" y2="28.8329" gradientUnits="userSpaceOnUse">
<stop stop-color="#4D4F59"/>
<stop offset="0.0957136" stop-color="#3C3F4B"/>
<stop offset="0.3006" stop-color="#333848"/>
<stop offset="0.3969" stop-color="#2A3044"/>
<stop offset="0.6347" stop-color="#171E34"/>
<stop offset="0.8436" stop-color="#1A223C"/>
<stop offset="1" stop-color="#111934"/>
</linearGradient>
<linearGradient id="paint5_linear" x1="41.5" y1="29.5001" x2="45" y2="36.0001" gradientUnits="userSpaceOnUse">
<stop stop-color="#4D4F59"/>
<stop offset="0.0957136" stop-color="#3C3F4B"/>
<stop offset="0.3006" stop-color="#333848"/>
<stop offset="0.3969" stop-color="#2A3044"/>
<stop offset="0.6347" stop-color="#171E34"/>
<stop offset="0.8436" stop-color="#1A223C"/>
<stop offset="1" stop-color="#111934"/>
</linearGradient>
<linearGradient id="paint6_linear" x1="51.7173" y1="24.8994" x2="53.9579" y2="29.2244" gradientUnits="userSpaceOnUse">
<stop stop-color="#4D4F59"/>
<stop offset="0.0957136" stop-color="#3C3F4B"/>
<stop offset="0.3006" stop-color="#333848"/>
<stop offset="0.3969" stop-color="#2A3044"/>
<stop offset="0.6347" stop-color="#171E34"/>
<stop offset="0.8436" stop-color="#1A223C"/>
<stop offset="1" stop-color="#111934"/>
</linearGradient>
<linearGradient id="paint7_linear" x1="58.7666" y1="21.7396" x2="60.2453" y2="24.5914" gradientUnits="userSpaceOnUse">
<stop stop-color="#4D4F59"/>
<stop offset="0.0957136" stop-color="#3C3F4B"/>
<stop offset="0.3006" stop-color="#333848"/>
<stop offset="0.3969" stop-color="#2A3044"/>
<stop offset="0.6347" stop-color="#171E34"/>
<stop offset="0.8436" stop-color="#1A223C"/>
<stop offset="1" stop-color="#111934"/>
</linearGradient>
<linearGradient id="paint8_linear" x1="62.3722" y1="19.3662" x2="64.7278" y2="22.2513" gradientUnits="userSpaceOnUse">
<stop stop-color="#4D4F59"/>
<stop offset="0.0957136" stop-color="#3C3F4B"/>
<stop offset="0.3006" stop-color="#333848"/>
<stop offset="0.3969" stop-color="#2A3044"/>
<stop offset="0.6347" stop-color="#171E34"/>
<stop offset="0.8436" stop-color="#1A223C"/>
<stop offset="1" stop-color="#111934"/>
</linearGradient>
</defs>
</svg>
