<svg width="214" height="191" viewBox="0 0 214 191" fill="none" xmlns="http://www.w3.org/2000/svg">
<path d="M8.60044 139.577L60.5854 169.941C71.9654 176.539 89.7923 175.774 101.204 169.207L110.239 164.016L205.405 109.259C211.095 105.975 213.972 101.66 213.972 97.3441C213.972 92.9973 211.127 88.6817 205.437 85.3982L154.164 55.6897C142.784 49.0913 124.245 49.06 112.802 55.6272L17.6044 110.385L8.60044 115.576C2.87918 118.859 0.034185 123.175 0.034185 127.49C0.00292132 131.806 2.91044 136.293 8.60044 139.577Z" fill="#E9F8FF"/>
<path d="M50.0534 145.19C46.8957 143.345 41.8623 143.22 38.4545 144.815C38.2357 144.94 38.0168 145.034 37.798 145.159C37.5479 145.315 37.329 145.441 37.1415 145.597C35.8909 146.504 35.2344 147.598 35.2344 148.693C35.2344 149.975 36.0785 151.257 37.7667 152.227C40.9244 154.072 45.864 154.165 49.2718 152.633C49.5219 152.508 49.772 152.383 50.0221 152.258C50.2409 152.133 50.4285 152.008 50.6161 151.883C51.8979 150.976 52.5545 149.85 52.5545 148.724C52.5857 147.442 51.7416 146.16 50.0534 145.19Z" fill="#BBE9FF"/>
<path d="M163.072 69.7933L181.017 80.2069C182.455 81.0512 184.737 81.0512 186.207 80.2069C186.926 79.8004 187.27 79.2687 187.27 78.7058C187.27 78.1742 186.895 77.6113 186.207 77.2361L168.261 66.8225C166.823 65.9781 164.51 65.9781 163.072 66.8225C162.353 67.229 162.009 67.7606 162.009 68.3235C161.977 68.8239 162.353 69.3868 163.072 69.7933Z" fill="#BBE9FF"/>
<path d="M195.054 103.286C197.899 101.628 199.337 99.4706 199.337 97.3128C199.337 95.155 197.931 92.966 195.086 91.3398L143.813 61.6314C138.123 58.3166 128.838 58.3166 123.148 61.6001L46.583 105.631L190.584 105.85L195.054 103.286Z" fill="#D6F2FF"/>
<path d="M46.583 105.631L27.9499 116.358C25.1049 118.015 23.6667 120.173 23.6667 122.331C23.6667 124.488 25.0736 126.646 27.9186 128.303L79.1911 158.012C84.8811 161.327 94.1664 161.327 99.8876 158.043L190.548 105.785L46.583 105.631Z" fill="#BBE9FF"/>
<path d="M205.402 109.259L110.205 164.047L101.169 169.239C89.7581 175.806 71.2187 175.774 59.8075 169.176L8.53499 139.468C2.87626 136.153 0 131.806 0.0312637 127.49L0 144.346C0 148.662 2.845 153.008 8.53499 156.292L59.8075 186.032C71.1874 192.63 89.7581 192.661 101.169 186.094L110.205 180.903L205.402 126.146C211.092 122.862 213.969 118.547 213.969 114.2L214 97.3441C213.937 101.66 211.092 105.975 205.402 109.259Z" fill="#C0E8FF"/>
<path d="M56.8372 119.235L65.4034 124.207L73.6883 99.8771L65.122 94.9362L56.8372 119.235Z" fill="#15B07D"/>
<path d="M98.6057 8.96931C115.113 -0.506113 129.651 -2.28862 138.373 2.74618L146.939 7.71843C138.217 2.68363 123.679 4.46614 107.172 13.9416C80.4415 29.3274 58.7445 59.1297 58.7132 80.551C58.7132 88.713 61.8708 94.4671 67.2795 97.5943L58.6819 92.622C53.3046 89.4948 50.1157 83.7408 50.147 75.5788C50.147 54.1574 71.8752 24.3552 98.6057 8.96931Z" fill="#15B07D"/>
<path d="M73.6885 99.8772C71.2812 99.4081 69.1552 98.6576 67.2481 97.5631C61.8395 94.4359 58.6819 88.6818 58.6819 80.5198C58.7131 59.1297 80.4102 29.2962 107.141 13.9104C123.648 4.43493 138.185 2.65242 146.908 7.68722C152.317 10.8457 155.506 16.5998 155.474 24.793C155.443 46.1831 133.746 75.9854 107.016 91.3712C100.012 95.4053 93.3846 98.0009 87.382 99.3143L65.3723 124.176L73.6885 99.8772Z" fill="#12C78C"/>
<path d="M106.953 42.5242C109.392 41.1482 111.58 40.9919 113.175 41.93L119.334 45.495C117.739 44.5882 115.551 44.7132 113.112 46.1205C108.266 48.9037 104.327 55.721 104.296 61.3187C104.296 64.1332 105.265 66.1033 106.859 67.0102L100.7 63.4452C99.1059 62.507 98.1367 60.5682 98.1367 57.7537C98.1367 52.1247 102.076 45.3074 106.953 42.5242Z" fill="white"/>
<path d="M121.866 51.1866C121.866 56.7843 117.926 63.6016 113.049 66.3848C110.642 67.7607 108.422 67.9171 106.859 66.9789C105.265 66.0408 104.295 64.1019 104.295 61.2874C104.295 55.6897 108.266 48.8724 113.112 46.0892C115.55 44.682 117.739 44.5569 119.333 45.4638C120.896 46.4019 121.897 48.3721 121.866 51.1866Z" fill="#F0F0F0"/>
<path d="M129.901 32.1418C131.683 31.1098 133.308 31.016 134.465 31.704L138.998 34.3309C137.842 33.6429 136.216 33.7367 134.434 34.7687C130.87 36.8014 127.962 41.8049 127.962 45.9328C127.962 47.9967 128.681 49.4353 129.838 50.1232L125.305 47.4964C124.148 46.8084 123.429 45.3699 123.429 43.3059C123.429 39.2093 126.305 34.2058 129.901 32.1418Z" fill="white"/>
<path d="M140.843 38.49C140.843 42.618 137.936 47.5902 134.371 49.6542C132.589 50.6861 130.964 50.78 129.807 50.092C128.619 49.404 127.931 47.9655 127.931 45.9015C127.931 41.8049 130.839 36.8014 134.403 34.7374C136.185 33.7054 137.81 33.6116 138.967 34.2996C140.155 34.9876 140.874 36.4261 140.843 38.49Z" fill="#F0F0F0"/>
<path d="M84.1305 58.1914C85.9126 57.1594 87.5383 57.0656 88.695 57.7223L93.2283 60.3492C92.0402 59.6925 90.4458 59.7863 88.6638 60.8183C85.0997 62.8509 82.1922 67.8545 82.1922 71.9824C82.1922 74.0463 82.9112 75.4848 84.068 76.1416L79.5348 73.546C78.378 72.858 77.6589 71.4195 77.6589 69.3555C77.6589 65.2589 80.5665 60.2554 84.1305 58.1914Z" fill="white"/>
<path d="M95.104 64.571C95.104 68.6676 92.1965 73.6711 88.6325 75.7351C86.8504 76.7671 85.2247 76.8609 84.068 76.1729C82.8799 75.5162 82.1921 74.0464 82.1921 72.0137C82.1921 67.9171 85.0997 62.9136 88.6637 60.8496C90.4458 59.8176 92.0715 59.7238 93.2282 60.3805C94.385 61.0685 95.104 62.507 95.104 64.571Z" fill="#F0F0F0"/>
</svg>
