<svg width="78" height="96" viewBox="0 0 78 96" fill="none" xmlns="http://www.w3.org/2000/svg">
<path d="M67.5829 59.3441L67.5341 90.094C67.5341 92.749 66.5582 94.5834 65.0455 95.4523C63.5328 96.3212 61.4346 96.1764 59.0923 94.873L8.34417 65.7644C3.75732 63.1577 0 56.6409 0 51.3791L0.0487963 11.3125C0.0487963 8.65752 1.02472 6.82315 2.53741 5.95424C4.05009 5.08532 6.14834 5.23014 8.49056 6.53351L51.0409 30.9596L67.5829 59.3441Z" fill="#F3FAFA"/>
<path d="M9.4668 33.4698C9.4668 32.8905 9.85717 32.6975 10.3451 32.9871L34.3041 46.7449C34.7921 47.0345 35.1825 47.7104 35.1825 48.2896V54.9996C35.1825 55.5788 34.7921 55.7719 34.3041 55.4823L10.3451 41.7245C9.85717 41.4349 9.4668 40.759 9.4668 40.228V33.4698ZM27.7654 61.613C27.7654 62.1922 28.1558 62.8681 28.6438 63.1577L34.2553 66.392C34.7433 66.6816 35.1337 66.4403 35.1337 65.9093V59.151C35.1337 58.5718 34.7433 57.896 34.2553 57.6063L28.6438 54.372C28.1558 54.0824 27.7654 54.3237 27.7654 54.8548V61.613ZM18.6405 56.3995C18.6405 56.9788 19.0309 57.6546 19.5188 57.9442L25.1792 61.1785C25.6672 61.4682 26.0575 61.2268 26.0575 60.6958V53.9376C26.0575 53.3583 25.6672 52.6825 25.1792 52.4411L19.5188 49.1585C19.0309 48.8689 18.6405 49.1103 18.6405 49.6413V56.3995ZM9.4668 51.1377C9.4668 51.717 9.85717 52.3928 10.3451 52.6825L16.0055 55.9168C16.4935 56.2064 16.8838 55.965 16.8838 55.434V48.7241C16.8838 48.1448 16.4935 47.469 16.0055 47.1793L10.3451 43.8968C9.85717 43.6071 9.4668 43.8485 9.4668 44.3795V51.1377ZM27.8142 39.7453C27.8142 40.2763 28.2046 41.0004 28.6925 41.29L34.3529 44.5243C34.8409 44.814 35.2313 44.5726 35.2313 44.0416V37.2834C35.2313 36.7041 34.8409 36.0283 34.3529 35.7387L28.6925 32.5044C28.2046 32.2147 27.8142 32.4561 27.8142 32.9871V39.7453ZM18.6405 34.5318C18.6405 35.0628 19.0309 35.7869 19.5188 36.0766L25.1792 39.3109C25.6672 39.6005 26.0575 39.3591 26.0575 38.8281V32.0699C26.0575 31.4906 25.6672 30.8148 25.1792 30.5734L19.5188 27.3392C19.0309 27.0495 18.6405 27.2909 18.6405 27.8702V34.5318ZM9.4668 29.2701C9.4668 29.8493 9.85717 30.5252 10.3451 30.8148L16.0055 34.0491C16.4935 34.3387 16.8838 34.0974 16.8838 33.5664V26.8564C16.8838 26.2771 16.4935 25.6013 16.0055 25.3117L10.3451 22.0774C9.85717 21.7878 9.4668 22.0291 9.4668 22.5601V29.2701Z" fill="#FE5566"/>
<path d="M60.5074 25.5048L50.748 31.0507L67.3388 59.6756L77.0981 53.9859L60.5074 25.5048Z" fill="#D9EDF8"/>
<path d="M50.7926 31.0507L8.49717 6.53839C6.0679 5.22956 4.08492 5.08955 2.52344 5.95847L12.0483 0.547681C13.561 -0.321232 15.6592 -0.176414 18.0014 1.12696L60.5518 25.5048L50.7926 31.0507ZM77.1426 53.9859L67.3834 59.6756L67.5785 90.0941C67.5785 92.7491 66.6026 94.5834 65.0899 95.4524L74.5564 90.0458C76.0691 89.1769 77.045 87.2942 77.045 84.6875L77.1426 53.9859Z" fill="url(#paint0_linear)"/>
<defs>
<linearGradient id="paint0_linear" x1="22.6035" y1="-9.24459" x2="90.735" y2="77.2966" gradientUnits="userSpaceOnUse">
<stop stop-color="#DCEBEB"/>
<stop offset="0.2556" stop-color="#ECF4F6"/>
<stop offset="0.5308" stop-color="#DFEDF3"/>
<stop offset="0.814" stop-color="#C9E1EF"/>
<stop offset="1" stop-color="#B7D6EB"/>
</linearGradient>
</defs>
</svg>
