<svg xmlns="http://www.w3.org/2000/svg" xmlns:xlink="http://www.w3.org/1999/xlink" viewBox="0 0 77.14 96"><defs><style>.cls-1{fill:#f3fafa;}.cls-2{fill:#fe5566;}.cls-3{fill:#d9edf8;}.cls-4{fill:url(#Безымянный_градиент);}</style><linearGradient id="Безымянный_градиент" x1="13.54" y1="100.11" x2="81.68" y2="13.57" gradientTransform="matrix(1, 0, 0, -1, 0, 98)" gradientUnits="userSpaceOnUse"><stop offset="0" stop-color="#dcebeb"/><stop offset="0.26" stop-color="#ecf4f6"/><stop offset="0.53" stop-color="#dfedf3"/><stop offset="0.81" stop-color="#c9e1ef"/><stop offset="1" stop-color="#b7d6eb"/></linearGradient></defs><title>item-3</title><g id="Слой_2" data-name="Слой 2"><g id="Слой_1-2" data-name="Слой 1"><path class="cls-1" d="M67.58,59.34l0,30.75c0,2.65-1,4.49-2.49,5.36s-3.61.72-6-.58L8.34,65.76C3.76,63.16,0,56.64,0,51.38L0,11.31C0,8.66,1,6.82,2.54,6s3.61-.72,6,.58L51,31Z"/><path class="cls-2" d="M9.47,33.47c0-.58.39-.77.88-.48l24,13.76a2,2,0,0,1,.88,1.54V55c0,.58-.39.77-.88.48l-24-13.76a2,2,0,0,1-.88-1.5Zm18.3,28.14a2,2,0,0,0,.88,1.54l5.61,3.23c.49.29.88,0,.88-.48V59.15a2,2,0,0,0-.88-1.54l-5.61-3.23c-.49-.29-.88,0-.88.48ZM18.64,56.4a2,2,0,0,0,.88,1.54l5.66,3.23c.49.29.88,0,.88-.48V53.94a1.81,1.81,0,0,0-.88-1.5l-5.66-3.28c-.49-.29-.88,0-.88.48ZM9.47,51.14a2,2,0,0,0,.88,1.54L16,55.92c.49.29.88,0,.88-.48V48.72A2,2,0,0,0,16,47.18L10.35,43.9c-.49-.29-.88,0-.88.48ZM27.81,39.75a2,2,0,0,0,.88,1.54l5.66,3.23c.49.29.88,0,.88-.48V37.28a2,2,0,0,0-.88-1.54L28.69,32.5c-.49-.29-.88,0-.88.48Zm-9.17-5.21a2,2,0,0,0,.88,1.54l5.66,3.23c.49.29.88,0,.88-.48V32.07a1.81,1.81,0,0,0-.88-1.5l-5.66-3.23c-.49-.29-.88,0-.88.53ZM9.47,29.27a2,2,0,0,0,.88,1.54L16,34c.49.29.88,0,.88-.48V26.86A2,2,0,0,0,16,25.31l-5.66-3.23c-.49-.29-.88,0-.88.48Z"/><path class="cls-3" d="M60.51,25.5l-9.76,5.55L67.34,59.68,77.1,54Z"/><path class="cls-4" d="M50.79,31.05,8.5,6.54C6.07,5.23,4.08,5.09,2.52,6L12,.55c1.51-.87,3.61-.72,6,.58L60.55,25.5ZM77.14,54l-9.76,5.69.2,30.42c0,2.65-1,4.49-2.49,5.36L74.56,90c1.51-.87,2.49-2.75,2.49-5.36Z"/></g></g></svg>