<svg xmlns="http://www.w3.org/2000/svg" xmlns:xlink="http://www.w3.org/1999/xlink" viewBox="0 0 74.94 98.99"><defs><style>.cls-1{fill:url(#Безымянный_градиент);}.cls-2{fill:#f3fafa;}.cls-3{fill:#c7d6ec;}.cls-4{fill:#b6c7e2;}.cls-5{fill:#9d79fc;}.cls-6{fill:#c7b1ff;}.cls-7{fill:#fafafa;}.cls-8{fill:url(#Безымянный_градиент_9);}.cls-9{fill:#4a4f5b;}.cls-10{fill:url(#Безымянный_градиент_9-2);}.cls-11{fill:#ededed;}.cls-12{fill:url(#Безымянный_градиент_9-3);}.cls-13{fill:#454545;}.cls-14{fill:url(#Безымянный_градиент_9-4);}.cls-15{fill:#7f4ffe;}.cls-16{fill:#aa89ff;}.cls-17{fill:url(#Безымянный_градиент_9-5);}.cls-18{fill:url(#Безымянный_градиент_9-6);}.cls-19{fill:url(#Безымянный_градиент_9-7);}.cls-20{fill:url(#Безымянный_градиент_9-8);}</style><linearGradient id="Безымянный_градиент" x1="19.3" y1="87.67" x2="74.11" y2="7.3" gradientTransform="matrix(1, 0, 0, -1, 0, 100)" gradientUnits="userSpaceOnUse"><stop offset="0" stop-color="#dcebeb"/><stop offset="0.26" stop-color="#ecf4f6"/><stop offset="0.53" stop-color="#dfedf3"/><stop offset="0.81" stop-color="#c9e1ef"/><stop offset="1" stop-color="#b7d6eb"/></linearGradient><linearGradient id="Безымянный_градиент_9" x1="19.39" y1="97.9" x2="17.84" y2="96.43" gradientTransform="matrix(1, 0, 0, -1, 0, 100)" gradientUnits="userSpaceOnUse"><stop offset="0" stop-color="#4d4f59"/><stop offset="0.1" stop-color="#3c3f4b"/><stop offset="0.3" stop-color="#333848"/><stop offset="0.4" stop-color="#2a3044"/><stop offset="0.63" stop-color="#171e34"/><stop offset="0.84" stop-color="#1a223c"/><stop offset="1" stop-color="#111934"/></linearGradient><linearGradient id="Безымянный_градиент_9-2" x1="21.67" y1="93.84" x2="20.05" y2="92.86" xlink:href="#Безымянный_градиент_9"/><linearGradient id="Безымянный_градиент_9-3" x1="25.44" y1="87.96" x2="22.98" y2="86.47" xlink:href="#Безымянный_градиент_9"/><linearGradient id="Безымянный_градиент_9-4" x1="32.97" y1="76.67" x2="28.02" y2="73.83" xlink:href="#Безымянный_градиент_9"/><linearGradient id="Безымянный_градиент_9-5" x1="42.58" y1="71.08" x2="46.08" y2="64.58" xlink:href="#Безымянный_градиент_9"/><linearGradient id="Безымянный_градиент_9-6" x1="52.57" y1="75.54" x2="54.81" y2="71.22" xlink:href="#Безымянный_градиент_9"/><linearGradient id="Безымянный_градиент_9-7" x1="59.33" y1="78.55" x2="60.81" y2="75.7" xlink:href="#Безымянный_градиент_9"/><linearGradient id="Безымянный_градиент_9-8" x1="62.19" y1="80.49" x2="64.55" y2="77.6" xlink:href="#Безымянный_градиент_9"/></defs><title>item-4</title><g id="Слой_2" data-name="Слой 2"><g id="Слой_1-2" data-name="Слой 1"><path class="cls-1" d="M66.15,41.08,57.37,36,54,34,37.5,24.43l-8.63-5c-2.46-1.42-4.66-1.55-6.27-.63l-20,11.62c1.61-.92,3.81-.79,6.27.6l8.63,5L34,45.61l3.37,2,8.78,5.1C51,55.51,55,62.41,55,68.08V92.64c0,2.85-1,4.81-2.61,5.76l20-11.62c1.61-.92,2.58-2.91,2.58-5.76V56.46C75,50.83,71,43.9,66.15,41.08Z"/><path class="cls-2" d="M46.16,52.67l-8.78-5.1-3.37-2L17.51,36,9,31c-2.46-1.42-4.81-1.5-6.42-.55S0,33.34,0,36.15V60.71c0,5.67,4,12.6,8.85,15.41L37.37,92.68l8.78,5.1c2.46,1.42,4.66,1.55,6.27.6S55,95.46,55,92.62V68.06C55,62.42,51,55.49,46.16,52.67Z"/><path class="cls-3" d="M8.85,36.18c-2.46-1.42-4.41-.25-4.41,2.56V63.3a10,10,0,0,0,2.64,6.27L36.71,52.38Z"/><path class="cls-4" d="M37.37,52.73l-.66-.38L7.08,69.53A7.59,7.59,0,0,0,8.85,71L37.37,87.54c2.46,1.42,4.44.25,4.44-2.56V60.45A9.85,9.85,0,0,0,37.37,52.73Z"/><path class="cls-5" d="M48.3,79.66c-2-1.17-3.65-.22-3.65,2.12a8.08,8.08,0,0,0,3.65,6.33c2,1.17,3.65.22,3.65-2.12A8.12,8.12,0,0,0,48.3,79.66Z"/><path class="cls-5" d="M48.3,66.12a3.18,3.18,0,0,0-1.86-.47c-1.07.13-1.79,1-1.79,2.6a8.08,8.08,0,0,0,3.65,6.33c2,1.17,3.65.22,3.65-2.12a7.09,7.09,0,0,0-.72-2.91A8,8,0,0,0,48.3,66.12Z"/><path class="cls-6" d="M48.3,68.14a1.51,1.51,0,0,0-1-.25c-.57.06-.94.54-.94,1.36a4.18,4.18,0,0,0,1.92,3.32c1.07.6,1.92.13,1.92-1.11a3.38,3.38,0,0,0-.38-1.52A4,4,0,0,0,48.3,68.14Z"/><path class="cls-7" d="M17.85.76c1.73-1,3.62-1,4.22,0S21.73,3.42,20,4.43s-3.62,1-4.22,0S16.12,1.77,17.85.76Z"/><path class="cls-8" d="M18.51,1.93c1.73-1,3.62-1,4.22,0L22.07.76c-.57-1-2.46-1-4.22,0s-2.68,2.66-2.11,3.67L16.4,5.6C15.84,4.56,16.78,2.91,18.51,1.93Z"/><path class="cls-9" d="M18.51,1.93c1.73-1,3.62-1,4.22,0s-.35,2.66-2.11,3.67-3.62,1-4.22,0S16.78,2.91,18.51,1.93Z"/><path class="cls-7" d="M19.52,3.64c.69-.41,1.42-.41,1.67,0s-.16,1-.82,1.42-1.42.41-1.67,0S18.83,4.05,19.52,3.64Z"/><path class="cls-10" d="M22.32,8.55c.69-.38,1.42-.38,1.67,0l-2.8-4.87c-.22-.41-1-.41-1.67,0s-1.07,1-.82,1.42L21.5,10C21.25,9.59,21.63,8.93,22.32,8.55Z"/><path class="cls-11" d="M22.32,8.55c.69-.38,1.42-.38,1.67,0s-.16,1-.82,1.46-1.42.41-1.67,0S21.63,8.93,22.32,8.55Z"/><path class="cls-7" d="M22.17,8.23c1-.6,2.17-.6,2.52,0s-.22,1.58-1.26,2.22-2.17.6-2.52,0S21.1,8.86,22.17,8.23Z"/><path class="cls-12" d="M26.45,15.7c1-.6,2.17-.6,2.52,0L24.68,8.23c-.35-.6-1.48-.6-2.52,0s-1.61,1.58-1.26,2.22l4.28,7.44C24.81,17.28,25.38,16.3,26.45,15.7Z"/><path class="cls-13" d="M26.45,15.7c1-.6,2.17-.6,2.52,0s-.22,1.58-1.26,2.18-2.17.6-2.52,0S25.38,16.3,26.45,15.7Z"/><path class="cls-7" d="M26.1,15.13c1.73-1,3.62-1,4.22,0S30,17.79,28.21,18.8s-3.62,1-4.22,0S24.37,16.14,26.1,15.13Z"/><path class="cls-14" d="M35.55,31.55c1.73-1,3.62-1,4.22,0L30.32,15.13c-.57-1-2.46-1-4.22,0S23.42,17.79,24,18.8l9.41,16.43C32.84,34.21,33.78,32.57,35.55,31.55Z"/><path class="cls-13" d="M35.55,31.55c1.73-1,3.62-1,4.22,0s-.35,2.66-2.11,3.67-3.62,1-4.22,0S33.78,32.57,35.55,31.55Z"/><path class="cls-15" d="M40.81,28.44l-6.49,3.77L39,40.43l6.49-3.77Z"/><path class="cls-16" d="M34.32,32.19,29.6,34.94,39,40.42Z"/><path class="cls-7" d="M38.1,35.48c-1-1.74-1-3.64,0-4.24s2.64.35,3.65,2.12,1,3.64,0,4.24S39.1,37.22,38.1,35.48Z"/><path class="cls-17" d="M48.42,29.5c-1-1.74-1-3.64,0-4.24l-10.33,6c-1,.57-1,2.47,0,4.24s2.64,2.69,3.65,2.12l10.33-6C51.07,32.19,49.43,31.24,48.42,29.5Z"/><path class="cls-9" d="M48.42,29.5c-1-1.74-1-3.64,0-4.24s2.64.35,3.65,2.12,1,3.64,0,4.24S49.43,31.24,48.42,29.5Z"/><path class="cls-7" d="M49.34,29c-.6-1-.6-2.18,0-2.53s1.57.22,2.17,1.27.6,2.18,0,2.53S49.94,30,49.34,29Z"/><path class="cls-18" d="M56.74,24.66c-.6-1-.6-2.18,0-2.53l-7.4,4.3c-.6.35-.6,1.49,0,2.53s1.57,1.61,2.17,1.27L58.91,26C58.31,26.3,57.34,25.73,56.74,24.66Z"/><path class="cls-9" d="M56.74,24.66c-.6-1-.6-2.18,0-2.53s1.57.22,2.2,1.27.6,2.18,0,2.53S57.34,25.73,56.74,24.66Z"/><path class="cls-7" d="M57.21,24.4c-.41-.7-.41-1.42,0-1.68s1,.16,1.42.82.41,1.42,0,1.68S57.59,25.1,57.21,24.4Z"/><path class="cls-19" d="M62.06,21.59c-.38-.7-.38-1.42,0-1.68l-4.85,2.82c-.41.22-.41,1,0,1.68s1,1.08,1.42.85l4.88-2.82C63.1,22.63,62.47,22.25,62.06,21.59Z"/><path class="cls-11" d="M62.06,21.59c-.38-.7-.38-1.42,0-1.68s1,.16,1.45.82.41,1.42,0,1.68S62.47,22.25,62.06,21.59Z"/><path class="cls-7" d="M61.59,21.87c-1-1.74-1-3.64,0-4.24s2.64.35,3.65,2.12,1,3.64,0,4.24S62.56,23.61,61.59,21.87Z"/><path class="cls-20" d="M62.72,21.17c-1-1.74-1-3.64,0-4.24l-1.17.66c-1,.57-1,2.47,0,4.24S64.2,24.53,65.21,24l1.17-.66C65.36,23.9,63.73,22.95,62.72,21.17Z"/><path class="cls-9" d="M62.72,21.17c-1-1.74-1-3.64,0-4.24s2.64.35,3.65,2.12,1,3.64,0,4.24S63.73,22.95,62.72,21.17Z"/></g></g></svg>