<svg xmlns="http://www.w3.org/2000/svg" xmlns:xlink="http://www.w3.org/1999/xlink" viewBox="0 0 104.08 98"><defs><style>.cls-1{fill:url(#Безымянный_градиент);}.cls-2{fill:#f3fafa;}.cls-3{fill:url(#Безымянный_градиент_4);}.cls-4{fill:url(#Безымянный_градиент_4-2);}.cls-5{fill:url(#Безымянный_градиент_4-3);}.cls-6{fill:#fafafa;}.cls-7{fill:url(#Безымянный_градиент_8);}.cls-8{fill:#4a4f5b;}.cls-9{fill:url(#Безымянный_градиент_8-2);}.cls-10{fill:url(#Безымянный_градиент_8-3);}.cls-11{fill:#ededed;}.cls-12{fill:url(#Безымянный_градиент_8-4);}.cls-13{fill:#bbc9df;}</style><linearGradient id="Безымянный_градиент" x1="33.42" y1="91.23" x2="78.81" y2="-3.39" gradientTransform="matrix(1, 0, 0, -1, 0, 100)" gradientUnits="userSpaceOnUse"><stop offset="0" stop-color="#dcebeb"/><stop offset="0.26" stop-color="#ecf4f6"/><stop offset="0.53" stop-color="#dfedf3"/><stop offset="0.81" stop-color="#c9e1ef"/><stop offset="1" stop-color="#b7d6eb"/></linearGradient><radialGradient id="Безымянный_градиент_4" cx="-328.73" cy="437.46" r="1" gradientTransform="matrix(-2.79, -4.88, -4.86, 2.78, 1232.77, -2751.64)" gradientUnits="userSpaceOnUse"><stop offset="0" stop-color="#ffcd6b"/><stop offset="0.16" stop-color="#ffa96a"/><stop offset="0.4" stop-color="#ff976a"/><stop offset="0.69" stop-color="#ff7c6a"/><stop offset="1" stop-color="#ff3838"/></radialGradient><radialGradient id="Безымянный_градиент_4-2" cx="-328.73" cy="437.46" r="1" gradientTransform="matrix(-2.79, -4.88, -4.86, 2.78, 1243.7, -2745.39)" xlink:href="#Безымянный_градиент_4"/><radialGradient id="Безымянный_градиент_4-3" cx="-328.73" cy="437.46" r="1" gradientTransform="matrix(-2.79, -4.88, -4.86, 2.78, 1254.64, -2739.15)" xlink:href="#Безымянный_градиент_4"/><linearGradient id="Безымянный_градиент_8" x1="77.51" y1="61.18" x2="88" y2="61.18" gradientTransform="matrix(1, 0, 0, -1, 0, 100)" gradientUnits="userSpaceOnUse"><stop offset="0" stop-color="#4d4f59"/><stop offset="0.1" stop-color="#3c3f4b"/><stop offset="0.3" stop-color="#333848"/><stop offset="0.4" stop-color="#2a3044"/><stop offset="0.63" stop-color="#171e34"/><stop offset="0.84" stop-color="#1a223c"/><stop offset="1" stop-color="#111934"/></linearGradient><linearGradient id="Безымянный_градиент_8-2" x1="79.61" y1="78.59" x2="85.89" y2="78.59" xlink:href="#Безымянный_градиент_8"/><linearGradient id="Безымянный_градиент_8-3" x1="80.68" y1="89.32" x2="84.81" y2="89.32" xlink:href="#Безымянный_градиент_8"/><linearGradient id="Безымянный_градиент_8-4" x1="77.51" y1="94.46" x2="88" y2="94.46" xlink:href="#Безымянный_градиент_8"/></defs><title>item-2</title><g id="Слой_2" data-name="Слой 2"><g id="Слой_1-2" data-name="Слой 1"><path class="cls-1" d="M95.95,43.69,54.06,19.33c-2.27-1.33-4.29-1.42-5.78-.58L2.39,45.48c1.49-.87,3.55-.75,5.78.58L50,70.47c4.5,2.62,8.17,9.08,8.17,14.33v7.33c0,2.62-.91,4.46-2.39,5.33l45.89-26.74c1.49-.87,2.39-2.71,2.39-5.33V58.06C104.12,52.77,100.45,46.31,95.95,43.69Z"/><path class="cls-2" d="M50.06,96.88c2.27,1.33,4.29,1.42,5.78.58s2.39-2.71,2.39-5.33V84.8c0-5.25-3.67-11.7-8.17-14.33L8.17,46.06c-2.27-1.33-4.29-1.42-5.78-.58S0,48.19,0,50.81v7.33c0,5.25,3.67,11.7,8.17,14.33Z"/><path class="cls-3" d="M24,66.35a4.44,4.44,0,0,0-1.61,6,4.36,4.36,0,0,0,6,1.62c1.2-.71,1.2-3,0-5.08S25.17,65.64,24,66.35Z"/><path class="cls-4" d="M34.91,72.6a4.44,4.44,0,0,0-1.61,6,4.36,4.36,0,0,0,6,1.62c1.2-.71,1.2-3,0-5.08S36.11,71.89,34.91,72.6Z"/><path class="cls-5" d="M45.85,78.84a4.44,4.44,0,0,0-1.61,6,4.36,4.36,0,0,0,6,1.62c1.2-.71,1.2-3,0-5.08S47,78.13,45.85,78.84Z"/><path class="cls-6" d="M82.74,50.65c-2.89,0-5.24-1.37-5.24-3s2.35-3,5.24-3,5.24,1.37,5.24,3S85.63,50.65,82.74,50.65Z"/><path class="cls-7" d="M82.74,30c-2.89,0-5.24-1.37-5.24-3V47.65c0,1.67,2.35,3,5.24,3s5.24-1.37,5.24-3V26.95C88,28.65,85.63,30,82.74,30Z"/><path class="cls-8" d="M82.74,30c-2.89,0-5.24-1.37-5.24-3s2.35-3,5.24-3S88,25.32,88,27,85.63,30,82.74,30Z"/><path class="cls-6" d="M82.74,28.53c-1.73,0-3.14-.83-3.14-1.83s1.4-1.83,3.14-1.83,3.14.83,3.14,1.83S84.48,28.53,82.74,28.53Z"/><path class="cls-9" d="M82.74,16.12c-1.73,0-3.14-.83-3.14-1.83V26.7c0,1,1.4,1.83,3.14,1.83s3.14-.83,3.14-1.83V14.29C85.88,15.33,84.48,16.12,82.74,16.12Z"/><path class="cls-8" d="M82.74,16.12c-1.73,0-3.14-.83-3.14-1.83s1.4-1.83,3.14-1.83,3.14.83,3.14,1.83S84.48,16.12,82.74,16.12Z"/><path class="cls-6" d="M82.74,15.37c-1.16,0-2.06-.54-2.06-1.21S81.59,13,82.74,13s2.06.54,2.06,1.21S83.9,15.37,82.74,15.37Z"/><path class="cls-10" d="M82.74,7.21c-1.16,0-2.06-.54-2.06-1.21v8.16c0,.67.91,1.21,2.06,1.21s2.06-.54,2.06-1.21V6C84.81,6.66,83.9,7.21,82.74,7.21Z"/><path class="cls-11" d="M82.74,7.21c-1.16,0-2.06-.54-2.06-1.21s.91-1.21,2.06-1.21,2.06.54,2.06,1.21S83.9,7.21,82.74,7.21Z"/><path class="cls-6" d="M82.74,8C79.85,8,77.5,6.66,77.5,5s2.35-3,5.24-3S88,3.33,88,5,85.63,8,82.74,8Z"/><path class="cls-12" d="M82.74,6.08c-2.89,0-5.24-1.37-5.24-3V5c0,1.67,2.35,3,5.24,3S88,6.66,88,5V3C88,4.75,85.63,6.08,82.74,6.08Z"/><path class="cls-8" d="M82.74,6.08c-2.89,0-5.24-1.37-5.24-3s2.35-3,5.24-3S88,1.37,88,3,85.63,6.08,82.74,6.08Z"/><path class="cls-13" d="M39,34.5v3.62c14.53,0,26.33,6.87,26.33,15.37H71.5C71.5,43,56.89,34.5,39,34.5Z"/><path class="cls-13" d="M39,41.71v3.62c7.68,0,13.95,3.62,13.95,8.12h6.19C59.12,47,50.08,41.71,39,41.71Z"/><path class="cls-13" d="M39,48.91v4.5H46.7C46.7,51,43.23,48.91,39,48.91Z"/></g></g></svg>