<svg width="75" height="99" viewBox="0 0 75 99" fill="none" xmlns="http://www.w3.org/2000/svg">
<path d="M66.1526 41.0812L57.3679 35.9856L53.9989 34.0233L37.5002 24.4335L28.873 19.4328C26.417 18.0086 24.213 17.882 22.6072 18.7998L2.58203 30.4152C4.18782 29.4974 6.39186 29.624 8.84777 31.0166L17.475 36.0172L33.9737 45.6071L37.3427 47.5693L46.1274 52.6649C51.0077 55.5134 54.975 62.413 54.975 68.0783V92.6384C54.975 95.4869 53.9674 97.4491 52.3616 98.3986L72.3553 86.7832C73.9611 85.8654 74.9372 83.8714 74.9372 81.023V56.4629C75.0002 50.8292 71.0329 43.898 66.1526 41.0812Z" fill="url(#paint0_linear)"/>
<path d="M46.1587 52.6733L37.3741 47.5777L34.005 45.6154L17.5063 36.0256L9 30.9767C6.54408 29.5524 4.18766 29.4741 2.58186 30.4236C1.00756 31.3414 0 33.3353 0 36.1522V60.7123C0 66.3775 3.96725 73.3088 8.84761 76.1256L37.3741 92.6784L46.1587 97.7739C48.6146 99.1982 50.8186 99.3248 52.4244 98.3753C54.0302 97.4575 55.0378 95.4635 55.0378 92.6151V68.055C55.0063 62.4213 51.039 55.4901 46.1587 52.6733Z" fill="#F3FAFA"/>
<path d="M8.84751 36.1755C6.39159 34.7512 4.43945 35.9223 4.43945 38.7391V63.2992C4.43945 65.4197 5.54147 67.8567 7.08429 69.5658L36.7128 52.3801L8.84751 36.1755Z" fill="#C7D6EC"/>
<path d="M37.3737 52.7282L36.7125 52.3484L7.08398 69.5342C7.61925 70.1355 8.21749 70.6103 8.84721 70.9901L37.3737 87.5428C39.8296 88.967 41.8132 87.796 41.8132 84.9792V60.4507C41.8132 57.6023 39.8296 54.1525 37.3737 52.7282Z" fill="#B6C7E2"/>
<path d="M48.2998 79.662C46.2847 78.491 44.6475 79.4405 44.6475 81.7825C44.6475 84.1246 46.2847 86.9414 48.2998 88.1124C50.315 89.2835 51.9522 88.334 51.9522 85.9919C51.9522 83.6815 50.315 80.833 48.2998 79.662Z" fill="#9D79FC"/>
<path d="M48.2998 66.1161C47.6072 65.7363 46.9774 65.578 46.4422 65.6413C45.3716 65.7679 44.6475 66.6858 44.6475 68.2366C44.6475 70.5787 46.2847 73.3955 48.2998 74.5665C50.315 75.7375 51.9522 74.788 51.9522 72.446C51.9522 71.4965 51.6689 70.4837 51.2281 69.5342C50.5669 68.1416 49.4963 66.8123 48.2998 66.1161Z" fill="#9D79FC"/>
<path d="M48.2996 68.1416C47.9532 67.9201 47.6069 67.8568 47.3235 67.8884C46.7567 67.9517 46.3789 68.4265 46.3789 69.2494C46.3789 70.4837 47.229 71.9712 48.2996 72.5726C49.3701 73.1739 50.2202 72.6992 50.2202 71.4648C50.2202 70.9584 50.0943 70.4521 49.8424 69.9457C49.496 69.1861 48.9293 68.4898 48.2996 68.1416Z" fill="#C7B1FF"/>
<path d="M17.8522 0.75956C19.584 -0.253227 21.4731 -0.253227 22.0714 0.75956C22.6381 1.77235 21.725 3.41813 19.9618 4.43092C18.1986 5.4437 16.3409 5.4437 15.7427 4.43092C15.1759 3.41813 16.1205 1.77235 17.8522 0.75956Z" fill="#FAFAFA"/>
<path d="M18.5134 1.9306C20.2452 0.917808 22.1343 0.917808 22.7326 1.9306L22.0714 0.75956C21.5046 -0.253227 19.6154 -0.253227 17.8522 0.75956C16.1205 1.77235 15.1759 3.41813 15.7427 4.43092L16.4039 5.60195C15.8371 4.55751 16.7817 2.91173 18.5134 1.9306Z" fill="url(#paint1_linear)"/>
<path d="M18.5134 1.93058C20.2451 0.917793 22.1343 0.917793 22.7325 1.93058C23.2993 2.94337 22.3862 4.58915 20.6229 5.60194C18.8912 6.61472 17.002 6.61472 16.4038 5.60194C15.837 4.5575 16.7816 2.91172 18.5134 1.93058Z" fill="#4A4F5B"/>
<path d="M19.521 3.63964C20.2137 3.22819 20.9378 3.22819 21.1897 3.63964C21.4101 4.01943 21.0323 4.68408 20.3711 5.06387C19.6784 5.47532 18.9542 5.47532 18.7023 5.06387C18.4504 4.68408 18.8283 4.05108 19.521 3.63964Z" fill="#FAFAFA"/>
<path d="M22.3232 8.54655C23.0159 8.16675 23.7401 8.16675 23.992 8.54655L21.1897 3.67251C20.9693 3.26106 20.2137 3.26106 19.521 3.67251C18.8283 4.0523 18.4504 4.71694 18.7023 5.09674L21.5046 10.0024C21.2527 9.59099 21.6305 8.92634 22.3232 8.54655Z" fill="url(#paint2_linear)"/>
<path d="M22.3227 8.54541C23.0154 8.16561 23.7396 8.16561 23.9915 8.54541C24.2119 8.95685 23.8341 9.58984 23.1728 10.0013C22.4801 10.4127 21.756 10.4127 21.5041 10.0013C21.2522 9.58984 21.63 8.9252 22.3227 8.54541Z" fill="#EDEDED"/>
<path d="M22.1657 8.22887C23.2047 7.62753 24.3382 7.62753 24.6845 8.22887C25.0309 8.83021 24.4641 9.81135 23.4251 10.4443C22.3861 11.0457 21.2526 11.0457 20.9062 10.4443C20.5284 9.843 21.0951 8.86186 22.1657 8.22887Z" fill="#FAFAFA"/>
<path d="M26.448 15.6982C27.4871 15.0969 28.6206 15.0969 28.9669 15.6982L24.6848 8.2289C24.3384 7.62756 23.2049 7.62756 22.1659 8.2289C21.1269 8.83024 20.5601 9.81138 20.9065 10.4444L25.1886 17.882C24.8107 17.2807 25.3775 16.2996 26.448 15.6982Z" fill="url(#paint3_linear)"/>
<path d="M26.4479 15.6982C27.4869 15.0968 28.6204 15.0968 28.9668 15.6982C29.3131 16.2995 28.7464 17.2806 27.7073 17.882C26.6683 18.4833 25.5348 18.4833 25.1884 17.882C24.8106 17.2806 25.3774 16.2995 26.4479 15.6982Z" fill="#454545"/>
<path d="M26.1022 15.1285C27.834 14.1157 29.7231 14.1157 30.3214 15.1285C30.8881 16.1413 29.975 17.7871 28.2118 18.7999C26.4801 19.8127 24.5909 19.8127 23.9927 18.7999C23.4259 17.7871 24.3705 16.1413 26.1022 15.1285Z" fill="#FAFAFA"/>
<path d="M35.5471 31.5547C37.2789 30.5419 39.1681 30.5419 39.7663 31.5547L30.3204 15.1285C29.7537 14.1157 27.8645 14.1157 26.1013 15.1285C24.3381 16.1413 23.425 17.7871 23.9917 18.7999L33.4061 35.226C32.8393 34.2132 33.7839 32.5675 35.5471 31.5547Z" fill="url(#paint4_linear)"/>
<path d="M35.547 31.5547C37.2788 30.5419 39.1679 30.5419 39.7662 31.5547C40.3329 32.5675 39.4198 34.2132 37.6566 35.226C35.8934 36.2388 34.0357 36.2388 33.4375 35.226C32.8392 34.2132 33.7838 32.5675 35.547 31.5547Z" fill="#454545"/>
<path d="M40.8111 28.4448L34.3223 32.2126L39.0471 40.4343L45.5359 36.6665L40.8111 28.4448Z" fill="#7F4FFE"/>
<path d="M34.3196 32.1876L29.5967 34.9411L39.0425 40.4165L34.3196 32.1876Z" fill="#AA89FF"/>
<path d="M38.0975 35.4792C37.0899 33.7385 37.0899 31.8395 38.0975 31.2382C39.105 30.6685 40.7423 31.5863 41.7499 33.3587C42.7574 35.0994 42.7574 36.9984 41.7499 37.5997C40.7423 38.1694 39.105 37.2199 38.0975 35.4792Z" fill="#FAFAFA"/>
<path d="M48.4249 29.4975C47.4174 27.7567 47.4174 25.8578 48.4249 25.2564L38.0975 31.2698C37.0899 31.8395 37.0899 33.7385 38.0975 35.5109C39.105 37.2516 40.7423 38.2011 41.7499 37.6314L52.0773 31.618C51.0698 32.1877 49.4325 31.2382 48.4249 29.4975Z" fill="url(#paint5_linear)"/>
<path d="M48.4246 29.4974C47.4171 27.7567 47.4171 25.8577 48.4246 25.2564C49.4322 24.6867 51.0694 25.6045 52.077 27.3769C53.0846 29.1176 53.0846 31.0166 52.077 31.618C51.0694 32.1877 49.4322 31.2382 48.4246 29.4974Z" fill="#4A4F5B"/>
<path d="M49.3383 28.9593C48.7401 27.9149 48.7401 26.7755 49.3383 26.4274C49.9366 26.0792 50.9126 26.6489 51.5109 27.6933C52.1091 28.7378 52.1091 29.8772 51.5109 30.2253C50.9126 30.5735 49.9366 30.0354 49.3383 28.9593Z" fill="#FAFAFA"/>
<path d="M56.7376 24.655C56.1393 23.6105 56.1393 22.4712 56.7376 22.123L49.3383 26.4274C48.7401 26.7755 48.7401 27.9149 49.3383 28.9593C49.9366 30.0038 50.9126 30.5735 51.5109 30.2253L58.9101 25.9526C58.3119 26.3008 57.3358 25.7311 56.7376 24.655Z" fill="url(#paint6_linear)"/>
<path d="M56.7377 24.655C56.1395 23.6106 56.1395 22.4712 56.7377 22.123C57.336 21.7749 58.312 22.3446 58.9418 23.389C59.54 24.4335 59.54 25.5729 58.9418 25.921C58.312 26.3008 57.336 25.7311 56.7377 24.655Z" fill="#4A4F5B"/>
<path d="M57.2093 24.4019C56.8 23.7056 56.8 22.9776 57.2093 22.7244C57.5872 22.5029 58.2484 22.8827 58.6262 23.5473C59.0355 24.2436 59.0355 24.9715 58.6262 25.2247C58.2484 25.4463 57.5872 25.0981 57.2093 24.4019Z" fill="#FAFAFA"/>
<path d="M62.0582 21.5856C61.6804 20.8893 61.6804 20.1614 62.0582 19.9082L57.2093 22.725C56.8 22.9465 56.8 23.7061 57.2093 24.4024C57.5872 25.0987 58.2484 25.4785 58.6262 25.257L63.5066 22.4401C63.0972 22.63 62.4675 22.2502 62.0582 21.5856Z" fill="url(#paint7_linear)"/>
<path d="M62.0588 21.585C61.6809 20.8887 61.6809 20.1608 62.0588 19.9076C62.4681 19.686 63.0978 20.0658 63.5071 20.7305C63.9164 21.4268 63.9164 22.1547 63.5071 22.4079C63.0978 22.6295 62.4681 22.2497 62.0588 21.585Z" fill="#EDEDED"/>
<path d="M61.5857 21.8698C60.5782 20.1291 60.5782 18.2301 61.5857 17.6288C62.5933 17.0591 64.2306 17.9769 65.2381 19.7493C66.2457 21.4901 66.2457 23.389 65.2381 23.9904C64.1991 24.5601 62.5618 23.6106 61.5857 21.8698Z" fill="#FAFAFA"/>
<path d="M62.7195 21.1736C61.7119 19.4328 61.7119 17.5339 62.7195 16.9325L61.5545 17.5972C60.5469 18.1669 60.5469 20.0658 61.5545 21.8382C62.5621 23.5789 64.1993 24.5284 65.2069 23.9587L66.3719 23.2941C65.3643 23.8954 63.727 22.946 62.7195 21.1736Z" fill="url(#paint8_linear)"/>
<path d="M62.7195 21.1736C61.712 19.4328 61.712 17.5338 62.7195 16.9325C63.7271 16.3628 65.3644 17.2807 66.3719 19.053C67.3795 20.7938 67.3795 22.6927 66.3719 23.2941C65.3644 23.8954 63.7271 22.9459 62.7195 21.1736Z" fill="#4A4F5B"/>
<defs>
<linearGradient id="paint0_linear" x1="22.0531" y1="10.449" x2="76.8681" y2="90.8198" gradientUnits="userSpaceOnUse">
<stop stop-color="#DCEBEB"/>
<stop offset="0.2556" stop-color="#ECF4F6"/>
<stop offset="0.5308" stop-color="#DFEDF3"/>
<stop offset="0.814" stop-color="#C9E1EF"/>
<stop offset="1" stop-color="#B7D6EB"/>
</linearGradient>
<linearGradient id="paint1_linear" x1="20.3689" y1="3.12395" x2="18.8278" y2="4.59717" gradientUnits="userSpaceOnUse">
<stop stop-color="#4D4F59"/>
<stop offset="0.0957136" stop-color="#3C3F4B"/>
<stop offset="0.3006" stop-color="#333848"/>
<stop offset="0.3969" stop-color="#2A3044"/>
<stop offset="0.6347" stop-color="#171E34"/>
<stop offset="0.8436" stop-color="#1A223C"/>
<stop offset="1" stop-color="#111934"/>
</linearGradient>
<linearGradient id="paint2_linear" x1="22.2185" y1="7.06592" x2="20.5989" y2="8.04624" gradientUnits="userSpaceOnUse">
<stop stop-color="#4D4F59"/>
<stop offset="0.0957136" stop-color="#3C3F4B"/>
<stop offset="0.3006" stop-color="#333848"/>
<stop offset="0.3969" stop-color="#2A3044"/>
<stop offset="0.6347" stop-color="#171E34"/>
<stop offset="0.8436" stop-color="#1A223C"/>
<stop offset="1" stop-color="#111934"/>
</linearGradient>
<linearGradient id="paint3_linear" x1="26.2702" y1="13.4125" x2="23.8063" y2="14.9025" gradientUnits="userSpaceOnUse">
<stop stop-color="#4D4F59"/>
<stop offset="0.0957136" stop-color="#3C3F4B"/>
<stop offset="0.3006" stop-color="#333848"/>
<stop offset="0.3969" stop-color="#2A3044"/>
<stop offset="0.6347" stop-color="#171E34"/>
<stop offset="0.8436" stop-color="#1A223C"/>
<stop offset="1" stop-color="#111934"/>
</linearGradient>
<linearGradient id="paint4_linear" x1="34.4993" y1="26" x2="29.548" y2="28.8329" gradientUnits="userSpaceOnUse">
<stop stop-color="#4D4F59"/>
<stop offset="0.0957136" stop-color="#3C3F4B"/>
<stop offset="0.3006" stop-color="#333848"/>
<stop offset="0.3969" stop-color="#2A3044"/>
<stop offset="0.6347" stop-color="#171E34"/>
<stop offset="0.8436" stop-color="#1A223C"/>
<stop offset="1" stop-color="#111934"/>
</linearGradient>
<linearGradient id="paint5_linear" x1="41.4993" y1="29.5" x2="44.9993" y2="36" gradientUnits="userSpaceOnUse">
<stop stop-color="#4D4F59"/>
<stop offset="0.0957136" stop-color="#3C3F4B"/>
<stop offset="0.3006" stop-color="#333848"/>
<stop offset="0.3969" stop-color="#2A3044"/>
<stop offset="0.6347" stop-color="#171E34"/>
<stop offset="0.8436" stop-color="#1A223C"/>
<stop offset="1" stop-color="#111934"/>
</linearGradient>
<linearGradient id="paint6_linear" x1="51.7168" y1="24.8994" x2="53.9574" y2="29.2243" gradientUnits="userSpaceOnUse">
<stop stop-color="#4D4F59"/>
<stop offset="0.0957136" stop-color="#3C3F4B"/>
<stop offset="0.3006" stop-color="#333848"/>
<stop offset="0.3969" stop-color="#2A3044"/>
<stop offset="0.6347" stop-color="#171E34"/>
<stop offset="0.8436" stop-color="#1A223C"/>
<stop offset="1" stop-color="#111934"/>
</linearGradient>
<linearGradient id="paint7_linear" x1="58.7657" y1="21.7395" x2="60.2443" y2="24.5913" gradientUnits="userSpaceOnUse">
<stop stop-color="#4D4F59"/>
<stop offset="0.0957136" stop-color="#3C3F4B"/>
<stop offset="0.3006" stop-color="#333848"/>
<stop offset="0.3969" stop-color="#2A3044"/>
<stop offset="0.6347" stop-color="#171E34"/>
<stop offset="0.8436" stop-color="#1A223C"/>
<stop offset="1" stop-color="#111934"/>
</linearGradient>
<linearGradient id="paint8_linear" x1="62.3712" y1="19.3661" x2="64.7268" y2="22.2512" gradientUnits="userSpaceOnUse">
<stop stop-color="#4D4F59"/>
<stop offset="0.0957136" stop-color="#3C3F4B"/>
<stop offset="0.3006" stop-color="#333848"/>
<stop offset="0.3969" stop-color="#2A3044"/>
<stop offset="0.6347" stop-color="#171E34"/>
<stop offset="0.8436" stop-color="#1A223C"/>
<stop offset="1" stop-color="#111934"/>
</linearGradient>
</defs>
</svg>
