<svg width="132" height="38" viewBox="0 0 132 38" fill="none" xmlns="http://www.w3.org/2000/svg">
<path d="M3 0C1.34315 0 0 1.34315 0 3V35C0 36.6569 1.34315 38 3 38H35C36.6569 38 38 36.6569 38 35V3C38 1.34315 36.6569 0 35 0H3Z" fill="white"/>
<path d="M25.064 5.65955H22.6384V23.4468H25.064V5.65955Z" fill="#1D69BC"/>
<path d="M30.4669 29.0118H19.0225H13.2585L7.82861 33.9575V29.0118V26.9162V8.89368H20.192V10.9055H9.83348V26.9162V29.0118V29.2633L12.5066 26.9162H12.8408H19.0225H28.462V8.89368H30.4669V29.0118Z" fill="#331160"/>
<path d="M20.2129 12.9362H17.7874V23.4468H20.2129V12.9362Z" fill="#EF2942"/>
<path d="M15.3617 16.9786H12.9362V23.4467H15.3617V16.9786Z" fill="#FF9D33"/>
<path d="M64.75 8V11.6207H58.9167V29H54.8333V11.6207H49V8H64.75Z" fill="white"/>
<path d="M76.6702 8L84.9597 29H80.7229L78.6966 24.1121H70.0387L68.0123 29H63.9597L72.4334 8H76.6702ZM74.4597 12.7069L71.6966 20.1293H77.2229L74.4597 12.7069Z" fill="white"/>
<path d="M97.2236 8C101.911 8 103.974 10.7155 103.974 14.3362C103.974 17.4138 102.474 19.7672 99.0986 20.4914L104.911 29H100.224L94.5986 20.6724H93.0986V29H89.1611V8H97.2236ZM97.2236 17.0517C99.2861 17.0517 100.224 15.9655 100.224 14.5172C100.224 13.069 98.9111 11.9828 97.4111 11.9828H93.4736V17.2328H97.2236V17.0517Z" fill="white"/>
<path d="M109.113 8H113.138V29H109.113V8Z" fill="white"/>
<path d="M131.25 8V11.6207H123.022V16.8707H130.884V20.4914H123.022V29H119V8H131.25Z" fill="white"/>
</svg>
