<svg width="113" height="40" viewBox="0 0 113 40" fill="none" xmlns="http://www.w3.org/2000/svg">
<path d="M112.539 24.4571C112.539 24.4571 110.118 24.8 107.235 24.8C103.776 24.8 103.084 23.6571 103.084 21.0285V17.7143C103.084 14.9714 103.66 13.8285 107.235 13.8285C109.772 13.8285 112.193 14.1714 112.193 14.1714L112.654 9.14283C112.654 9.14283 109.541 8.68569 106.774 8.68569C99.5094 8.68569 96.9727 11.0857 96.9727 16.8V21.8285C96.9727 28.1143 100.201 29.9428 106.774 29.9428C109.426 29.9428 113 29.4857 113 29.4857L112.539 24.4571Z" fill="#F80068"/>
<path d="M76.448 14.2857H82.4439V29.6H88.6704V14.2857H94.6663L95.0123 9.14285H76.1021L76.448 14.2857Z" fill="#F80068"/>
<path d="M63.7643 27.5428L67.1082 19.7714H67.4541L68.146 29.6H74.1419L72.7582 9.14285H66.9929L62.0348 20.8H61.6888L56.3848 9.14285H50.7347L49.3511 29.6H55.2317L55.8082 19.7714H56.1541L59.8439 27.5428H63.7643Z" fill="#F80068"/>
<path d="M40.3571 4V36C40.3571 38.1714 38.5122 40 36.3214 40H4.03572C1.8449 40 0 38.1714 0 36V4C0 1.82857 1.8449 0 4.03572 0H36.3214C38.5122 0 40.3571 1.82857 40.3571 4ZM20.1786 34.7429C27.6735 34.7429 31.1327 28.8 31.1327 22.8571C31.1327 14.5143 25.3673 5.14286 20.1786 5.14286C15.1051 5.14286 9.22449 14.6286 9.22449 22.9714C9.22449 28.8 12.5684 34.7429 20.1786 34.7429Z" fill="#F80068"/>
<path d="M31.1328 22.8571C31.1328 28.8 27.6736 34.7428 20.1787 34.7428C12.5685 34.7428 9.22461 28.8 9.22461 22.9714C9.22461 14.6286 15.1052 5.14285 20.1787 5.14285C25.3675 5.14285 31.1328 14.5143 31.1328 22.8571Z" fill="white"/>
</svg>
