<svg width="178" height="63" viewBox="0 0 178 63" fill="none" xmlns="http://www.w3.org/2000/svg">
<path d="M177.249 38.5197C177.249 38.5197 173.436 39.0597 168.895 39.0597C163.447 39.0597 162.358 37.2597 162.358 33.1197V27.8997C162.358 23.5797 163.266 21.7797 168.895 21.7797C172.891 21.7797 176.705 22.3197 176.705 22.3197L177.431 14.3997C177.431 14.3997 172.528 13.6797 168.169 13.6797C156.728 13.6797 152.732 17.4597 152.732 26.4597V34.3797C152.732 44.2798 157.817 47.1597 168.169 47.1597C172.346 47.1597 177.976 46.4397 177.976 46.4397L177.249 38.5197Z" fill="#F80068"/>
<path d="M120.406 22.5H129.85V46.62H139.657V22.5H149.1L149.645 14.4H119.861L120.406 22.5Z" fill="#F80068"/>
<path d="M100.429 43.38L105.696 31.14H106.241L107.33 46.62H116.774L114.595 14.4H105.514L97.7053 32.76H97.1605L88.8066 14.4H79.9078L77.7285 46.62H86.9905L87.8985 31.14H88.4433L94.2548 43.38H100.429Z" fill="#F80068"/>
<path d="M63.5625 6.30006V56.7001C63.5625 60.1201 60.6568 63.0001 57.2063 63.0001H6.35625C2.90572 63.0001 0 60.1201 0 56.7001V6.30006C0 2.88006 2.90572 6.10352e-05 6.35625 6.10352e-05H57.2063C60.6568 6.10352e-05 63.5625 2.88006 63.5625 6.30006ZM31.7813 54.7201C43.5857 54.7201 49.0339 45.3601 49.0339 36.0001C49.0339 22.8601 39.9536 8.10006 31.7813 8.10006C23.7905 8.10006 14.5286 23.0401 14.5286 36.1801C14.5286 45.3601 19.7952 54.7201 31.7813 54.7201Z" fill="#F80068"/>
<path d="M49.0347 36C49.0347 45.36 43.5864 54.72 31.782 54.72C19.7959 54.72 14.5293 45.36 14.5293 36.18C14.5293 23.04 23.7913 8.09998 31.782 8.09998C39.9543 8.09998 49.0347 22.86 49.0347 36Z" fill="white"/>
</svg>
