<svg xmlns="http://www.w3.org/2000/svg" viewBox="0 0 29.18 31"><defs><style>.cls-1{fill:#fff;}</style></defs><title>ruso</title><g id="Слой_2" data-name="Слой 2"><g id="Слой_1-2" data-name="Слой 1"><path class="cls-1" d="M22.18,13.36c6.94-2.33,10,10.33,3.18,11.27-2.76.38-5.74.41-7.18-2.94-1.6-3.72.34-7.09,4-8.32Zm5,6.28c.09-2.71-.63-5-3.72-4.54-2.51.4-4.52,2.49-3.64,5.09C20.91,23.36,27,24,27.18,19.64Z"/><path class="cls-1" d="M12.8,6.63A12.07,12.07,0,0,1,12,3.5c0-1.56,1.58-.63,1.9.17.88,2.17,1,5.32,3.38,6.57,1.39.74,3.62-.21,4.31-1.44,1.11-2-.94-5.23-1.68-7.14A1.26,1.26,0,0,1,21.43,0c1.15.17,1.44,2.16,1.74,3.06.73,2.23,1.39,5.51-.38,7.43a6.21,6.21,0,0,1-5.52,1.83c-2.63-.59-3.73-3.44-4.46-5.71C12.51,5.6,13,7.17,12.8,6.63Z"/><path class="cls-1" d="M8.6,20.34c-1,.45-2.22.92-2.67-.14-.57-1.33,2.17-1.53,1.62-2.36-.69-1-3.36.1-3.37,2.5,0,3.62,4.13,2.17,5.73,1.43a3.56,3.56,0,0,1,4.19.74c1.17,1.29.66,3.2-.94,4.42-1.35,1-5.4,1.57-6,2.09-1.3,1.08.39,2.38,1.82,1.87C13.51,29.24,16.18,28,16.51,25c.24-2.12-.53-4.79-3.19-5.32A6.83,6.83,0,0,0,8.6,20.34Z"/><path class="cls-1" d="M15.27,17.95c-2.24.73-2.84-2.67-.83-3.39S17.77,17,15.27,17.95Z"/><path class="cls-1" d="M.46,8.8a6.36,6.36,0,0,0,.13,5c.34.92.74,3.88,1.66,4.37,1.5.8,1.1-2,.77-2.77-.61-1.56-1.47-3.2-1.22-4.93A4,4,0,0,1,7.12,7.43c2.27.68,3.13,3.93,1.44,5.18a5.8,5.8,0,0,1-4.4.76c-.4-.06-.83.32-.55.75s1.57.74,2.14.79a4.52,4.52,0,0,0,2-.16c1.14-.35,1.31.5,2.37,1,.41.18,1.59.12,1.72-.41.19-.79-1.29-1.41-1.81-1.65a3.67,3.67,0,0,0,1-2C12.64,5.94,3,2.84.46,8.8Z"/></g></g></svg>