<svg xmlns="http://www.w3.org/2000/svg" viewBox="0 0 16 16"><title>www</title><g id="Слой_2" data-name="Слой 2"><g id="Слой_1-2" data-name="Слой 1"><path d="M8,0a8,8,0,1,0,5.65,2.35A8,8,0,0,0,8,0Zm5.91,7H12a14.43,14.43,0,0,0-.71-4,6,6,0,0,1,2.65,4ZM8,14c-1,0-1.81-2.16-2-5H10C9.81,11.84,9,14,8,14ZM6,7c.16-2.84,1-5,2-5s1.81,2.16,2,5ZM4.74,3A14.43,14.43,0,0,0,4,7H2.09A6,6,0,0,1,4.74,3ZM2.09,9H4a14.43,14.43,0,0,0,.71,4A6,6,0,0,1,2.09,9Zm9.17,4A14.43,14.43,0,0,0,12,9h1.94a6,6,0,0,1-2.65,4Z"/></g></g></svg>